<svg width="319" height="58" viewBox="0 0 319 58" fill="none" xmlns="http://www.w3.org/2000/svg">
<path d="M150.136 33L149.368 30.8193H146.366L145.598 33H144.239L147.161 25.1152H148.589L151.506 33H150.136ZM149.035 29.7129L148.289 27.5645C148.26 27.4714 148.219 27.3407 148.165 27.1724C148.111 27.0005 148.058 26.8268 148.004 26.6514C147.95 26.4723 147.906 26.3219 147.87 26.2002C147.834 26.347 147.789 26.5117 147.735 26.6943C147.685 26.8734 147.635 27.0417 147.585 27.1992C147.539 27.3568 147.503 27.4785 147.478 27.5645L146.726 29.7129H149.035ZM155.516 33H154.221V26.2432H151.922V25.1475H157.809V26.2432H155.516V33ZM164.129 33L163.36 30.8193H160.358L159.59 33H158.231L161.153 25.1152H162.582L165.498 33H164.129ZM163.027 29.7129L162.281 27.5645C162.252 27.4714 162.211 27.3407 162.157 27.1724C162.104 27.0005 162.05 26.8268 161.996 26.6514C161.943 26.4723 161.898 26.3219 161.862 26.2002C161.826 26.347 161.781 26.5117 161.728 26.6943C161.678 26.8734 161.627 27.0417 161.577 27.1992C161.531 27.3568 161.495 27.4785 161.47 27.5645L160.718 29.7129H163.027ZM172.951 25.1475V30.2285C172.951 30.7764 172.834 31.2669 172.602 31.7002C172.373 32.1335 172.025 32.4772 171.56 32.7314C171.094 32.9821 170.509 33.1074 169.803 33.1074C168.797 33.1074 168.031 32.8442 167.505 32.3179C166.982 31.7879 166.72 31.0843 166.72 30.207V25.1475H168.009V30.0942C168.009 30.7495 168.163 31.2329 168.471 31.5444C168.779 31.856 169.239 32.0117 169.852 32.0117C170.274 32.0117 170.618 31.9383 170.883 31.7915C171.151 31.6411 171.348 31.4227 171.474 31.1362C171.603 30.8462 171.667 30.4971 171.667 30.0889V25.1475H172.951Z" fill="#1E1E1E" fill-opacity="0.51"/>
<line y1="29.5" x2="133.038" y2="29.5" stroke="#1E1E1E" stroke-opacity="0.51"/>
<line x1="185.796" y1="29.5" x2="318.834" y2="29.5" stroke="#1E1E1E" stroke-opacity="0.51"/>
</svg>
