<svg width="200" height="200" viewBox="0 0 200 200" fill="none" xmlns="http://www.w3.org/2000/svg">
<path d="M175.328 81.4062C172.281 78.2266 169.133 74.9453 167.867 71.8906C166.695 69.0547 166.633 64.8594 166.562 60.4219C166.453 53.0937 166.328 44.7969 160.766 39.2344C155.203 33.6719 146.875 33.5469 139.578 33.4375C135.141 33.3672 130.984 33.3047 128.109 32.1328C125.055 30.8672 121.773 27.7188 118.594 24.6719C113.406 19.7031 107.531 14.0625 100 14.0625C92.4688 14.0625 86.5938 19.7031 81.4062 24.6719C78.2266 27.7188 74.9453 30.8672 71.8906 32.1328C69.0547 33.3047 64.8594 33.3672 60.4219 33.4375C53.0937 33.5469 44.7969 33.6719 39.2344 39.2344C33.6719 44.7969 33.5469 53.125 33.4375 60.4219C33.3672 64.8594 33.3047 69.0156 32.1328 71.8906C30.8672 74.9453 27.7188 78.2266 24.6719 81.4062C19.7031 86.5938 14.0625 92.4688 14.0625 100C14.0625 107.531 19.7031 113.406 24.6719 118.594C27.7188 121.773 30.8672 125.055 32.1328 128.109C33.3047 130.945 33.3672 135.141 33.4375 139.578C33.5469 146.906 33.6719 155.203 39.2344 160.766C44.7969 166.328 53.125 166.453 60.4219 166.562C64.8594 166.633 69.0156 166.695 71.8906 167.867C74.9453 169.133 78.2266 172.281 81.4062 175.328C86.5938 180.297 92.4688 185.938 100 185.938C107.531 185.938 113.406 180.297 118.594 175.328C121.773 172.281 125.055 169.133 128.109 167.867C130.945 166.695 135.141 166.633 139.578 166.562C146.906 166.453 155.203 166.328 160.766 160.766C166.328 155.203 166.453 146.906 166.562 139.578C166.633 135.141 166.695 130.984 167.867 128.109C169.133 125.055 172.281 121.773 175.328 118.594C180.297 113.406 185.938 107.531 185.938 100C185.938 92.4688 180.297 86.5938 175.328 81.4062ZM168.562 112.109C164.914 115.906 161.141 119.844 159.188 124.531C157.328 129.016 157.25 134.312 157.172 139.438C157.086 145.25 156.992 151.266 154.125 154.141C151.258 157.016 145.234 157.102 139.422 157.188C134.297 157.266 129 157.344 124.516 159.203C119.828 161.141 115.922 164.914 112.086 168.578C107.984 172.484 103.742 176.578 99.9844 176.578C96.2266 176.578 91.9844 172.508 87.875 168.578C84.0781 164.93 80.1406 161.156 75.4531 159.203C70.9688 157.344 65.6719 157.266 60.5469 157.188C54.7344 157.102 48.7188 157.008 45.8438 154.141C42.9688 151.273 42.8828 145.25 42.7969 139.438C42.7187 134.312 42.6406 129.016 40.7812 124.531C38.8438 119.844 35.0703 115.938 31.4062 112.102C27.5078 108 23.4375 103.758 23.4375 100C23.4375 96.2422 27.5078 92 31.4375 87.8906C35.0859 84.0938 38.8594 80.1562 40.8125 75.4688C42.6719 70.9844 42.75 65.6875 42.8281 60.5625C42.9141 54.75 43.0078 48.7344 45.875 45.8594C48.7422 42.9844 54.7656 42.8984 60.5781 42.8125C65.7031 42.7344 71 42.6563 75.4844 40.7969C80.1719 38.8594 84.0781 35.0859 87.9141 31.4219C92 27.5078 96.2422 23.4375 100 23.4375C103.758 23.4375 108 27.5078 112.109 31.4375C115.906 35.0859 119.844 38.8594 124.531 40.8125C129.016 42.6719 134.312 42.75 139.438 42.8281C145.25 42.9141 151.266 43.0078 154.141 45.875C157.016 48.7422 157.102 54.7656 157.188 60.5781C157.266 65.7031 157.344 71 159.203 75.4844C161.141 80.1719 164.914 84.0781 168.578 87.9141C172.484 92.0156 176.578 96.2578 176.578 100.016C176.578 103.773 172.492 108 168.562 112.109ZM107.812 140.625C107.812 142.17 107.354 143.681 106.496 144.965C105.637 146.25 104.417 147.251 102.99 147.843C101.562 148.434 99.9913 148.589 98.4759 148.287C96.9604 147.986 95.5683 147.242 94.4757 146.149C93.3831 145.057 92.6391 143.665 92.3376 142.149C92.0362 140.634 92.1909 139.063 92.7822 137.635C93.3735 136.208 94.3748 134.988 95.6596 134.129C96.9444 133.271 98.4548 132.812 100 132.812C102.072 132.812 104.059 133.636 105.524 135.101C106.989 136.566 107.812 138.553 107.812 140.625ZM129.688 84.375C129.688 97.5938 118.836 108.594 104.688 110.609V112.5C104.688 113.743 104.194 114.935 103.315 115.815C102.435 116.694 101.243 117.188 100 117.188C98.7568 117.188 97.5645 116.694 96.6854 115.815C95.8064 114.935 95.3125 113.743 95.3125 112.5V106.25C95.3125 105.007 95.8064 103.815 96.6854 102.935C97.5645 102.056 98.7568 101.562 100 101.562C111.203 101.562 120.312 93.8516 120.312 84.375C120.312 74.8984 111.203 67.1875 100 67.1875C88.7969 67.1875 79.6875 74.8984 79.6875 84.375V87.5C79.6875 88.7432 79.1936 89.9355 78.3146 90.8146C77.4355 91.6936 76.2432 92.1875 75 92.1875C73.7568 92.1875 72.5645 91.6936 71.6854 90.8146C70.8064 89.9355 70.3125 88.7432 70.3125 87.5V84.375C70.3125 69.7266 83.5938 57.8125 100 57.8125C116.406 57.8125 129.688 69.7266 129.688 84.375Z" fill="#FFD039"/>
</svg>
