<svg width="79" height="18" viewBox="0 0 79 18" fill="none" xmlns="http://www.w3.org/2000/svg">
<path d="M3.07529 16.9079C2.74632 17.1189 2.37382 16.7501 2.44005 16.2789L3.14639 11.2538L0.147856 7.68741C-0.132373 7.35411 0.0126872 6.7447 0.388098 6.67814L4.55814 5.93878L6.41746 1.34182C6.58495 0.927725 7.03867 0.927725 7.20616 1.34182L9.06548 5.93878L13.2355 6.67814C13.6109 6.7447 13.756 7.35411 13.4758 7.68741L10.4772 11.2538L11.1836 16.2789C11.2498 16.7501 10.8773 17.1189 10.5483 16.9079L6.81181 14.5109L3.07529 16.9079Z" fill="#EDF042"/>
<path d="M19.42 16.9079C19.091 17.1189 18.7185 16.7501 18.7848 16.2789L19.4911 11.2538L16.4926 7.68741C16.2124 7.35411 16.3574 6.7447 16.7328 6.67814L20.9029 5.93878L22.7622 1.34182C22.9297 0.927725 23.3834 0.927725 23.5509 1.34182L25.4102 5.93878L29.5802 6.67814C29.9557 6.7447 30.1007 7.35411 29.8205 7.68741L26.822 11.2538L27.5283 16.2789C27.5945 16.7501 27.222 17.1189 26.8931 16.9079L23.1565 14.5109L19.42 16.9079Z" fill="#EDF042"/>
<path d="M35.7647 16.9079C35.4358 17.1189 35.0633 16.7501 35.1295 16.2789L35.8358 11.2538L32.8373 7.68741C32.5571 7.35411 32.7021 6.7447 33.0776 6.67814L37.2476 5.93878L39.1069 1.34182C39.2744 0.927725 39.7281 0.927725 39.8956 1.34182L41.7549 5.93878L45.925 6.67814C46.3004 6.7447 46.4454 7.35411 46.1652 7.68741L43.1667 11.2538L43.873 16.2789C43.9393 16.7501 43.5668 17.1189 43.2378 16.9079L39.5013 14.5109L35.7647 16.9079Z" fill="#EDF042"/>
<path d="M52.11 16.9079C51.781 17.1189 51.4085 16.7501 51.4747 16.2789L52.1811 11.2538L49.1825 7.68741C48.9023 7.35411 49.0474 6.7447 49.4228 6.67814L53.5928 5.93878L55.4521 1.34182C55.6196 0.927725 56.0733 0.927725 56.2408 1.34182L58.1002 5.93878L62.2702 6.67814C62.6456 6.7447 62.7907 7.35411 62.5104 7.68741L59.5119 11.2538L60.2182 16.2789C60.2845 16.7501 59.912 17.1189 59.583 16.9079L55.8465 14.5109L52.11 16.9079Z" fill="#EDF042"/>
<path d="M67.8194 16.2789C67.7532 16.7501 68.1257 17.1189 68.4547 16.9079L72.1912 14.5109L75.9277 16.9079C76.2567 17.1189 76.6292 16.7501 76.563 16.2789L75.8566 11.2538L78.8552 7.68741C79.1354 7.35411 78.9903 6.7447 78.6149 6.67814L74.4449 5.93878L72.5856 1.34182C72.4181 0.927725 71.9643 0.927725 71.7969 1.34182L69.9375 5.93878L65.7675 6.67814C65.3921 6.7447 65.247 7.35411 65.5273 7.68741L68.5258 11.2538L67.8194 16.2789ZM71.9947 13.3378L68.857 15.3506L69.4481 11.1459C69.4759 10.9477 69.4235 10.7448 69.3095 10.6092L66.8349 7.66593L70.2846 7.05428C70.4272 7.029 70.5518 6.91532 70.619 6.749L72.1912 2.86202L73.7634 6.749C73.8306 6.91532 73.9552 7.029 74.0978 7.05428L77.5475 7.66593L75.0729 10.6092C74.9589 10.7448 74.9065 10.9477 74.9343 11.1459L75.5254 15.3506L72.3877 13.3378C72.2638 13.2583 72.1186 13.2583 71.9947 13.3378Z" fill="black"/>
</svg>
