<svg width="55" height="57" viewBox="0 0 55 57" fill="none" xmlns="http://www.w3.org/2000/svg">
<rect width="55" height="57" rx="27.5" fill="#E9F0FF"/>
<g clip-path="url(#clip0_3_1481)">
<path d="M29.12 16.0718C27.3275 15.6983 25.6625 16.828 25.5425 18.2905C25.4075 19.9327 25.1112 21.4405 24.74 22.3374C24.5056 22.8999 23.8419 23.9202 22.79 24.8983C21.7456 25.8718 20.3863 26.739 18.7944 27.1014C17.5344 27.3874 16.25 28.2968 16.25 29.6249V35.8764C16.25 37.1968 17.5287 38.1639 18.965 38.2905C20.9712 38.4686 21.8975 38.9389 22.8425 39.4202L22.9325 39.4671C23.4425 39.7249 24.0162 40.0108 24.7512 40.2233C25.4956 40.4358 26.3656 40.5624 27.5 40.5624H34.0625C35.8194 40.5624 37.0606 39.8171 37.6887 38.8999C37.9923 38.4671 38.1564 37.9762 38.165 37.4749C38.165 37.2374 38.1219 36.9874 38.0206 36.7499C38.3975 36.3389 38.7331 35.8468 38.9356 35.3421C39.1419 34.8264 39.2581 34.1514 38.9431 33.5468C39.0725 33.3436 39.1681 33.1264 39.2412 32.9171C39.3856 32.4952 39.4531 32.0296 39.4531 31.578C39.4531 31.128 39.3856 30.6639 39.2412 30.2405C39.1757 30.0458 39.0891 29.8565 38.9825 29.6749C39.3108 29.2856 39.522 28.8363 39.5984 28.3648C39.6748 27.8933 39.614 27.4134 39.4212 26.9655C39.035 26.0405 38.1425 25.2468 37.1712 24.978C35.5831 24.5374 33.7906 24.5468 32.4537 24.6483C32.1762 24.6691 31.8993 24.6952 31.6231 24.7264C32.2736 22.4052 32.2337 19.9866 31.5069 17.6811C31.3804 17.3117 31.1379 16.9772 30.8043 16.7121C30.4707 16.447 30.0582 16.261 29.6094 16.1733L29.12 16.0718ZM34.0625 39.0014H27.5C26.5437 39.0014 25.8819 38.8936 25.3625 38.7452C24.8356 38.5936 24.4137 38.3889 23.9075 38.1311L23.8325 38.0936C22.7919 37.5639 21.5862 36.9515 19.1637 36.7374C18.5394 36.6811 18.125 36.2843 18.125 35.878V29.6249C18.125 29.228 18.5487 28.7764 19.2875 28.6093C21.3406 28.1405 22.9944 27.053 24.1887 25.9405C25.3794 24.8311 26.1837 23.6358 26.51 22.8499C26.9656 21.7561 27.2731 20.0874 27.4137 18.3968C27.4606 17.8311 28.0887 17.4686 28.6644 17.5874L29.1556 17.6905C29.4556 17.753 29.6394 17.9139 29.6956 18.0889C30.4613 20.5202 30.3669 23.0842 29.4237 25.4718C29.3704 25.6046 29.3608 25.7469 29.396 25.8838C29.4313 26.0207 29.5101 26.1472 29.6241 26.2501C29.7381 26.353 29.8833 26.4284 30.0443 26.4685C30.2053 26.5086 30.3763 26.5119 30.5394 26.478L30.545 26.4764L30.5712 26.4718L30.68 26.4499C31.3212 26.3364 31.9698 26.2545 32.6225 26.2046C33.8656 26.1108 35.3544 26.1202 36.5787 26.4608C36.9069 26.5515 37.4225 26.9296 37.6475 27.4764C37.8481 27.9577 37.8106 28.5233 37.1487 29.0733L36.4869 29.6249L37.1487 30.178C37.2294 30.2452 37.3456 30.3983 37.4375 30.6702C37.5275 30.9311 37.5781 31.2483 37.5781 31.578C37.5781 31.9093 37.5275 32.2249 37.4375 32.4874C37.3437 32.7593 37.2294 32.9124 37.1487 32.9796L36.4869 33.5311L37.1487 34.0843C37.2369 34.1577 37.3531 34.3608 37.1581 34.8468C36.9549 35.318 36.6319 35.747 36.2112 36.1046L35.5494 36.6561L36.2112 37.2093C36.2225 37.2171 36.2881 37.2874 36.2881 37.4749C36.2798 37.7041 36.2017 37.9277 36.0612 38.1249C35.7519 38.5749 35.1181 38.9999 34.0625 38.9999V39.0014Z" fill="#003F62"/>
</g>
<defs>
<clipPath id="clip0_3_1481">
<rect width="30" height="25" fill="white" transform="translate(12.5 16)"/>
</clipPath>
</defs>
</svg>
