<svg width="44" height="44" viewBox="0 0 44 44" fill="none" xmlns="http://www.w3.org/2000/svg">
<rect width="44" height="44" rx="10" fill="#EDA415"/>
<path d="M26.6875 13C24.7516 13 23.0566 13.8325 22 15.2397C20.9434 13.8325 19.2484 13 17.3125 13C15.7715 13.0017 14.294 13.6147 13.2044 14.7044C12.1147 15.794 11.5017 17.2715 11.5 18.8125C11.5 25.375 21.2303 30.6869 21.6447 30.9062C21.7539 30.965 21.876 30.9958 22 30.9958C22.124 30.9958 22.2461 30.965 22.3553 30.9062C22.7697 30.6869 32.5 25.375 32.5 18.8125C32.4983 17.2715 31.8853 15.794 30.7956 14.7044C29.706 13.6147 28.2285 13.0017 26.6875 13ZM22 29.3875C20.2881 28.39 13 23.8459 13 18.8125C13.0015 17.6692 13.4563 16.5732 14.2647 15.7647C15.0732 14.9563 16.1692 14.5015 17.3125 14.5C19.1359 14.5 20.6669 15.4713 21.3062 17.0312C21.3628 17.1688 21.4589 17.2865 21.5824 17.3693C21.7059 17.4521 21.8513 17.4963 22 17.4963C22.1487 17.4963 22.2941 17.4521 22.4176 17.3693C22.5411 17.2865 22.6372 17.1688 22.6937 17.0312C23.3331 15.4684 24.8641 14.5 26.6875 14.5C27.8308 14.5015 28.9268 14.9563 29.7353 15.7647C30.5437 16.5732 30.9985 17.6692 31 18.8125C31 23.8384 23.71 28.3891 22 29.3875Z" fill="white"/>
</svg>
