<svg width="56" height="50" viewBox="0 0 56 50" fill="none" xmlns="http://www.w3.org/2000/svg">
<rect width="56" height="50" rx="15" fill="#DAEAF3"/>
<path d="M35.3544 27.1919C34.3915 29.2337 33.0882 31.2694 31.7529 33.0962C30.4217 34.9173 29.0861 36.4939 28.0814 37.6163C27.9479 37.7654 27.8205 37.9064 27.6998 38.0386C27.5792 37.9064 27.4517 37.7654 27.3182 37.6163C26.3136 36.4939 24.9779 34.9173 23.6467 33.0962C22.3114 31.2694 21.0081 29.2337 20.0452 27.1919C19.0724 25.129 18.5123 23.196 18.5123 21.5385C18.5123 16.228 22.6257 11.9231 27.6998 11.9231C32.7739 11.9231 36.8873 16.228 36.8873 21.5385C36.8873 23.196 36.3272 25.129 35.3544 27.1919ZM27.6998 40.7692C27.6998 40.7692 38.7248 29.8341 38.7248 21.5385C38.7248 15.1659 33.7887 10 27.6998 10C21.6109 10 16.6748 15.1659 16.6748 21.5385C16.6748 29.8341 27.6998 40.7692 27.6998 40.7692Z" fill="#003F62"/>
<path d="M27.6998 25.3846C25.6702 25.3846 24.0248 23.6626 24.0248 21.5385C24.0248 19.4143 25.6702 17.6923 27.6998 17.6923C29.7295 17.6923 31.3748 19.4143 31.3748 21.5385C31.3748 23.6626 29.7295 25.3846 27.6998 25.3846ZM27.6998 27.3077C30.7443 27.3077 33.2123 24.7247 33.2123 21.5385C33.2123 18.3522 30.7443 15.7692 27.6998 15.7692C24.6553 15.7692 22.1873 18.3522 22.1873 21.5385C22.1873 24.7247 24.6553 27.3077 27.6998 27.3077Z" fill="#003F62"/>
</svg>
