<svg width="22" height="25" viewBox="0 0 22 25" fill="none" xmlns="http://www.w3.org/2000/svg">
<path d="M10.7788 24.5C12.4357 24.5 13.7788 23.1569 13.7788 21.5H7.77881C7.77881 23.1569 9.12195 24.5 10.7788 24.5Z" fill="white"/>
<path d="M10.7788 3.37737L9.58302 3.61888C6.84209 4.17243 4.77884 6.59694 4.77884 9.5C4.77884 10.4417 4.57729 12.7959 4.09054 15.1132C3.84891 16.2636 3.52562 17.4614 3.09595 18.5H18.4617C18.032 17.4614 17.7087 16.2636 17.4671 15.1132C16.9804 12.7959 16.7788 10.4417 16.7788 9.5C16.7788 6.59693 14.7156 4.1724 11.9746 3.61887L10.7788 3.37737ZM20.1078 18.5C20.4426 19.1711 20.831 19.7015 21.2788 20H0.278809C0.726599 19.7015 1.11498 19.1711 1.44986 18.5C2.79764 15.7991 3.27884 10.8187 3.27884 9.5C3.27884 5.86901 5.85911 2.84067 9.28607 2.14856C9.28127 2.09969 9.27881 2.05013 9.27881 2C9.27881 1.17157 9.95038 0.5 10.7788 0.5C11.6072 0.5 12.2788 1.17157 12.2788 2C12.2788 2.05013 12.2764 2.09968 12.2715 2.14855C15.6985 2.84063 18.2788 5.86899 18.2788 9.5C18.2788 10.8187 18.76 15.7991 20.1078 18.5Z" fill="white"/>
</svg>
