<svg width="23" height="23" viewBox="0 0 23 23" fill="none" xmlns="http://www.w3.org/2000/svg">
<path d="M2.34131 1.875C1.96161 1.875 1.65381 2.1828 1.65381 2.5625V6.6875C1.65381 7.0672 1.346 7.375 0.966309 7.375C0.586613 7.375 0.278809 7.0672 0.278809 6.6875V2.5625C0.278809 1.42341 1.20222 0.5 2.34131 0.5H6.46631C6.846 0.5 7.15381 0.807804 7.15381 1.1875C7.15381 1.5672 6.846 1.875 6.46631 1.875H2.34131ZM15.4038 1.1875C15.4038 0.807804 15.7116 0.5 16.0913 0.5H20.2163C21.3554 0.5 22.2788 1.42341 22.2788 2.5625V6.6875C22.2788 7.0672 21.971 7.375 21.5913 7.375C21.2116 7.375 20.9038 7.0672 20.9038 6.6875V2.5625C20.9038 2.1828 20.596 1.875 20.2163 1.875H16.0913C15.7116 1.875 15.4038 1.5672 15.4038 1.1875ZM0.966309 15.625C1.346 15.625 1.65381 15.9328 1.65381 16.3125V20.4375C1.65381 20.8172 1.96161 21.125 2.34131 21.125H6.46631C6.846 21.125 7.15381 21.4328 7.15381 21.8125C7.15381 22.1922 6.846 22.5 6.46631 22.5H2.34131C1.20222 22.5 0.278809 21.5766 0.278809 20.4375V16.3125C0.278809 15.9328 0.586613 15.625 0.966309 15.625ZM21.5913 15.625C21.971 15.625 22.2788 15.9328 22.2788 16.3125V20.4375C22.2788 21.5766 21.3554 22.5 20.2163 22.5H16.0913C15.7116 22.5 15.4038 22.1922 15.4038 21.8125C15.4038 21.4328 15.7116 21.125 16.0913 21.125H20.2163C20.596 21.125 20.9038 20.8172 20.9038 20.4375V16.3125C20.9038 15.9328 21.2116 15.625 21.5913 15.625Z" fill="white"/>
<path d="M4.40381 6.6875C4.40381 6.3078 4.71161 6 5.09131 6C5.471 6 5.77881 6.3078 5.77881 6.6875V16.3125C5.77881 16.6922 5.471 17 5.09131 17C4.71161 17 4.40381 16.6922 4.40381 16.3125V6.6875Z" fill="white"/>
<path d="M7.15381 6.6875C7.15381 6.3078 7.46161 6 7.84131 6C8.221 6 8.52881 6.3078 8.52881 6.6875V16.3125C8.52881 16.6922 8.221 17 7.84131 17C7.46161 17 7.15381 16.6922 7.15381 16.3125V6.6875Z" fill="white"/>
<path d="M9.90381 6.6875C9.90381 6.3078 10.2116 6 10.5913 6C10.971 6 11.2788 6.3078 11.2788 6.6875V16.3125C11.2788 16.6922 10.971 17 10.5913 17C10.2116 17 9.90381 16.6922 9.90381 16.3125V6.6875Z" fill="white"/>
<path d="M12.6538 6.6875C12.6538 6.3078 12.9616 6 13.3413 6H14.7163C15.096 6 15.4038 6.3078 15.4038 6.6875V16.3125C15.4038 16.6922 15.096 17 14.7163 17H13.3413C12.9616 17 12.6538 16.6922 12.6538 16.3125V6.6875Z" fill="white"/>
<path d="M16.7788 6.6875C16.7788 6.3078 17.0866 6 17.4663 6C17.846 6 18.1538 6.3078 18.1538 6.6875V16.3125C18.1538 16.6922 17.846 17 17.4663 17C17.0866 17 16.7788 16.6922 16.7788 16.3125V6.6875Z" fill="white"/>
</svg>
