<svg width="28" height="29" viewBox="0 0 28 29" fill="none" xmlns="http://www.w3.org/2000/svg">
<path d="M14.0922 2.44735C13.891 2.3639 13.6666 2.3639 13.4654 2.44735L3.39443 6.62496L13.7788 10.9326L24.1632 6.62496L14.0922 2.44735ZM25.5913 7.91736L14.6226 12.4674V26.3326L25.5913 21.7826V7.91736ZM12.9351 26.3326V12.4674L1.96631 7.91736V21.7826L12.9351 26.3326ZM12.8387 0.822514C13.4422 0.572183 14.1154 0.572183 14.7189 0.822514L26.7484 5.81254C27.0688 5.94542 27.2788 6.26717 27.2788 6.62496V21.7826C27.2788 22.4981 26.8587 23.1416 26.218 23.4074L14.0922 28.4374C13.891 28.5208 13.6666 28.5208 13.4654 28.4374L1.33959 23.4074C0.698914 23.1416 0.278809 22.4981 0.278809 21.7826V6.62496C0.278809 6.26717 0.488861 5.94542 0.809198 5.81254L12.8387 0.822514Z" fill="white"/>
</svg>
