<svg width="22" height="20" viewBox="0 0 22 20" fill="none" xmlns="http://www.w3.org/2000/svg">
<path d="M14.7163 7.5C14.7163 9.57107 12.9534 11.25 10.7788 11.25C8.60419 11.25 6.84131 9.57107 6.84131 7.5C6.84131 5.42893 8.60419 3.75 10.7788 3.75C12.9534 3.75 14.7163 5.42893 14.7163 7.5Z" fill="white"/>
<path fill-rule="evenodd" clip-rule="evenodd" d="M0.278809 10C0.278809 4.47715 4.97982 0 10.7788 0C16.5778 0 21.2788 4.47715 21.2788 10C21.2788 15.5228 16.5778 20 10.7788 20C4.97982 20 0.278809 15.5228 0.278809 10ZM10.7788 1.25C5.70469 1.25 1.59131 5.16751 1.59131 10C1.59131 12.0668 2.34371 13.9662 3.60188 15.4634C4.53515 14.0316 6.5849 12.5 10.7788 12.5C14.9727 12.5 17.0225 14.0316 17.9558 15.4634C19.2139 13.9662 19.9663 12.0668 19.9663 10C19.9663 5.16751 15.8529 1.25 10.7788 1.25Z" fill="white"/>
</svg>
