<svg width="361" height="64" viewBox="0 0 361 64" fill="none" xmlns="http://www.w3.org/2000/svg">
<path d="M11.1493 59.403C10.8466 61.1769 12.5488 62.5653 14.0521 61.7709L31.1265 52.7471L48.201 61.7709C49.7043 62.5653 51.4065 61.1769 51.1038 59.403L47.8761 40.4851L61.5783 27.0585C62.8588 25.8037 62.196 23.5095 60.4805 23.2589L41.425 20.4754L32.9286 3.16922C32.1632 1.61026 30.0899 1.61026 29.3245 3.16922L20.8281 20.4754L1.77263 23.2589C0.0571412 23.5095 -0.60573 25.8037 0.674811 27.0585L14.377 40.4851L11.1493 59.403ZM30.2286 48.3305L15.8907 55.908L18.5914 40.0788C18.7187 39.3326 18.4794 38.5686 17.9583 38.058L6.65047 26.9776L22.4143 24.6749C23.0659 24.5797 23.6349 24.1518 23.9424 23.5256L31.1265 8.8923L38.3107 23.5256C38.6182 24.1518 39.1871 24.5797 39.8388 24.6749L55.6026 26.9776L44.2948 38.058C43.7737 38.5686 43.5344 39.3326 43.6617 40.0788L46.3624 55.908L32.0245 48.3305C31.4581 48.0311 30.795 48.0311 30.2286 48.3305Z" fill="black"/>
<path d="M85.8387 59.403C85.5361 61.1769 87.2382 62.5653 88.7415 61.7709L105.816 52.7471L122.89 61.7709C124.394 62.5653 126.096 61.1769 125.793 59.403L122.566 40.4851L136.268 27.0585C137.548 25.8037 136.885 23.5095 135.17 23.2589L116.114 20.4754L107.618 3.16922C106.853 1.61026 104.779 1.61026 104.014 3.16922L95.5176 20.4754L76.4621 23.2589C74.7466 23.5095 74.0837 25.8037 75.3643 27.0585L89.0664 40.4851L85.8387 59.403ZM104.918 48.3305L90.5802 55.908L93.2809 40.0788C93.4082 39.3326 93.1688 38.5686 92.6478 38.058L81.3399 26.9776L97.1037 24.6749C97.7554 24.5797 98.3244 24.1518 98.6318 23.5256L105.816 8.8923L113 23.5256C113.308 24.1518 113.877 24.5797 114.528 24.6749L130.292 26.9776L118.984 38.058C118.463 38.5686 118.224 39.3326 118.351 40.0788L121.052 55.908L106.714 48.3305C106.148 48.0311 105.484 48.0311 104.918 48.3305Z" fill="black"/>
<path d="M160.529 59.403C160.226 61.1769 161.928 62.5653 163.431 61.7709L180.506 52.7471L197.58 61.7709C199.084 62.5653 200.786 61.1769 200.483 59.403L197.256 40.4851L210.958 27.0585C212.238 25.8037 211.575 23.5095 209.86 23.2589L190.804 20.4754L182.308 3.16922C181.543 1.61026 179.469 1.61026 178.704 3.16922L170.208 20.4754L151.152 23.2589C149.437 23.5095 148.774 25.8037 150.054 27.0585L163.756 40.4851L160.529 59.403ZM179.608 48.3305L165.27 55.908L167.971 40.0788C168.098 39.3326 167.859 38.5686 167.338 38.058L156.03 26.9776L171.794 24.6749C172.445 24.5797 173.014 24.1518 173.322 23.5256L180.506 8.8923L187.69 23.5256C187.998 24.1518 188.567 24.5797 189.218 24.6749L204.982 26.9776L193.674 38.058C193.153 38.5686 192.914 39.3326 193.041 40.0788L195.742 55.908L181.404 48.3305C180.838 48.0311 180.174 48.0311 179.608 48.3305Z" fill="black"/>
<path d="M235.218 59.403C234.915 61.1769 236.618 62.5653 238.121 61.7709L255.195 52.7471L272.27 61.7709C273.773 62.5653 275.475 61.1769 275.173 59.403L271.945 40.4851L285.647 27.0585C286.928 25.8037 286.265 23.5095 284.549 23.2589L265.494 20.4754L256.997 3.16922C256.232 1.61026 254.159 1.61026 253.393 3.16922L244.897 20.4754L225.841 23.2589C224.126 23.5095 223.463 25.8037 224.744 27.0585L238.446 40.4851L235.218 59.403ZM254.297 48.3305L239.96 55.908L242.66 40.0788C242.788 39.3326 242.548 38.5686 242.027 38.058L230.719 26.9776L246.483 24.6749C247.135 24.5797 247.704 24.1518 248.011 23.5256L255.195 8.8923L262.38 23.5256C262.687 24.1518 263.256 24.5797 263.908 24.6749L279.671 26.9776L268.364 38.058C267.843 38.5686 267.603 39.3326 267.731 40.0788L270.431 55.908L256.093 48.3305C255.527 48.0311 254.864 48.0311 254.297 48.3305Z" fill="black"/>
<path d="M309.908 59.403C309.605 61.1769 311.308 62.5653 312.811 61.7709L329.885 52.7471L346.96 61.7709C348.463 62.5653 350.165 61.1769 349.863 59.403L346.635 40.4851L360.337 27.0585C361.618 25.8037 360.955 23.5095 359.239 23.2589L340.184 20.4754L331.687 3.16922C330.922 1.61026 328.849 1.61026 328.083 3.16922L319.587 20.4754L300.531 23.2589C298.816 23.5095 298.153 25.8037 299.434 27.0585L313.136 40.4851L309.908 59.403ZM328.987 48.3305L314.649 55.908L317.35 40.0788C317.478 39.3326 317.238 38.5686 316.717 38.058L305.409 26.9776L321.173 24.6749C321.825 24.5797 322.394 24.1518 322.701 23.5256L329.885 8.8923L337.07 23.5256C337.377 24.1518 337.946 24.5797 338.598 24.6749L354.361 26.9776L343.054 38.058C342.533 38.5686 342.293 39.3326 342.42 40.0788L345.121 55.908L330.783 48.3305C330.217 48.0311 329.554 48.0311 328.987 48.3305Z" fill="black"/>
</svg>
