<svg width="69" height="41" viewBox="0 0 69 41" fill="none" xmlns="http://www.w3.org/2000/svg">
<path fill-rule="evenodd" clip-rule="evenodd" d="M0 8.3125C0 3.82519 3.86154 0.1875 8.625 0.1875H40.9688C45.3495 0.1875 48.9674 3.26413 49.5205 7.24881L62.936 1.632C65.7878 0.438013 69 2.40449 69 5.34436V35.6556C69 38.5955 65.7878 40.562 62.936 39.368L49.5205 33.7512C48.9674 37.7359 45.3495 40.8125 40.9688 40.8125H8.625C3.86154 40.8125 0 37.1748 0 32.6875V8.3125ZM49.5938 29.3362L64.6875 35.6556L64.6875 5.34436L49.5938 11.6638V29.3362ZM8.625 4.25C6.24327 4.25 4.3125 6.06884 4.3125 8.3125V32.6875C4.3125 34.9312 6.24327 36.75 8.625 36.75H40.9688C43.3505 36.75 45.2812 34.9312 45.2812 32.6875V8.3125C45.2812 6.06884 43.3505 4.25 40.9688 4.25H8.625Z" fill="#003F62"/>
</svg>
