<svg width="106" height="110" viewBox="0 0 106 110" fill="none" xmlns="http://www.w3.org/2000/svg">
<path d="M53 110C82.2711 110 106 85.3757 106 55C106 24.6243 82.2711 0 53 0C23.7289 0 0 24.6243 0 55C0 85.3757 23.7289 110 53 110Z" fill="#003F62"/>
<path d="M93.4769 39.7343C93.3131 39.7345 93.1509 39.7062 92.9996 39.6509C92.8483 39.5956 92.7109 39.5144 92.5953 39.412L88.0747 35.4189C87.848 35.2116 87.7226 34.934 87.7256 34.6459C87.7286 34.3579 87.8597 34.0824 88.0907 33.8788C88.3217 33.6752 88.634 33.5598 88.9605 33.5574C89.2869 33.555 89.6014 33.6659 89.8361 33.8661L94.3518 37.8593C94.5257 38.0129 94.6441 38.2086 94.692 38.4216C94.74 38.6346 94.7153 38.8553 94.6212 39.056C94.527 39.2566 94.3676 39.4281 94.163 39.5488C93.9585 39.6696 93.718 39.7341 93.4719 39.7343H93.4769Z" fill="#ECBBA3"/>
<path d="M95.248 42.415C96.6325 42.415 97.7549 41.4241 97.7549 40.2017C97.7549 38.9792 96.6325 37.9883 95.248 37.9883C93.8636 37.9883 92.7412 38.9792 92.7412 40.2017C92.7412 41.4241 93.8636 42.415 95.248 42.415Z" fill="#7A6D79"/>
<path d="M79.0233 26.9698C78.8599 26.9698 78.698 26.9414 78.547 26.8861C78.396 26.8308 78.2589 26.7497 78.1435 26.6475L73.6229 22.6544C73.504 22.553 73.4092 22.4317 73.344 22.2976C73.2788 22.1636 73.2446 22.0194 73.2432 21.8735C73.2418 21.7277 73.2734 21.583 73.3361 21.448C73.3988 21.313 73.4913 21.1904 73.6083 21.0873C73.7252 20.9842 73.8643 20.9027 74.0173 20.8475C74.1704 20.7923 74.3344 20.7646 74.4997 20.7659C74.665 20.7673 74.8284 20.7976 74.9802 20.8553C75.1321 20.9129 75.2695 20.9967 75.3843 21.1016L79.9082 25.0948C80.0814 25.2488 80.1991 25.4446 80.2466 25.6574C80.294 25.8703 80.2691 26.0908 80.1748 26.2912C80.0806 26.4916 79.9214 26.663 79.7171 26.7837C79.5128 26.9045 79.2726 26.9692 79.0267 26.9698H79.0233Z" fill="#ECBBA3"/>
<path d="M72.7314 22.5254C74.1159 22.5254 75.2383 21.5344 75.2383 20.312C75.2383 19.0896 74.1159 18.0986 72.7314 18.0986C71.347 18.0986 70.2246 19.0896 70.2246 20.312C70.2246 21.5344 71.347 22.5254 72.7314 22.5254Z" fill="#7A6D79"/>
<path d="M71.9395 33.2305C71.7761 33.2308 71.6142 33.2027 71.4632 33.1476C71.3122 33.0926 71.1751 33.0117 71.0596 32.9097L66.534 28.9166C66.4151 28.8152 66.3203 28.6939 66.2552 28.5599C66.19 28.4258 66.1557 28.2816 66.1543 28.1357C66.153 27.9899 66.1846 27.8452 66.2472 27.7102C66.3099 27.5752 66.4024 27.4526 66.5194 27.3495C66.6364 27.2464 66.7754 27.1649 66.9285 27.1097C67.0815 27.0545 67.2455 27.0268 67.4108 27.0281C67.5761 27.0295 67.7395 27.0598 67.8914 27.1175C68.0433 27.1751 68.1806 27.2589 68.2954 27.3638L72.816 31.3555C72.9897 31.509 73.1081 31.7044 73.1561 31.9171C73.2042 32.1298 73.1798 32.3503 73.0861 32.5509C72.9923 32.7514 72.8334 32.9229 72.6294 33.0439C72.4253 33.1648 72.1853 33.2298 71.9395 33.2305Z" fill="#ECBBA3"/>
<path d="M65.6426 28.7876C67.0271 28.7876 68.1494 27.7966 68.1494 26.5742C68.1494 25.3518 67.0271 24.3608 65.6426 24.3608C64.2581 24.3608 63.1357 25.3518 63.1357 26.5742C63.1357 27.7966 64.2581 28.7876 65.6426 28.7876Z" fill="#7A6D79"/>
<path d="M86.3827 46.004C86.2192 46.004 86.0574 45.9756 85.9064 45.9203C85.7554 45.865 85.6182 45.7839 85.5028 45.6817L80.9822 41.6885C80.8634 41.5872 80.7686 41.4659 80.7034 41.3318C80.6382 41.1978 80.6039 41.0536 80.6026 40.9077C80.6012 40.7618 80.6328 40.6172 80.6955 40.4822C80.7582 40.3472 80.8507 40.2246 80.9676 40.1215C81.0846 40.0184 81.2237 39.9368 81.3767 39.8817C81.5298 39.8265 81.6937 39.7988 81.8591 39.8001C82.0244 39.8014 82.1878 39.8318 82.3396 39.8894C82.4915 39.9471 82.6289 40.0308 82.7437 40.1358L87.2643 44.129C87.4375 44.283 87.5552 44.4787 87.6026 44.6916C87.6501 44.9045 87.6251 45.125 87.5309 45.3254C87.4367 45.5258 87.2774 45.6972 87.0731 45.8179C86.8688 45.9386 86.6286 46.0034 86.3827 46.004Z" fill="#ECBBA3"/>
<path d="M88.1592 48.6758C89.5437 48.6758 90.666 47.6848 90.666 46.4624C90.666 45.24 89.5437 44.249 88.1592 44.249C86.7747 44.249 85.6523 45.24 85.6523 46.4624C85.6523 47.6848 86.7747 48.6758 88.1592 48.6758Z" fill="#7A6D79"/>
<path d="M55.647 53.4365L61.6036 58.6982C66.3699 62.9082 64.8641 70.0332 58.6983 72.4399C57.6345 72.8572 56.7485 73.562 56.1682 74.4526L49.2769 85.0112C44.9008 91.7158 34.5148 92.9214 28.3208 87.4546L19.1468 79.3584C12.9527 73.8872 14.3323 64.7129 21.9142 60.8486L33.8674 54.7607C34.878 54.2472 35.6765 53.4626 36.1468 52.521C38.8711 47.0747 46.9378 45.7446 51.7041 49.9546L55.647 53.4365Z" fill="#FAE2C0"/>
<path d="M61.6037 58.6982L55.6471 53.4365L51.7042 49.959C51.6776 49.9341 51.6478 49.9121 51.6195 49.8887L56.6232 54.3081C61.3895 58.5181 59.8838 65.6431 53.718 68.0498C52.6549 68.466 51.769 69.1692 51.1879 70.0581L44.2966 80.6167C39.9553 87.2583 29.7237 88.5078 23.5098 83.2109L28.3143 87.459C34.5083 92.9302 44.8942 91.7202 49.2704 85.0156L56.1684 74.4526C56.7503 73.5611 57.6388 72.8562 58.7051 72.4399C64.8643 70.0273 66.37 62.9082 61.6037 58.6982Z" fill="#F3F8FB"/>
<path d="M90.8854 32.939L81.9985 40.7891C81.2554 41.4446 80.277 41.8516 79.2311 41.9405C78.2111 42.0266 77.2545 42.4161 76.5184 43.045L76.4636 43.0918L51.0449 65.542L43.9561 59.2798L69.4262 36.7828C70.1373 36.1549 70.5912 35.3359 70.7161 34.4551L70.7244 34.3907C70.8494 33.5099 71.3032 32.6909 72.0144 32.063L80.9526 24.1675C81.1852 23.9617 81.4616 23.7983 81.7658 23.6869C82.0701 23.5754 82.3963 23.5181 82.7257 23.5181C83.0551 23.5181 83.3813 23.5754 83.6856 23.6869C83.9898 23.7983 84.2662 23.9617 84.4987 24.1675L90.8854 29.8086C91.355 30.2241 91.6188 30.787 91.6188 31.3738C91.6188 31.9607 91.355 32.5235 90.8854 32.939Z" fill="#ECBBA3"/>
<path d="M90.8856 29.8086L84.499 24.1675L84.4725 24.1455L88.3954 27.6113C88.8651 28.0268 89.1289 28.5897 89.1289 29.1765C89.1289 29.7633 88.8651 30.3262 88.3954 30.7417L79.5086 38.5918C78.7654 39.2472 77.7871 39.6543 76.7411 39.7432C75.7211 39.8293 74.7646 40.2188 74.0284 40.8477L73.9736 40.8945L48.5566 63.3433L51.0469 65.5405L76.4639 43.0918L76.5187 43.0449C77.2548 42.416 78.2114 42.0266 79.2313 41.9404C80.2773 41.8515 81.2556 41.4445 81.9988 40.7891L90.8856 32.939C91.3553 32.5235 91.6191 31.9606 91.6191 31.3738C91.6191 30.7869 91.3553 30.2241 90.8856 29.8086Z" fill="#E8AD8C"/>
<path d="M43.0676 67.4259C42.8217 67.4253 42.5815 67.3605 42.3772 67.2398C42.1729 67.119 42.0136 66.9477 41.9194 66.7473C41.8252 66.5469 41.8002 66.3264 41.8476 66.1135C41.8951 65.9006 42.0128 65.7049 42.186 65.5509L72.0904 39.1383C72.2052 39.0333 72.3426 38.9495 72.4944 38.8919C72.6463 38.8342 72.8097 38.8039 72.975 38.8025C73.1403 38.8012 73.3043 38.8289 73.4574 38.8841C73.6104 38.9393 73.7495 39.0208 73.8664 39.1239C73.9834 39.227 74.0759 39.3496 74.1386 39.4846C74.2013 39.6196 74.2329 39.7643 74.2315 39.9101C74.2301 40.056 74.1959 40.2002 74.1307 40.3343C74.0655 40.4683 73.9707 40.5896 73.8518 40.691L43.9475 67.0977C43.8328 67.2012 43.696 67.2836 43.5449 67.3399C43.3938 67.3962 43.2316 67.4254 43.0676 67.4259Z" fill="#FAE2C0"/>
<path d="M35.7285 73.9092C35.4823 73.9093 35.2415 73.8449 35.0367 73.7243C34.8319 73.6037 34.6722 73.4322 34.5779 73.2315C34.4835 73.0308 34.4587 72.8099 34.5066 72.5968C34.5545 72.3837 34.673 72.1879 34.847 72.0342L42.1865 65.5508C42.2986 65.4378 42.4358 65.3463 42.5896 65.2819C42.7434 65.2176 42.9105 65.1817 43.0806 65.1766C43.2507 65.1714 43.4202 65.1971 43.5786 65.252C43.737 65.307 43.8809 65.3899 44.0016 65.4959C44.1222 65.6018 44.2169 65.7284 44.2799 65.868C44.3429 66.0075 44.3728 66.1569 44.3678 66.307C44.3628 66.4571 44.3229 66.6047 44.2507 66.7407C44.1785 66.8767 44.0754 66.9982 43.9479 67.0976L36.6084 73.5869C36.493 73.6891 36.3559 73.7701 36.2049 73.8254C36.0539 73.8807 35.892 73.9092 35.7285 73.9092ZM38.0926 78.04C37.8467 78.0398 37.6063 77.9754 37.4019 77.8549C37.1974 77.7343 37.038 77.563 36.9437 77.3626C36.8494 77.1623 36.8245 76.9417 36.8721 76.7288C36.9196 76.516 37.0376 76.3203 37.211 76.1665L49.1957 65.5522C49.4315 65.3611 49.7417 65.2574 50.0618 65.2628C50.3819 65.2682 50.6874 65.3822 50.9148 65.5811C51.1421 65.78 51.2739 66.0486 51.2827 66.331C51.2915 66.6134 51.1767 66.888 50.9621 67.0976L38.9758 77.7119C38.8604 77.8153 38.723 77.8976 38.5714 77.9539C38.4198 78.0103 38.257 78.0395 38.0926 78.04ZM31.3623 71.5493C31.1159 71.5501 30.8748 71.4863 30.6696 71.366C30.4643 71.2457 30.3042 71.0742 30.2096 70.8735C30.115 70.6728 30.0901 70.4517 30.1381 70.2385C30.186 70.0252 30.3047 69.8294 30.4791 69.6758L40.3935 60.8867C40.5081 60.7816 40.6453 60.6976 40.797 60.6397C40.9488 60.5819 41.1121 60.5512 41.2774 60.5496C41.4427 60.548 41.6067 60.5755 41.7599 60.6304C41.913 60.6853 42.0522 60.7666 42.1694 60.8695C42.2866 60.9724 42.3793 61.0949 42.4423 61.2297C42.5053 61.3646 42.5372 61.5092 42.5361 61.6551C42.5351 61.8009 42.5012 61.9451 42.4363 62.0793C42.3714 62.2135 42.2769 62.3349 42.1583 62.4365L32.2438 71.2256C32.1285 71.3284 31.9912 71.4099 31.8399 71.4655C31.6886 71.5211 31.5262 71.5496 31.3623 71.5493Z" fill="#ECBBA3"/>
<path d="M45.6728 70.4507C49.6905 70.4507 52.9476 67.5742 52.9476 64.0259C52.9476 60.4776 49.6905 57.6011 45.6728 57.6011C41.655 57.6011 38.3979 60.4776 38.3979 64.0259C38.3979 67.5742 41.655 70.4507 45.6728 70.4507Z" fill="#7A6D79"/>
<path d="M50.8155 59.4805C50.3955 59.109 49.9255 58.7843 49.416 58.5137C50.2541 59.7412 50.6028 61.1808 50.4067 62.6033C50.2105 64.0259 49.4807 65.3497 48.3334 66.364C47.1861 67.3784 45.6872 68.025 44.0754 68.2009C42.4636 68.3768 40.8313 68.072 39.4385 67.335C39.9702 68.1133 40.6832 68.7832 41.5302 69.3002C42.3772 69.8173 43.339 70.1699 44.3519 70.3345C45.3648 70.4992 46.4058 70.4722 47.4061 70.2554C48.4063 70.0386 49.343 69.637 50.1542 69.0769C50.9654 68.5169 51.6326 67.8113 52.1117 67.0068C52.5908 66.2023 52.8708 65.3172 52.9333 64.4101C52.9959 63.5029 52.8394 62.5944 52.4743 61.7446C52.1092 60.8948 51.5438 60.1231 50.8155 59.4805Z" fill="#685E68"/>
<path d="M90.8853 32.939L86.4543 36.8531L84.6945 38.4073L81.9984 40.7891C81.2553 41.4446 80.2769 41.8516 79.231 41.9405C78.211 42.0266 77.2544 42.4161 76.5183 43.045L69.4277 36.7828C70.1389 36.1549 70.5927 35.3359 70.7177 34.4551L70.726 34.3907C70.8509 33.5099 71.3048 32.6909 72.0159 32.063L74.7618 29.6358L76.5216 28.0816L80.9525 24.1675C81.1851 23.9617 81.4615 23.7983 81.7657 23.6869C82.07 23.5754 82.3962 23.5181 82.7256 23.5181C83.055 23.5181 83.3812 23.5754 83.6855 23.6869C83.9897 23.7983 84.2661 23.9617 84.4986 24.1675L90.8853 29.8086C91.3549 30.2241 91.6187 30.787 91.6187 31.3738C91.6187 31.9607 91.3549 32.5235 90.8853 32.939Z" fill="#7A6D79"/>
<path d="M90.8851 29.8086L84.4984 24.1675L84.4719 24.1455L88.3948 27.6113C88.8645 28.0268 89.1283 28.5897 89.1283 29.1765C89.1283 29.7633 88.8645 30.3262 88.3948 30.7417L79.508 38.5918C78.7648 39.2472 77.7865 39.6543 76.7405 39.7432C75.7205 39.8293 74.764 40.2188 74.0278 40.8477L76.5181 43.0449C77.2542 42.416 78.2108 42.0266 79.2308 41.9404C80.2767 41.8515 81.2551 41.4445 81.9982 40.7891L84.6943 38.4072L86.3445 36.9497L90.8851 32.939C91.3547 32.5235 91.6185 31.9606 91.6185 31.3738C91.6185 30.7869 91.3547 30.2241 90.8851 29.8086Z" fill="#685E68"/>
<path d="M86.454 36.853L84.6942 38.4072L84.6926 38.4058L74.7632 29.6357L76.5213 28.0815H76.5229L86.454 36.853Z" fill="#ECBBA3"/>
<path d="M35.1039 78.3769L29.4394 73.3612C29.212 73.1606 29.0316 72.9224 28.9086 72.6603C28.7855 72.3981 28.7222 72.1172 28.7222 71.8334C28.7222 71.5497 28.7855 71.2687 28.9086 71.0066C29.0316 70.7444 29.212 70.5062 29.4394 70.3056C29.6661 70.1049 29.9355 69.9458 30.232 69.8371C30.5286 69.7285 30.8465 69.6726 31.1676 69.6726C31.4887 69.6726 31.8067 69.7285 32.1032 69.8371C32.3998 69.9458 32.6691 70.1049 32.8959 70.3056L38.5703 75.3139C38.7989 75.5146 38.9803 75.7533 39.1041 76.0161C39.2279 76.2789 39.2917 76.5608 39.2917 76.8454C39.2917 77.13 39.2279 77.4118 39.1041 77.6746C38.9803 77.9375 38.7989 78.1761 38.5703 78.3769C38.3433 78.5787 38.0733 78.7388 37.7758 78.8481C37.4783 78.9574 37.1593 79.0136 36.8371 79.0136C36.5148 79.0136 36.1958 78.9574 35.8983 78.8481C35.6009 78.7388 35.3309 78.5787 35.1039 78.3769Z" fill="#7A6D79"/>
<path d="M38.5702 75.314L32.8908 70.3057L32.8643 70.2837L36.08 73.1167C36.5193 73.5224 36.7623 74.0632 36.7576 74.6243C36.7529 75.1855 36.5007 75.7229 36.0546 76.1229C35.6084 76.5228 35.0034 76.7537 34.3676 76.7668C33.7318 76.7799 33.1152 76.574 32.6484 76.1929L35.1038 78.377C35.3317 78.5778 35.6023 78.737 35.9 78.8456C36.1976 78.9542 36.5167 79.01 36.8388 79.0098C37.1609 79.0096 37.4798 78.9534 37.7773 78.8444C38.0748 78.7355 38.3451 78.5759 38.5727 78.3748C38.8003 78.1736 38.9808 77.9349 39.1039 77.6723C39.2269 77.4096 39.2901 77.1281 39.2899 76.8439C39.2897 76.5597 39.226 76.2783 39.1025 76.0158C38.979 75.7533 38.7981 75.5148 38.5702 75.314Z" fill="#685E68"/>
</svg>
