<svg width="110" height="110" viewBox="0 0 110 110" fill="none" xmlns="http://www.w3.org/2000/svg">
<path d="M55 110C85.3757 110 110 85.3757 110 55C110 24.6243 85.3757 0 55 0C24.6243 0 0 24.6243 0 55C0 85.3757 24.6243 110 55 110Z" fill="#003F62"/>
<path d="M80.2275 63.3448C79.996 63.3449 79.7686 63.2823 79.5691 63.1634C79.3695 63.0446 79.2051 62.8738 79.0928 62.6689C69.9615 46.0159 44.994 45.7534 42.2226 45.798H42.2096C42.0393 45.7989 41.8705 45.7658 41.7128 45.7006C41.5552 45.6354 41.4117 45.5395 41.2907 45.4182C41.0463 45.1733 40.908 44.8402 40.9063 44.4921C40.9045 44.144 41.0395 43.8094 41.2815 43.5621C41.5235 43.3147 41.8527 43.1747 42.1967 43.173C45.2002 43.1349 71.5008 43.4158 81.3584 61.3958C81.4686 61.5952 81.5253 61.8203 81.5229 62.0488C81.5205 62.2773 81.4591 62.5012 81.3448 62.6982C81.2304 62.8952 81.0672 63.0586 80.8712 63.172C80.6752 63.2854 80.4533 63.345 80.2275 63.3448Z" fill="#B3B3B3"/>
<path d="M69.4843 40.1096C69.1661 39.9779 68.8092 39.9791 68.4919 40.1129C68.1745 40.2467 67.9223 40.5022 67.7906 40.8236L59.4763 61.2593C53.1346 51.6255 41.0944 47.3441 40.966 47.2982L40.123 49.7814C40.2553 49.8274 53.2396 54.4382 58.5374 64.7925L58.5516 64.7846C58.6857 65.0619 58.9141 65.2809 59.1949 65.4015C59.5129 65.5339 59.8698 65.533 60.1872 65.3991C60.5045 65.2652 60.7564 65.0093 60.8873 64.6875L70.1898 41.8238C70.3206 41.5017 70.3198 41.1403 70.1875 40.8189C70.0552 40.4975 69.8023 40.2424 69.4843 40.1096Z" fill="#CCCCCC"/>
<path d="M31.7917 64.6141C31.5342 64.6147 31.2823 64.5376 31.0683 64.3926C30.8542 64.2477 30.6877 64.0415 30.59 63.8003C30.4923 63.5592 30.4678 63.294 30.5197 63.0388C30.5716 62.7835 30.6975 62.5496 30.8813 62.3671C35.9689 57.2956 40.6662 45.0906 42.2925 40.5625H42.1796C39.6767 40.5625 37.6406 38.5019 37.6406 35.9688C37.6406 33.4356 39.6767 31.375 42.1796 31.375H44.9135C45.2574 31.375 45.5873 31.5133 45.8305 31.7594C46.0737 32.0056 46.2103 32.3394 46.2103 32.6875C46.2103 33.0356 46.0737 33.3694 45.8305 33.6156C45.5873 33.8617 45.2574 34 44.9135 34H42.1796C41.1071 34 40.2343 34.8833 40.2343 35.9688C40.2343 37.0542 41.1071 37.9375 42.1796 37.9375H44.125C44.3305 37.9374 44.533 37.9868 44.716 38.0815C44.8989 38.1763 45.057 38.3136 45.1772 38.4823C45.2974 38.651 45.3762 38.8462 45.4073 39.0518C45.4383 39.2573 45.4206 39.4674 45.3557 39.6648C45.1158 40.3919 39.416 57.5436 32.7034 64.2361C32.4604 64.4785 32.1329 64.6143 31.7917 64.6141Z" fill="#999999"/>
<path d="M40.2344 64.8438H30.1278L37.2749 57.6119L36.3567 56.6826L29.2109 63.9158V53.6875H27.9141V63.9158L20.7683 56.6826L19.8501 57.6119L26.9972 64.8438H16.8906V66.1562H26.9972L19.8501 73.3881L20.7683 74.3174L27.9141 67.0842V77.3125H29.2109V67.0842L36.3567 74.3174L37.2749 73.3881L30.1278 66.1562H40.2344V64.8438ZM92.1094 64.8438H82.0028L89.1499 57.6119L88.2317 56.6826L81.0859 63.9158V53.6875H79.7891V63.9158L72.6433 56.6826L71.7251 57.6119L78.8722 64.8438H68.7656V66.1562H78.8722L71.7251 73.3881L72.6433 74.3174L79.7891 67.0842V77.3125H81.0859V67.0842L88.2317 74.3174L89.1499 73.3881L82.0028 66.1562H92.1094V64.8438ZM62.2812 73.375H60.9844V68.4111C60.9844 68.063 60.8477 67.7292 60.6045 67.483C60.3613 67.2369 60.0315 67.0986 59.6875 67.0986C59.3435 67.0986 59.0137 67.2369 58.7705 67.483C58.5273 67.7292 58.3906 68.063 58.3906 68.4111V73.375H57.0938C56.7498 73.375 56.4199 73.5133 56.1767 73.7594C55.9335 74.0056 55.7969 74.3394 55.7969 74.6875C55.7969 75.0356 55.9335 75.3694 56.1767 75.6156C56.4199 75.8617 56.7498 76 57.0938 76H62.2812C62.6252 76 62.9551 75.8617 63.1983 75.6156C63.4415 75.3694 63.5781 75.0356 63.5781 74.6875C63.5781 74.3394 63.4415 74.0056 63.1983 73.7594C62.9551 73.5133 62.6252 73.375 62.2812 73.375Z" fill="#808080"/>
<path d="M59.6875 69.4375C61.12 69.4375 62.2812 68.2622 62.2812 66.8125C62.2812 65.3628 61.12 64.1875 59.6875 64.1875C58.255 64.1875 57.0938 65.3628 57.0938 66.8125C57.0938 68.2622 58.255 69.4375 59.6875 69.4375Z" fill="#90B541"/>
<path d="M61.4786 64.9238C60.6525 66.4923 59.2272 67.5724 57.3662 67.9557C57.5772 68.3979 57.9067 68.7712 58.3171 69.0332C58.7275 69.2952 59.2024 69.4353 59.6876 69.4375C61.1142 69.4375 62.2814 68.2563 62.2814 66.8125C62.2814 66.071 61.9701 65.4029 61.4786 64.9238Z" fill="#76991F"/>
<path d="M31.7917 63.3081C32.1859 63.9002 32.4133 64.5898 32.4497 65.3028C32.486 66.0158 32.3298 66.7253 31.9979 67.3553C31.666 67.9853 31.1709 68.512 30.5657 68.8788C29.9604 69.2456 29.268 69.4388 28.5625 69.4375C26.4097 69.4375 24.6719 67.6788 24.6719 65.5C24.6719 63.3213 26.4097 61.5625 28.5625 61.5625C29.9113 61.5625 31.0914 62.245 31.7917 63.295V63.3081Z" fill="#90B541"/>
<path d="M28.5625 76C34.2947 76 38.9375 71.3013 38.9375 65.5C38.9375 62.5469 37.7314 59.8694 35.7861 57.9662C33.8542 56.0594 31.261 54.9946 28.5625 55C22.8303 55 18.1875 59.6987 18.1875 65.5C18.1875 71.3013 22.8303 76 28.5625 76ZM37.7573 54.4619C40.8569 57.1 42.8281 61.0638 42.8281 65.5C42.8281 73.48 36.4475 79.9375 28.5625 79.9375C20.6775 79.9375 14.2969 73.48 14.2969 65.5C14.2969 57.52 20.6775 51.0625 28.5625 51.0625C32.0641 51.0625 35.2803 52.3356 37.7573 54.4619Z" fill="#666666"/>
<path d="M42.828 65.5001C42.828 73.4801 36.4473 79.9376 28.5623 79.9376C22.4541 79.9376 17.2536 76.0657 15.2305 70.6189C16.5135 72.6735 18.2906 74.3653 20.3953 75.5359C22.5001 76.7066 24.8638 77.3178 27.2655 77.3126C35.1505 77.3126 41.5311 70.8551 41.5311 62.8751C41.5311 61.077 41.2069 59.3445 40.5973 57.7563C42.0109 59.9876 42.828 62.652 42.828 65.5001Z" fill="#545252"/>
<path d="M80.4375 76C86.1697 76 90.8125 71.3013 90.8125 65.5C90.8125 62.5469 89.6064 59.8694 87.6611 57.9662C85.7292 56.0594 83.136 54.9946 80.4375 55C74.7053 55 70.0625 59.6987 70.0625 65.5C70.0625 71.3013 74.7053 76 80.4375 76ZM89.6323 54.4619C92.7319 57.1 94.7031 61.0638 94.7031 65.5C94.7031 73.48 88.3225 79.9375 80.4375 79.9375C72.5525 79.9375 66.1719 73.48 66.1719 65.5C66.1719 57.52 72.5525 51.0625 80.4375 51.0625C83.9391 51.0625 87.1553 52.3356 89.6323 54.4619Z" fill="#666666"/>
<path d="M94.703 65.5001C94.703 73.4801 88.3223 79.9376 80.4373 79.9376C74.3291 79.9376 69.1286 76.0657 67.1055 70.6189C68.3885 72.6735 70.1656 74.3653 72.2703 75.5359C74.3751 76.7066 76.7388 77.3178 79.1405 77.3126C87.0255 77.3126 93.4061 70.8551 93.4061 62.8751C93.4061 61.077 93.0819 59.3445 92.4723 57.7563C93.8859 59.9876 94.703 62.652 94.703 65.5001Z" fill="#545252"/>
<path d="M50.6094 31.375C51.3227 31.375 51.9062 31.9656 51.9062 32.6875V34C51.9062 34.7219 51.3227 35.3125 50.6094 35.3125H45.4219C44.7086 35.3125 44.125 34.7219 44.125 34V32.6875C44.125 31.9656 44.7086 31.375 45.4219 31.375H50.6094Z" fill="#FFCA3A"/>
<path d="M51.9062 32.6875V34C51.9062 34.7219 51.3227 35.3125 50.6094 35.3125H48.0156C48.7289 35.3125 49.3125 34.7219 49.3125 34V32.6875C49.3125 31.9656 48.7289 31.375 48.0156 31.375H50.6094C51.3227 31.375 51.9062 31.9656 51.9062 32.6875Z" fill="#FF9700"/>
<path d="M72.6561 36.625C73.7195 36.625 74.3291 37.8588 73.6936 38.725L72.1373 40.825C71.6445 41.4813 70.8794 41.875 70.0623 41.875H67.2481C66.5608 41.875 65.8994 41.5994 65.4066 41.1006L63.2019 38.8694C62.3848 38.0425 62.9555 36.625 64.1097 36.625H72.6561Z" fill="#FFCA3A"/>
<path d="M72.6564 36.625H72.257C71.1547 39.7697 67.9099 40.0244 64.8804 40.5677L65.4069 41.1006C65.8997 41.5994 66.5611 41.875 67.2485 41.875H70.0627C70.8797 41.875 71.6449 41.4813 72.1377 40.825L73.6939 38.725C74.3294 37.8588 73.7199 36.625 72.6564 36.625Z" fill="#FF9700"/>
<path d="M80.4375 61.5625C82.5903 61.5625 84.3281 63.3213 84.3281 65.5C84.3281 67.6788 82.5903 69.4375 80.4375 69.4375C78.2847 69.4375 76.5469 67.6788 76.5469 65.5C76.5469 63.6363 77.8048 62.0875 79.5167 61.6806L80.4375 61.5625Z" fill="#90B541"/>
<path d="M84.3283 65.5001C84.3283 67.6789 82.5905 69.4376 80.4377 69.4376C79.2705 69.4376 78.233 68.9257 77.5327 68.0989C77.6365 68.1251 77.7402 68.1251 77.844 68.1251C79.9968 68.1251 81.7346 66.3664 81.7346 64.1876C81.7346 63.1901 81.3585 62.2845 80.749 61.5889C82.7591 61.7332 84.3283 63.4264 84.3283 65.5001ZM32.4533 65.5001C32.4533 67.6789 30.7155 69.4376 28.5627 69.4376C27.3955 69.4376 26.358 68.9257 25.6577 68.0989C25.7615 68.1251 25.8652 68.1251 25.969 68.1251C28.1218 68.1251 29.8596 66.3664 29.8596 64.1876C29.8596 63.1901 29.4835 62.2845 28.874 61.5889C30.8841 61.7332 32.4533 63.4264 32.4533 65.5001Z" fill="#76991F"/>
<path d="M66.7036 69.4375H59.6875C61.1141 69.4375 62.2812 68.2563 62.2812 66.8125C62.2812 65.3688 61.1141 64.1875 59.6875 64.1875L66.3275 63.3475L70.3997 62.8357L79.5167 61.6807C78.668 61.8839 77.9124 62.3721 77.3731 63.0657C76.8337 63.7593 76.5425 64.6174 76.5469 65.5C76.5469 67.6788 78.2847 69.4375 80.4375 69.4375H66.7036Z" fill="#FFCA3A"/>
<path d="M76.5468 65.5C76.5468 63.6363 77.8048 62.0875 79.5167 61.6807L77.6945 61.9117C74.4653 65.987 69.2091 68.1539 63.5625 69.4375H80.4374C78.2846 69.4375 76.5468 67.6788 76.5468 65.5Z" fill="#FF9700"/>
<path d="M27.7455 63.8594C26.9116 63.8594 26.909 65.1719 27.7455 65.1719C28.5794 65.1719 28.5807 63.8594 27.7455 63.8594ZM79.1264 64.1166C78.2925 64.1166 78.2899 65.4291 79.1264 65.4291C79.9616 65.4291 79.9629 64.1166 79.1264 64.1166Z" fill="#BFE26A"/>
<path d="M66.5663 38.0518C65.7324 38.0518 65.7311 39.3643 66.5663 39.3643C67.4015 39.3643 67.4028 38.0518 66.5663 38.0518Z" fill="#F9E4AF"/>
</svg>
