<svg xmlns="http://www.w3.org/2000/svg" width="110" height="110" viewBox="0 0 110 110" fill="none">
  <path d="M55 110C85.3757 110 110 85.3757 110 55C110 24.6243 85.3757 0 55 0C24.6243 0 0 24.6243 0 55C0 85.3757 24.6243 110 55 110Z" fill="#003F62"/>
  <path d="M63.5953 40.1582V46.0986C57.5338 48.0842 51.4639 48.0842 45.4023 46.0986V40.1582C51.2894 41.8438 57.3676 41.7548 63.5953 40.1582Z" fill="#F2F0F0"/>
  <path d="M83.8477 85.0074L74.2142 89.8865C71.9691 89.1977 69.8571 89.1572 67.9529 90.1945C64.8516 93.7037 60.8852 93.655 54.4995 93.5658C48.1136 93.655 44.1474 93.7036 41.046 90.1945C39.142 89.1571 37.03 89.1976 34.7848 89.8865L25.1513 85.0074C23.3588 84.0995 22.4886 82.0624 23.1015 80.1863C27.9206 65.4333 34.7618 53.305 45.4029 46.0985V40.158C45.5027 34.4525 43.5404 29.8087 40.1064 25.8942C39.1834 24.8326 38.8924 23.3738 39.2333 22.0041C39.5742 20.6588 40.1812 19.4998 41.0959 18.6083C42.526 17.2144 44.7711 17.028 46.4922 18.0897C49.3193 19.8321 51.8886 21.8177 54.4995 22.0284C57.1103 21.8177 59.6797 19.8321 62.5067 18.0897C64.2279 17.0281 66.4729 17.2144 67.9031 18.6084C68.8178 19.4999 69.4248 20.6588 69.7656 22.0042C70.1066 23.3738 69.8155 24.8326 68.8926 25.8944C65.4586 29.8087 63.4962 34.4527 63.5961 40.1582V46.0986C74.2371 53.3052 81.0785 65.4334 85.8975 80.1865C86.5104 82.0624 85.6401 84.0996 83.8477 85.0074Z" fill="#F96464"/>
  <path opacity="0.4" d="M43.1002 55.419C42.4101 56.1565 41.7532 56.9184 41.1296 57.6802C40.5707 58.3786 39.5212 58.504 38.793 57.9475C38.078 57.3884 37.9532 56.3754 38.5187 55.6702C39.1839 54.8516 39.8989 54.0332 40.6307 53.2388C41.2461 52.5742 42.2937 52.5257 42.9756 53.1254C43.6574 53.7253 43.7156 54.7545 43.1002 55.419Z" fill="white"/>
  <path opacity="0.08" d="M83.8521 85.0086L74.2152 89.8874C73.5749 89.6929 72.9514 89.5471 72.3277 89.466L81.1415 85.0086C82.9291 84.1008 83.8023 82.0585 83.187 80.1865C78.3726 65.4364 71.5294 53.3041 60.8864 46.0994V40.1589C60.7866 34.4534 62.749 29.8097 66.183 25.8951C67.106 24.8335 67.397 23.3747 67.056 22.005C66.7152 20.6597 66.1082 19.5007 65.1935 18.6092C64.7195 18.1472 64.1541 17.815 63.5388 17.6205C65.0522 17.1423 66.7483 17.4827 67.9042 18.6092C68.8188 19.5007 69.4259 20.6596 69.7667 22.005C70.1077 23.3746 69.8165 24.8334 68.8937 25.8951C65.4597 29.8095 63.4973 34.4534 63.5971 40.1589V46.0994C74.2402 53.3041 81.0833 65.4366 85.8977 80.1865C86.513 82.0587 85.6398 84.101 83.8521 85.0086Z" fill="black"/>
  <path d="M47.3324 64.1632C43.8651 73.8885 41.3124 82.9087 41.0464 90.1946C39.1423 89.1573 37.0303 89.1977 34.7852 89.8867C36.7475 79.8048 40.963 71.2546 47.3324 64.1632ZM74.2145 89.8865C71.9695 89.1977 69.8574 89.1573 67.9533 90.1945C67.6873 82.9085 65.1428 73.8884 61.6672 64.1631C68.0364 71.2546 72.2521 79.8048 74.2145 89.8865Z" fill="#EA4E4E"/>
  <path d="M86.2821 80.0673C80.928 63.6767 73.6382 52.4956 63.9995 45.8939C64.4653 41.3601 62.1871 34.143 69.2005 26.1485C71.2164 23.8301 70.1706 20.263 68.1886 18.331C66.6313 16.8131 64.2061 16.577 62.292 17.758C53.8926 22.9277 54.9728 22.8446 46.7083 17.758C44.7946 16.5776 42.3694 16.8124 40.8117 18.331C38.825 20.2675 37.7767 23.8219 39.8009 26.1495C46.8454 34.1798 44.5661 41.6617 45.0007 45.8939C35.3618 52.4951 28.0721 63.6765 22.718 80.0673C22.044 82.1305 22.9894 84.3546 24.9661 85.3564C27.3751 86.5763 32.1933 89.0163 34.6024 90.2363C34.6889 90.2794 34.817 90.2893 34.9062 90.2615C36.9116 89.646 38.9588 89.5324 40.796 90.5124C44.0185 94.1043 48.1982 94.0465 54.494 93.9587C60.2676 94.0393 64.8699 94.2288 68.2039 90.5122C70.0559 89.5246 72.0882 89.6457 74.0936 90.2615C74.1811 90.2887 74.3093 90.28 74.3972 90.2363C89.2704 82.7045 81.9038 86.435 84.0337 85.3564C86.0105 84.3546 86.9561 82.1305 86.2821 80.0673ZM45.8063 40.6783C51.2815 42.1463 57.1255 42.1418 63.1936 40.6645V45.8148C57.4232 47.6464 51.5766 47.6464 45.8063 45.8148V40.6783ZM40.4141 25.6406C38.6952 23.663 39.681 20.5433 41.3812 18.8863C42.6698 17.6299 44.6835 17.4386 46.2777 18.4214C54.8486 23.7064 53.9552 23.8275 62.7224 18.4214C64.3165 17.4385 66.3303 17.6302 67.6188 18.8863C69.3278 20.552 70.3022 23.6661 68.587 25.6391C64.9308 29.8067 63.1683 34.4618 63.1947 39.8509C57.1115 41.3625 51.2652 41.3647 45.8052 39.8587C45.8322 34.4627 44.0696 29.8072 40.4141 25.6406ZM35.3067 89.332C37.1334 80.4431 40.8099 72.6172 46.2505 66.03C42.7708 76.0801 40.985 83.6206 40.671 89.5727C38.9659 88.8351 37.1041 88.8746 35.3067 89.332ZM68.329 89.5727C68.0143 83.5956 66.2287 76.0547 62.7523 66.033C68.1909 72.6193 71.8669 80.4449 73.6933 89.3318C71.9084 88.8781 70.0288 88.8373 68.329 89.5727ZM83.6624 84.6592L74.5018 89.2989C72.506 79.4901 68.2954 70.9467 61.9703 63.9048C61.6776 63.5809 61.1427 63.8886 61.2869 64.293C65.2942 75.5053 67.2826 83.6953 67.5426 90.0489C64.573 93.3083 60.7665 93.2605 54.494 93.1735C48.2345 93.2611 44.4268 93.3087 41.4573 90.0489C41.7159 83.7257 43.7043 75.5359 47.713 64.2927C47.8579 63.8868 47.319 63.5815 47.0296 63.905C40.7047 70.9467 36.4939 79.4902 34.4981 89.299L25.3375 84.6593C23.7098 83.8349 22.9312 82.004 23.4859 80.306C28.7863 64.0794 35.9809 53.0302 45.4743 46.532C51.3943 48.4284 57.4385 48.482 63.5258 46.532C73.0195 53.0305 80.2141 64.0794 85.514 80.3058C86.0689 82.0039 85.2903 83.8347 83.6624 84.6592Z" fill="black"/>
</svg>