<svg width="110" height="110" viewBox="0 0 110 110" fill="none" xmlns="http://www.w3.org/2000/svg">
<path d="M55 110C85.3757 110 110 85.3757 110 55C110 24.6243 85.3757 0 55 0C24.6243 0 0 24.6243 0 55C0 85.3757 24.6243 110 55 110Z" fill="#003F62"/>
<path d="M55 23C43 23 23.305 37.003 23 53C22.781 64.479 27 75 55 75C81 75 87 63.43 87 53C87 37 67 23 55 23Z" fill="white"/>
<path d="M55 87C66.0457 87 75 85.2091 75 83C75 80.7909 66.0457 79 55 79C43.9543 79 35 80.7909 35 83C35 85.2091 43.9543 87 55 87Z" fill="#F0F1F1"/>
<path d="M51 75H59V82C56.333 83.333 53.667 83.333 51 82V75ZM55 29C46 29 31 40 31 51C31 62 40 63 40 63H70C70 63 79 62 79 51C79 40 64 29 55 29Z" fill="#CFD3D4"/>
<path d="M55.0013 51C45.2963 51 36.7902 53.277 32.0312 56.693C34.3923 62.372 40.0013 63 40.0013 63H70.0013C70.0013 63 75.6103 62.372 77.9713 56.693C73.2123 53.277 64.7063 51 55.0013 51Z" fill="#F37A10"/>
<path d="M35 83C35 85.209 43.954 87 55 87V79C43.954 79 35 80.791 35 83Z" fill="white"/>
<path d="M51 75V82C52.333 82.667 53.667 83 55 83V75H51Z" fill="#F0F1F1"/>
</svg>
