<svg width="365" height="448" viewBox="0 0 365 448" fill="none" xmlns="http://www.w3.org/2000/svg">
<path d="M76.7142 355.744C76.5009 355.743 76.2965 355.653 76.1458 355.491C75.995 355.329 75.9104 355.11 75.9104 354.881V348.147C75.9104 344.428 74.5326 340.861 72.0801 338.232C69.6276 335.602 66.3014 334.124 62.8331 334.124C59.3648 334.124 56.0385 335.602 53.586 338.232C51.1335 340.861 49.7558 344.428 49.7558 348.147V354.881C49.7558 355.11 49.671 355.329 49.5202 355.491C49.3694 355.653 49.1648 355.744 48.9515 355.744C48.7382 355.744 48.5336 355.653 48.3828 355.491C48.2319 355.329 48.1472 355.11 48.1472 354.881V348.147C48.1362 346.071 48.5079 344.014 49.2409 342.093C49.974 340.172 51.054 338.426 52.4188 336.954C53.7836 335.482 55.4062 334.314 57.1934 333.517C58.9807 332.72 60.8972 332.31 62.8328 332.31C64.7684 332.31 66.685 332.72 68.4722 333.517C70.2594 334.314 71.8821 335.482 73.2469 336.954C74.6117 338.426 75.6916 340.172 76.4247 342.093C77.1578 344.014 77.5295 346.071 77.5184 348.147V354.881C77.5184 355.11 77.4337 355.329 77.2829 355.491C77.132 355.653 76.9275 355.744 76.7142 355.744Z" fill="#494945"/>
<path d="M95.7617 349.062H78.8398V446.993H95.7617V349.062Z" fill="#EDA415"/>
<path opacity="0.21" d="M95.7617 349.062H78.8398V446.993H95.7617V349.062Z" fill="#0A0A0A"/>
<path d="M78.8405 349.062H12.9775V446.993H78.8405V349.062Z" fill="#EDA415"/>
<path d="M59.7908 355.744C59.5776 355.743 59.3731 355.653 59.2224 355.491C59.0717 355.329 58.987 355.11 58.987 354.881V348.147C58.9974 346.298 58.6669 344.466 58.0143 342.755C57.3618 341.043 56.4002 339.488 55.1848 338.176C53.9694 336.865 52.5242 335.825 50.9324 335.115C49.3406 334.405 47.6335 334.039 45.9095 334.039C44.1854 334.039 42.4784 334.405 40.8866 335.115C39.2948 335.825 37.8496 336.865 36.6342 338.176C35.4188 339.488 34.4572 341.043 33.8046 342.755C33.1521 344.466 32.8215 346.298 32.832 348.147V354.881C32.8346 354.996 32.8157 355.111 32.7765 355.218C32.7372 355.325 32.6784 355.422 32.6035 355.505C32.5286 355.587 32.4391 355.652 32.3402 355.697C32.2414 355.742 32.1352 355.765 32.0279 355.765C31.9206 355.765 31.8145 355.742 31.7156 355.697C31.6168 355.652 31.5272 355.587 31.4523 355.505C31.3774 355.422 31.3186 355.325 31.2794 355.218C31.2401 355.111 31.2213 354.996 31.2239 354.881V348.147C31.2128 346.071 31.5845 344.014 32.3176 342.093C33.0507 340.172 34.1307 338.426 35.4954 336.954C36.8602 335.482 38.4829 334.314 40.2701 333.517C42.0573 332.72 43.9739 332.31 45.9095 332.31C47.8451 332.31 49.7616 332.72 51.5489 333.517C53.3361 334.314 54.9587 335.482 56.3235 336.954C57.6883 338.426 58.7683 340.172 59.5014 342.093C60.2344 344.014 60.6061 346.071 60.5951 348.147V354.881C60.5951 355.11 60.5104 355.329 60.3595 355.491C60.2087 355.653 60.0041 355.744 59.7908 355.744Z" fill="#494945"/>
<path opacity="0.11" d="M78.8398 349.062L87.3008 358.833L95.7612 349.062H78.8398Z" fill="#0A0A0A"/>
<path opacity="0.11" d="M78.8398 446.993L87.3008 437.222L95.7612 446.993H78.8398Z" fill="#0A0A0A"/>
<path d="M263.89 0H123.741C112.147 0 102.749 10.0779 102.749 22.5097V375.778C102.749 388.21 112.147 398.288 123.741 398.288H263.89C275.483 398.288 284.882 388.21 284.882 375.778V22.5097C284.882 10.0779 275.483 0 263.89 0Z" fill="#292A2E"/>
<path d="M263.823 7.02893H123.807C115.845 7.02893 109.392 13.9491 109.392 22.4857V375.277C109.392 383.814 115.845 390.734 123.807 390.734H263.823C271.784 390.734 278.238 383.814 278.238 375.277V22.4857C278.238 13.9491 271.784 7.02893 263.823 7.02893Z" fill="white"/>
<path d="M159.234 4.12292H228.394V11.7965C228.394 13.9969 227.579 16.1073 226.128 17.6634C224.677 19.2196 222.709 20.0941 220.657 20.0946H166.973C164.921 20.0946 162.952 19.2204 161.501 17.6642C160.05 16.108 159.234 13.9973 159.234 11.7965V4.12292Z" fill="#292A2E"/>
<g opacity="0.15">
<path d="M263.079 125.492H124.55C122.635 125.49 120.8 124.674 119.446 123.222C118.092 121.77 117.33 119.802 117.328 117.749V39.3895C117.33 37.3364 118.092 35.3681 119.446 33.9164C120.8 32.4647 122.635 31.6481 124.55 31.6458H263.079C264.994 31.6481 266.83 32.4647 268.184 33.9164C269.537 35.3681 270.299 37.3364 270.301 39.3895V117.749C270.299 119.802 269.537 121.77 268.184 123.222C266.83 124.674 264.994 125.49 263.079 125.492ZM124.55 32.6706C122.889 32.6729 121.296 33.3816 120.122 34.6411C118.947 35.9007 118.287 37.6083 118.285 39.3895V117.749C118.287 119.53 118.947 121.238 120.122 122.497C121.296 123.757 122.889 124.465 124.55 124.468H263.079C264.741 124.466 266.333 123.757 267.508 122.498C268.683 121.238 269.344 119.53 269.345 117.749V39.3895C269.344 37.6082 268.683 35.9004 267.508 34.6408C266.333 33.3812 264.741 32.6726 263.079 32.6706H124.55Z" fill="#292A2E"/>
</g>
<g opacity="0.43">
<path d="M197.077 53.6528C199.555 53.6528 201.564 51.4983 201.564 48.8406C201.564 46.1829 199.555 44.0284 197.077 44.0284C194.598 44.0284 192.589 46.1829 192.589 48.8406C192.589 51.4983 194.598 53.6528 197.077 53.6528Z" fill="#003F62"/>
<path d="M211.413 53.6528C213.892 53.6528 215.901 51.4983 215.901 48.8406C215.901 46.1829 213.892 44.0284 211.413 44.0284C208.935 44.0284 206.925 46.1829 206.925 48.8406C206.925 51.4983 208.935 53.6528 211.413 53.6528Z" fill="#003F62"/>
<path d="M225.75 53.6528C228.229 53.6528 230.238 51.4983 230.238 48.8406C230.238 46.1829 228.229 44.0284 225.75 44.0284C223.271 44.0284 221.262 46.1829 221.262 48.8406C221.262 51.4983 223.271 53.6528 225.75 53.6528Z" fill="#003F62"/>
<path d="M240.086 53.6528C242.565 53.6528 244.574 51.4983 244.574 48.8406C244.574 46.1829 242.565 44.0284 240.086 44.0284C237.608 44.0284 235.599 46.1829 235.599 48.8406C235.599 51.4983 237.608 53.6528 240.086 53.6528Z" fill="#003F62"/>
<path d="M254.422 53.6528C256.901 53.6528 258.91 51.4983 258.91 48.8406C258.91 46.1829 256.901 44.0284 254.422 44.0284C251.944 44.0284 249.935 46.1829 249.935 48.8406C249.935 51.4983 251.944 53.6528 254.422 53.6528Z" fill="#003F62"/>
</g>
<g opacity="0.15">
<path d="M258.911 63.728H193.815V64.7529H258.911V63.728Z" fill="#292A2E"/>
</g>
<g opacity="0.15">
<path d="M258.911 73.9766H193.815V75.0014H258.911V73.9766Z" fill="#292A2E"/>
</g>
<g opacity="0.15">
<path d="M228.396 84.225H193.815V85.2498H228.396V84.225Z" fill="#292A2E"/>
</g>
<g opacity="0.15">
<path d="M259.388 112.18H237.156V104.588H259.388V112.18ZM238.112 111.155H258.433V105.613H238.112V111.155Z" fill="#292A2E"/>
</g>
<path d="M228.252 105.1H206.976V111.667H228.252V105.1Z" fill="#EDA415"/>
<path d="M176.794 57.5965C175.761 54.7638 172.33 53.0236 166.017 50.896C165.818 50.8289 165.197 50.6659 164.569 50.5055C164.378 50.4567 164.179 50.4539 163.987 50.4973C163.795 50.5408 163.614 50.6294 163.458 50.7568C163.301 50.8842 163.173 51.0473 163.082 51.2342C162.992 51.4212 162.941 51.6273 162.934 51.8378C162.934 51.8378 162.169 55.4074 156.552 55.4074C149.909 55.4074 149.001 51.8378 149.001 51.8378C148.994 51.6273 148.943 51.4212 148.853 51.2342C148.762 51.0473 148.634 50.8842 148.477 50.7568C148.321 50.6294 148.14 50.5408 147.948 50.4973C147.756 50.4539 147.557 50.4567 147.366 50.5055C146.738 50.6659 146.117 50.8289 145.917 50.896C139.605 53.0236 136.174 54.7638 135.141 57.5965C131.516 67.5375 125.993 98.8035 125.993 98.8035L134.217 101.117L141.132 74.8805C142.119 78.8154 142.433 90.8343 142.433 90.8343H150.311H161.623H169.29C169.29 90.8343 169.816 78.8154 170.802 74.8805L177.717 101.117L185.941 98.8035C185.941 98.8035 180.419 67.5375 176.794 57.5965Z" fill="#003F62"/>
<path opacity="0.48" d="M176.794 57.5965C175.761 54.7638 172.33 53.0236 166.017 50.896C165.818 50.8289 165.197 50.6659 164.569 50.5055C164.378 50.4567 164.179 50.4539 163.987 50.4973C163.795 50.5408 163.614 50.6294 163.458 50.7568C163.301 50.8842 163.173 51.0473 163.082 51.2342C162.992 51.4212 162.941 51.6273 162.934 51.8378C162.934 51.8378 162.169 55.4074 156.552 55.4074C149.909 55.4074 149.001 51.8378 149.001 51.8378C148.994 51.6273 148.943 51.4212 148.853 51.2342C148.762 51.0473 148.634 50.8842 148.477 50.7568C148.321 50.6294 148.14 50.5408 147.948 50.4973C147.756 50.4539 147.557 50.4567 147.366 50.5055C146.738 50.6659 146.117 50.8289 145.917 50.896C139.605 53.0236 136.174 54.7638 135.141 57.5965C131.516 67.5375 125.993 98.8035 125.993 98.8035L134.217 101.117L141.132 74.8805C142.119 78.8154 142.433 90.8343 142.433 90.8343H150.311H161.623H169.29C169.29 90.8343 169.816 78.8154 170.802 74.8805L177.717 101.117L185.941 98.8035C185.941 98.8035 180.419 67.5375 176.794 57.5965Z" fill="white"/>
<g opacity="0.15">
<path d="M263.079 235.833H124.55C122.635 235.831 120.8 235.015 119.446 233.563C118.092 232.111 117.33 230.143 117.328 228.09V149.73C117.331 147.677 118.092 145.709 119.446 144.258C120.8 142.806 122.635 141.99 124.55 141.987H263.079C264.994 141.99 266.829 142.806 268.183 144.258C269.537 145.709 270.299 147.677 270.301 149.73V228.09C270.299 230.143 269.537 232.111 268.183 233.563C266.83 235.015 264.994 235.831 263.079 235.833ZM124.55 143.012C122.889 143.014 121.297 143.723 120.122 144.982C118.948 146.242 118.287 147.949 118.285 149.73V228.09C118.287 229.871 118.947 231.579 120.122 232.838C121.296 234.098 122.889 234.806 124.55 234.809H263.079C264.741 234.807 266.333 234.098 267.508 232.839C268.683 231.579 269.344 229.872 269.345 228.09V149.73C269.344 147.949 268.683 146.241 267.508 144.981C266.333 143.722 264.741 143.013 263.079 143.011L124.55 143.012Z" fill="#292A2E"/>
</g>
<g opacity="0.43">
<path d="M197.077 163.994C199.555 163.994 201.564 161.84 201.564 159.182C201.564 156.524 199.555 154.37 197.077 154.37C194.598 154.37 192.589 156.524 192.589 159.182C192.589 161.84 194.598 163.994 197.077 163.994Z" fill="#003F62"/>
<path d="M211.413 163.994C213.892 163.994 215.901 161.84 215.901 159.182C215.901 156.524 213.892 154.37 211.413 154.37C208.935 154.37 206.925 156.524 206.925 159.182C206.925 161.84 208.935 163.994 211.413 163.994Z" fill="#003F62"/>
<path d="M225.75 163.994C228.229 163.994 230.238 161.84 230.238 159.182C230.238 156.524 228.229 154.37 225.75 154.37C223.271 154.37 221.262 156.524 221.262 159.182C221.262 161.84 223.271 163.994 225.75 163.994Z" fill="#003F62"/>
<path d="M240.086 163.994C242.565 163.994 244.574 161.84 244.574 159.182C244.574 156.524 242.565 154.37 240.086 154.37C237.608 154.37 235.599 156.524 235.599 159.182C235.599 161.84 237.608 163.994 240.086 163.994Z" fill="#003F62"/>
<path d="M254.422 163.994C256.901 163.994 258.91 161.84 258.91 159.182C258.91 156.524 256.901 154.37 254.422 154.37C251.944 154.37 249.935 156.524 249.935 159.182C249.935 161.84 251.944 163.994 254.422 163.994Z" fill="#003F62"/>
</g>
<g opacity="0.15">
<path d="M258.911 174.069H193.815V175.094H258.911V174.069Z" fill="#292A2E"/>
</g>
<g opacity="0.15">
<path d="M258.911 184.318H193.815V185.342H258.911V184.318Z" fill="#292A2E"/>
</g>
<g opacity="0.15">
<path d="M228.396 194.566H193.815V195.591H228.396V194.566Z" fill="#292A2E"/>
</g>
<g opacity="0.15">
<path d="M259.388 222.521H237.156V214.929H259.388V222.521ZM238.112 221.496H258.433V215.954H238.112V221.496Z" fill="#292A2E"/>
</g>
<path d="M228.252 215.442H206.976V222.009H228.252V215.442Z" fill="#EDA415"/>
<path opacity="0.48" d="M176.418 172.291C174.868 170.234 171.452 168.922 167.461 167.882C165.839 167.46 164.74 167.301 164.74 167.301C163.456 170.791 159.486 173.317 155.987 173.318H155.744C152.245 173.318 148.48 170.791 147.195 167.301C147.195 167.301 146.096 167.459 144.471 167.882C140.48 168.922 137.064 170.234 135.514 172.291C133.132 175.451 129.797 187.347 129.797 187.347L139.465 191.666C139.54 191.882 139.613 192.098 139.685 192.314C139.736 192.469 139.787 192.624 139.838 192.778C139.833 192.763 139.828 192.748 139.823 192.733C139.835 192.768 139.847 192.805 139.858 192.842C141.513 198.082 142.661 203.491 143.283 208.983C143.325 208.969 168.604 208.969 168.645 208.983C169.268 203.491 170.416 198.082 172.071 192.842C172.083 192.805 172.094 192.769 172.107 192.733C172.152 192.593 172.198 192.454 172.244 192.314C172.316 192.098 172.39 191.882 172.464 191.666L182.132 187.347C182.132 187.347 178.801 175.454 176.418 172.291Z" fill="white"/>
<path d="M176.418 172.291C174.868 170.234 171.452 168.922 167.461 167.882C165.839 167.46 164.74 167.301 164.74 167.301C163.456 170.791 159.486 173.317 155.987 173.318H155.744C152.245 173.318 148.48 170.791 147.195 167.301C147.195 167.301 146.096 167.459 144.471 167.882C140.48 168.922 137.064 170.234 135.514 172.291C133.132 175.451 129.797 187.347 129.797 187.347L139.465 191.666C139.54 191.882 139.613 192.098 139.685 192.314C139.736 192.469 139.787 192.624 139.838 192.778C139.833 192.763 139.828 192.748 139.823 192.733C139.835 192.768 139.847 192.805 139.858 192.842C141.513 198.082 142.661 203.491 143.283 208.983C143.325 208.969 168.604 208.969 168.645 208.983C169.268 203.491 170.416 198.082 172.071 192.842C172.083 192.805 172.094 192.769 172.107 192.733C172.152 192.593 172.198 192.454 172.244 192.314C172.316 192.098 172.39 191.882 172.464 191.666L182.132 187.347C182.132 187.347 178.801 175.454 176.418 172.291Z" fill="#003F62"/>
<path opacity="0.48" d="M176.418 172.291C174.868 170.234 171.452 168.922 167.461 167.882C165.839 167.46 164.74 167.301 164.74 167.301C163.456 170.791 159.486 173.317 155.987 173.318H155.744C152.245 173.318 148.48 170.791 147.195 167.301C147.195 167.301 146.096 167.459 144.471 167.882C140.48 168.922 137.064 170.234 135.514 172.291C133.132 175.451 129.797 187.347 129.797 187.347L139.465 191.666C139.54 191.882 139.613 192.098 139.685 192.314C139.736 192.469 139.787 192.624 139.838 192.778C139.833 192.763 139.828 192.748 139.823 192.733C139.835 192.768 139.847 192.805 139.858 192.842C141.513 198.082 142.661 203.491 143.283 208.983C143.325 208.969 168.604 208.969 168.645 208.983C169.268 203.491 170.416 198.082 172.071 192.842C172.083 192.805 172.094 192.769 172.107 192.733C172.152 192.593 172.198 192.454 172.244 192.314C172.316 192.098 172.39 191.882 172.464 191.666L182.132 187.347C182.132 187.347 178.801 175.454 176.418 172.291Z" fill="white"/>
<g opacity="0.15">
<path d="M263.079 344.637H124.55C122.635 344.635 120.8 343.818 119.446 342.366C118.092 340.915 117.33 338.946 117.328 336.893V258.534C117.33 256.481 118.092 254.513 119.446 253.061C120.8 251.609 122.635 250.793 124.55 250.791H263.079C264.994 250.793 266.83 251.609 268.183 253.061C269.537 254.513 270.299 256.481 270.301 258.534V336.893C270.299 338.946 269.537 340.915 268.184 342.366C266.83 343.818 264.994 344.635 263.079 344.637ZM124.55 251.815C122.889 251.818 121.296 252.526 120.121 253.785C118.947 255.045 118.286 256.753 118.284 258.534V336.893C118.286 338.675 118.946 340.382 120.121 341.642C121.296 342.902 122.889 343.61 124.55 343.613H263.079C264.741 343.61 266.333 342.902 267.508 341.642C268.683 340.382 269.344 338.675 269.345 336.893V258.534C269.343 256.753 268.683 255.045 267.508 253.785C266.333 252.526 264.741 251.818 263.079 251.815H124.55Z" fill="#292A2E"/>
</g>
<g opacity="0.43">
<path d="M197.077 272.797C199.555 272.797 201.564 270.643 201.564 267.985C201.564 265.327 199.555 263.173 197.077 263.173C194.598 263.173 192.589 265.327 192.589 267.985C192.589 270.643 194.598 272.797 197.077 272.797Z" fill="#003F62"/>
<path d="M211.413 272.797C213.892 272.797 215.901 270.643 215.901 267.985C215.901 265.327 213.892 263.173 211.413 263.173C208.935 263.173 206.925 265.327 206.925 267.985C206.925 270.643 208.935 272.797 211.413 272.797Z" fill="#003F62"/>
<path d="M225.75 272.797C228.229 272.797 230.238 270.643 230.238 267.985C230.238 265.327 228.229 263.173 225.75 263.173C223.271 263.173 221.262 265.327 221.262 267.985C221.262 270.643 223.271 272.797 225.75 272.797Z" fill="#003F62"/>
<path d="M240.086 272.797C242.565 272.797 244.574 270.643 244.574 267.985C244.574 265.327 242.565 263.173 240.086 263.173C237.608 263.173 235.599 265.327 235.599 267.985C235.599 270.643 237.608 272.797 240.086 272.797Z" fill="#003F62"/>
<path d="M254.422 272.797C256.901 272.797 258.91 270.643 258.91 267.985C258.91 265.327 256.901 263.173 254.422 263.173C251.944 263.173 249.935 265.327 249.935 267.985C249.935 270.643 251.944 272.797 254.422 272.797Z" fill="#003F62"/>
</g>
<g opacity="0.15">
<path d="M258.911 282.872H193.815V283.897H258.911V282.872Z" fill="#292A2E"/>
</g>
<g opacity="0.15">
<path d="M258.911 293.121H193.815V294.146H258.911V293.121Z" fill="#292A2E"/>
</g>
<g opacity="0.15">
<path d="M228.396 303.369H193.815V304.394H228.396V303.369Z" fill="#292A2E"/>
</g>
<g opacity="0.15">
<path d="M259.388 331.325H237.156V323.733H259.388V331.325ZM238.112 330.3H258.433V324.757H238.112V330.3Z" fill="#292A2E"/>
</g>
<path d="M228.252 324.245H206.976V330.812H228.252V324.245Z" fill="#EDA415"/>
<path opacity="0.48" d="M169.29 324.752C169.546 324.751 169.799 324.688 170.029 324.567C170.259 324.446 170.46 324.271 170.617 324.054C170.775 323.838 170.884 323.586 170.938 323.317C170.991 323.049 170.987 322.771 170.925 322.504C169.208 314.852 169.078 300.446 170.559 294.254L172.198 287.403L172.195 287.37C172.224 287.136 172.202 286.897 172.133 286.673C172.063 286.449 171.947 286.244 171.793 286.075C165.596 279.255 166.412 272.25 166.412 272.25H163.741C163.914 273.901 163.814 275.571 163.443 277.184C162.774 280.015 160.994 283.157 156.481 283.912C155.047 284.141 153.589 284.141 152.155 283.912C147.643 283.157 145.862 280.015 145.193 277.184C144.823 275.571 144.722 273.901 144.896 272.25H142.226C142.226 272.25 143.041 279.254 136.843 286.074C136.689 286.243 136.573 286.448 136.504 286.673C136.434 286.897 136.413 287.135 136.441 287.37L136.419 287.402L138.058 294.254C139.54 300.445 139.409 314.853 137.692 322.504C137.631 322.77 137.626 323.048 137.68 323.317C137.733 323.585 137.842 323.837 138 324.054C138.157 324.27 138.358 324.446 138.588 324.566C138.818 324.687 139.071 324.75 139.327 324.751L169.29 324.752Z" fill="white"/>
<path d="M169.29 324.752C169.546 324.751 169.799 324.688 170.029 324.567C170.259 324.446 170.46 324.271 170.617 324.054C170.775 323.838 170.884 323.586 170.938 323.317C170.991 323.049 170.987 322.771 170.925 322.504C169.208 314.852 169.078 300.446 170.559 294.254L172.198 287.403L172.195 287.37C172.224 287.136 172.202 286.897 172.133 286.673C172.063 286.449 171.947 286.244 171.793 286.075C165.596 279.255 166.412 272.25 166.412 272.25H163.741C163.914 273.901 163.814 275.571 163.443 277.184C162.774 280.015 160.994 283.157 156.481 283.912C155.047 284.141 153.589 284.141 152.155 283.912C147.643 283.157 145.862 280.015 145.193 277.184C144.823 275.571 144.722 273.901 144.896 272.25H142.226C142.226 272.25 143.041 279.254 136.843 286.074C136.689 286.243 136.573 286.448 136.504 286.673C136.434 286.897 136.413 287.135 136.441 287.37L136.419 287.402L138.058 294.254C139.54 300.445 139.409 314.853 137.692 322.504C137.631 322.77 137.626 323.048 137.68 323.317C137.733 323.585 137.842 323.837 138 324.054C138.157 324.27 138.358 324.446 138.588 324.566C138.818 324.687 139.071 324.75 139.327 324.751L169.29 324.752Z" fill="#003F62"/>
<path opacity="0.48" d="M169.29 324.752C169.546 324.751 169.799 324.688 170.029 324.567C170.259 324.446 170.46 324.271 170.617 324.054C170.775 323.838 170.884 323.586 170.938 323.317C170.991 323.049 170.987 322.771 170.925 322.504C169.208 314.852 169.078 300.446 170.559 294.254L172.198 287.403L172.195 287.37C172.224 287.136 172.202 286.897 172.133 286.673C172.063 286.449 171.947 286.244 171.793 286.075C165.596 279.255 166.412 272.25 166.412 272.25H163.741C163.914 273.901 163.814 275.571 163.443 277.184C162.774 280.015 160.994 283.157 156.481 283.912C155.047 284.141 153.589 284.141 152.155 283.912C147.643 283.157 145.862 280.015 145.193 277.184C144.823 275.571 144.722 273.901 144.896 272.25H142.226C142.226 272.25 143.041 279.254 136.843 286.074C136.689 286.243 136.573 286.448 136.504 286.673C136.434 286.897 136.413 287.135 136.441 287.37L136.419 287.402L138.058 294.254C139.54 300.445 139.409 314.853 137.692 322.504C137.631 322.77 137.626 323.048 137.68 323.317C137.733 323.585 137.842 323.837 138 324.054C138.157 324.27 138.358 324.446 138.588 324.566C138.818 324.687 139.071 324.75 139.327 324.751L169.29 324.752Z" fill="white"/>
<path d="M324.032 425.329C324.032 425.329 321.875 437.32 311.403 437.99C300.931 438.66 303.202 447.604 303.202 447.604H343.219V426.165L324.032 425.329Z" fill="#003F62"/>
<path d="M336.376 206.56C336.376 206.56 336.25 202.955 336.277 211.133C336.376 241.637 336.869 276.479 338.075 296.869C340.014 329.645 344.986 432.983 344.986 432.983L318.69 432.746L293.203 205.321L336.376 206.56Z" fill="#262626"/>
<path d="M306.681 242.53C306.681 242.53 305.591 264.666 305.39 269.863C304.923 281.882 304.76 294.326 304.76 308.435L300.616 271.448C300.616 271.448 303.647 259.858 306.681 242.53Z" fill="#0A0A0A"/>
<path d="M277.218 425.329C277.218 425.329 275.061 437.32 264.589 437.99C254.117 438.66 256.388 447.604 256.388 447.604H296.406V426.165L277.218 425.329Z" fill="#003F62"/>
<path d="M264.486 208.929C264.486 208.929 262.157 313.184 262.498 318.28L272.277 432.191L298.139 432.704L295.619 314.158C295.619 314.158 297.396 281.457 304.764 251.093C308.534 235.508 310.803 219.55 311.536 203.469L264.486 208.929Z" fill="#262626"/>
<path d="M336.661 206.558L336.747 206.563C336.747 206.563 336.685 204.784 336.661 206.558Z" fill="#333333"/>
<path d="M260.785 151.062C261.327 157.894 263.965 200.516 264.486 208.931H336.349C336.755 201.341 338.577 168.155 340.117 153.313C341.586 139.151 344.469 132.06 342.356 127.874C338.903 121.031 329.467 117.076 323.032 116.142C319.103 115.572 313.194 115.163 313.194 115.163C313.194 115.163 312.693 126.014 300.761 126.62C284.52 127.44 285.605 115.162 285.524 115.162C282.893 115.162 267.572 116.489 264.185 119.285C258.262 124.175 259.633 136.583 260.785 151.062Z" fill="#003F62"/>
<path d="M259.792 142.5C259.731 142.5 259.672 142.475 259.627 142.43C259.583 142.385 259.556 142.324 259.553 142.258L258.973 131.41C258.969 131.342 258.991 131.275 259.033 131.225C259.075 131.174 259.134 131.143 259.198 131.139C259.261 131.136 259.322 131.159 259.37 131.204C259.417 131.249 259.446 131.312 259.45 131.38L260.03 142.229C260.033 142.296 260.012 142.363 259.97 142.414C259.927 142.464 259.868 142.495 259.805 142.499L259.792 142.5Z" fill="#0C0C0C"/>
<path d="M351.883 208.482C353.996 208.482 356.079 207.934 357.952 206.885C359.826 205.837 361.436 204.318 362.644 202.459C363.853 200.599 364.625 198.454 364.894 196.207C365.163 193.959 364.922 191.674 364.191 189.548C363.449 187.389 346.044 137.969 342.73 128.812L318.196 139.471C320.06 144.62 326.809 164.135 332.232 179.855L323.223 178.805L320.387 206.777L350.463 208.4C350.935 208.455 351.409 208.482 351.883 208.482Z" fill="#003F62"/>
<path d="M276.963 114.225C277.044 114.214 279.248 123.109 296.451 121.724C308.359 120.768 311.265 112.076 311.536 112.076C310.252 111.783 308.167 111.479 307.597 111.153C305.721 110.073 304.356 108.758 303.668 105.935C303.13 103.728 302.856 95.2302 302.856 90.9668L284.53 95.3823C284.786 100.191 286.574 111.341 280.308 113.314C279.265 113.64 278.143 113.94 276.963 114.225Z" fill="#E98862"/>
<path d="M285.164 104.837C292.389 105.448 301.669 102.178 303.432 91.8425L305.022 82.5164C306.785 72.1814 303.152 62.8102 294.076 61.0305C285.001 59.2509 276.789 66.2988 275.027 76.6338L274.322 80.7624C273.646 84.7286 272.275 103.747 285.164 104.837Z" fill="#E98862"/>
<path d="M278.466 95.348C279.762 88.3612 280.357 83.7002 280.288 78.7824C278.462 75.3492 278.942 71.4035 279.357 69.7002C278.1 70.5571 276.621 70.9639 275.134 70.8619C275.134 70.8619 278.154 57.8628 288.421 54.365C290.309 53.5768 295.129 52.5817 301.53 53.523C306.973 54.3234 320.392 58.6883 322.309 74.887V74.8962C322.372 75.4332 323.661 90.3586 326.228 97.5197C329.681 107.147 334.529 110.138 334.406 121.245C334.248 135.532 309.753 137.433 294.981 136.364C280.208 135.296 271.959 130.087 271.851 119.791C271.734 108.254 275.871 109.326 278.466 95.348Z" fill="#0A0A0A"/>
<path d="M337.881 153.598L336.115 208.922L336.593 208.94L338.359 153.616L337.881 153.598Z" fill="#0C0C0C"/>
<path d="M181.992 90.3601L189.714 100.14L189.236 98.461C189.092 97.9157 189.146 97.3321 189.388 96.828C189.63 96.3238 190.041 95.9369 190.538 95.7452C190.798 95.6558 191.072 95.6242 191.344 95.6523C191.616 95.6804 191.88 95.7676 192.119 95.9085C192.358 96.0494 192.568 96.2412 192.736 96.472C192.904 96.7029 193.027 96.968 193.096 97.2512L196.626 111.506C197.072 113.305 196.844 115.22 195.991 116.842C195.139 118.464 193.729 119.665 192.063 120.188C190.128 120.795 188.068 120.769 186.147 120.113C184.226 119.457 182.532 118.201 181.282 116.505L175.629 108.815C175.328 108.421 175.163 107.928 175.163 107.419C175.162 106.911 175.325 106.417 175.624 106.022C175.901 105.672 176.276 105.425 176.693 105.319C177.11 105.214 177.548 105.253 177.942 105.434C177.948 105.409 177.959 105.386 177.973 105.366C177.988 105.346 178.006 105.33 178.026 105.317C178.047 105.305 178.07 105.298 178.093 105.295C178.117 105.293 178.14 105.295 178.163 105.303L177.116 103.883C176.795 103.467 176.626 102.941 176.639 102.401C176.652 101.862 176.846 101.345 177.187 100.947C177.535 100.565 178.003 100.335 178.501 100.303C178.998 100.27 179.489 100.438 179.878 100.772C179.881 100.749 179.887 100.727 179.898 100.707L179.467 100.125C179.187 99.7262 179.034 99.2412 179.03 98.7418C179.026 98.2424 179.173 97.755 179.447 97.3516C179.783 96.9174 180.264 96.6414 180.787 96.5828C181.31 96.5241 181.834 96.6876 182.246 97.038L182.274 97.0088L179.029 92.8997C178.863 92.689 178.738 92.4441 178.663 92.1801C178.588 91.916 178.563 91.6382 178.591 91.3637C178.62 91.0892 178.7 90.8238 178.827 90.5836C178.954 90.3434 179.125 90.1334 179.33 89.9666C179.738 89.6585 180.239 89.5278 180.733 89.6009C181.227 89.6739 181.677 89.9453 181.992 90.3601Z" fill="#E98862"/>
<path opacity="0.2" d="M182.167 97.2666C182.175 97.2887 182.186 97.309 182.201 97.3266L185.396 101.279C185.43 101.312 185.475 101.33 185.521 101.33C185.567 101.33 185.612 101.313 185.647 101.28C185.682 101.248 185.705 101.203 185.712 101.154C185.718 101.105 185.708 101.055 185.682 101.013L182.487 97.0617C182.458 97.0258 182.418 97.0021 182.375 96.9947C182.331 96.9872 182.286 96.9966 182.248 97.021C182.21 97.0454 182.181 97.0835 182.167 97.1284C182.152 97.1733 182.153 97.2222 182.169 97.2666H182.167Z" fill="#0C0C0C"/>
<path opacity="0.2" d="M179.882 100.864C179.89 100.886 179.901 100.906 179.915 100.923L182.404 104.049C182.438 104.08 182.482 104.097 182.528 104.097C182.573 104.097 182.617 104.08 182.651 104.048C182.686 104.017 182.709 103.973 182.716 103.925C182.723 103.877 182.714 103.828 182.691 103.786L180.202 100.66C180.172 100.627 180.132 100.605 180.089 100.599C180.046 100.592 180.002 100.602 179.965 100.626C179.928 100.649 179.899 100.686 179.884 100.73C179.869 100.773 179.868 100.821 179.882 100.865L179.882 100.864Z" fill="#0C0C0C"/>
<path opacity="0.2" d="M177.941 105.567C177.949 105.59 177.961 105.612 177.976 105.63L179.184 107.077C179.199 107.102 179.218 107.123 179.242 107.139C179.265 107.155 179.291 107.165 179.319 107.169C179.346 107.173 179.374 107.171 179.4 107.162C179.427 107.153 179.451 107.139 179.472 107.119C179.492 107.099 179.508 107.075 179.519 107.048C179.53 107.02 179.536 106.991 179.535 106.961C179.535 106.932 179.528 106.903 179.516 106.876C179.504 106.85 179.486 106.826 179.465 106.807L178.257 105.36C178.227 105.327 178.188 105.307 178.145 105.302C178.103 105.296 178.06 105.306 178.023 105.33C177.987 105.354 177.959 105.391 177.944 105.434C177.929 105.477 177.928 105.524 177.941 105.567Z" fill="#0C0C0C"/>
<path d="M220.111 182.448C217.68 182.448 215.29 181.774 213.174 180.491C211.058 179.209 209.287 177.361 208.033 175.128L176.785 119.464L200.942 103.872L224.697 146.188L264.185 119.286L280.914 143.338L227.741 180.042C225.466 181.613 222.817 182.448 220.111 182.448Z" fill="#003F62"/>
<path d="M261.184 157.201C261.131 157.201 261.079 157.181 261.037 157.146C260.995 157.11 260.965 157.061 260.953 157.005C260.94 156.949 260.945 156.89 260.967 156.838C260.989 156.786 261.027 156.743 261.075 156.717L267.898 152.942C267.954 152.911 268.02 152.905 268.08 152.925C268.141 152.946 268.191 152.992 268.22 153.052C268.249 153.112 268.255 153.183 268.236 153.248C268.216 153.312 268.174 153.366 268.117 153.397L261.294 157.172C261.26 157.191 261.223 157.201 261.184 157.201Z" fill="#0C0C0C"/>
<path d="M152.548 446.993H135.626L128.777 372.633H145.699L152.548 446.993Z" fill="#003F62"/>
<path opacity="0.21" d="M152.548 446.993H135.626L128.777 372.633H145.699L152.548 446.993Z" fill="#0A0A0A"/>
<path d="M135.626 446.993H69.7637L76.6127 372.633H128.777L135.626 446.993Z" fill="#003F62"/>
<path d="M102.696 403.059C100.767 403.059 98.8577 402.652 97.0759 401.86C95.2942 401.069 93.6752 399.909 92.3116 398.447C90.9479 396.985 89.8662 395.249 89.1282 393.338C88.3902 391.427 88.0104 389.38 88.0105 387.312V380.577C88.0079 380.462 88.0267 380.347 88.066 380.24C88.1052 380.133 88.164 380.036 88.2389 379.953C88.3139 379.871 88.4034 379.805 88.5022 379.761C88.6011 379.716 88.7073 379.693 88.8145 379.693C88.9218 379.693 89.028 379.716 89.1268 379.761C89.2257 379.805 89.3152 379.871 89.3901 379.953C89.4651 380.036 89.5239 380.133 89.5631 380.24C89.6023 380.347 89.6212 380.462 89.6186 380.577V387.311C89.6186 391.03 90.9964 394.596 93.4488 397.226C95.9013 399.856 99.2276 401.333 102.696 401.333C106.164 401.333 109.49 399.856 111.943 397.226C114.395 394.596 115.773 391.03 115.773 387.311V380.577C115.773 380.348 115.858 380.128 116.009 379.967C116.16 379.805 116.364 379.714 116.577 379.714C116.791 379.714 116.995 379.805 117.146 379.967C117.297 380.128 117.382 380.348 117.382 380.577V387.311C117.378 391.486 115.829 395.489 113.076 398.441C110.323 401.394 106.59 403.054 102.696 403.059Z" fill="white"/>
<path opacity="0.08" d="M128.777 372.633L138.119 382.404L145.699 372.633H128.777Z" fill="#0A0A0A"/>
<path opacity="0.08" d="M135.626 446.993L143.184 437.222L152.548 446.993H135.626Z" fill="#0A0A0A"/>
<path d="M359.498 448H0.382689C0.333092 448.002 0.283644 447.993 0.237297 447.974C0.19095 447.955 0.148654 447.926 0.112936 447.889C0.0772172 447.852 0.048808 447.808 0.0294042 447.759C0.0100004 447.71 0 447.657 0 447.604C0 447.551 0.0100004 447.498 0.0294042 447.449C0.048808 447.4 0.0772172 447.356 0.112936 447.319C0.148654 447.282 0.19095 447.253 0.237297 447.234C0.283644 447.215 0.333092 447.206 0.382689 447.208H359.498C359.547 447.206 359.597 447.215 359.643 447.234C359.689 447.253 359.732 447.282 359.767 447.319C359.803 447.356 359.832 447.4 359.851 447.449C359.87 447.498 359.88 447.551 359.88 447.604C359.88 447.657 359.87 447.71 359.851 447.759C359.832 447.808 359.803 447.852 359.767 447.889C359.732 447.926 359.689 447.955 359.643 447.974C359.597 447.993 359.547 448.002 359.498 448Z" fill="#3F3F3F"/>
</svg>
