<svg width="37" height="35" viewBox="0 0 37 35" fill="none" xmlns="http://www.w3.org/2000/svg">
<path fill-rule="evenodd" clip-rule="evenodd" d="M2.3125 17.5C2.3125 25.9569 9.55989 32.8125 18.5 32.8125C27.4401 32.8125 34.6875 25.9569 34.6875 17.5C34.6875 9.04314 27.4401 2.1875 18.5 2.1875C9.55989 2.1875 2.3125 9.04314 2.3125 17.5ZM37 17.5C37 27.165 28.7173 35 18.5 35C8.28273 35 0 27.165 0 17.5C0 7.83502 8.28273 0 18.5 0C28.7173 0 37 7.83502 37 17.5ZM19.6563 9.84375C19.6563 9.23969 19.1386 8.75 18.5 8.75C17.8614 8.75 17.3438 9.23969 17.3438 9.84375V22.5157L12.3801 17.8204C11.9286 17.3932 11.1965 17.3932 10.7449 17.8204C10.2934 18.2475 10.2934 18.94 10.7449 19.3671L17.6824 25.9296C18.134 26.3568 18.8661 26.3568 19.3176 25.9296L26.2551 19.3671C26.7066 18.94 26.7066 18.2475 26.2551 17.8204C25.8036 17.3932 25.0714 17.3932 24.6199 17.8204L19.6563 22.5157V9.84375Z" fill="black"/>
</svg>
