<svg width="44" height="40" viewBox="0 0 44 40" fill="none" xmlns="http://www.w3.org/2000/svg">
<path d="M38.5 2.5C40.0188 2.5 41.25 3.61929 41.25 5V25C41.25 26.3807 40.0188 27.5 38.5 27.5H31.625C29.8938 27.5 28.2637 28.241 27.225 29.5L22 35.8333L16.775 29.5C15.7363 28.241 14.1062 27.5 12.375 27.5H5.5C3.98122 27.5 2.75 26.3807 2.75 25V5C2.75 3.61929 3.98122 2.5 5.5 2.5H38.5ZM5.5 0C2.46243 0 0 2.23858 0 5V25C0 27.7614 2.46243 30 5.5 30H12.375C13.2406 30 14.0556 30.3705 14.575 31L19.8 37.3333C20.9 38.6667 23.1 38.6667 24.2 37.3333L29.425 31C29.9443 30.3705 30.7594 30 31.625 30H38.5C41.5376 30 44 27.7614 44 25V5C44 2.23858 41.5376 0 38.5 0H5.5Z" fill="black"/>
<path d="M13.75 15C13.75 16.3807 12.5188 17.5 11 17.5C9.48122 17.5 8.25 16.3807 8.25 15C8.25 13.6193 9.48122 12.5 11 12.5C12.5188 12.5 13.75 13.6193 13.75 15Z" fill="black"/>
<path d="M24.75 15C24.75 16.3807 23.5188 17.5 22 17.5C20.4812 17.5 19.25 16.3807 19.25 15C19.25 13.6193 20.4812 12.5 22 12.5C23.5188 12.5 24.75 13.6193 24.75 15Z" fill="black"/>
<path d="M35.75 15C35.75 16.3807 34.5188 17.5 33 17.5C31.4812 17.5 30.25 16.3807 30.25 15C30.25 13.6193 31.4812 12.5 33 12.5C34.5188 12.5 35.75 13.6193 35.75 15Z" fill="black"/>
</svg>
