<svg width="31" height="30" viewBox="0 0 31 30" fill="none" xmlns="http://www.w3.org/2000/svg">
<path d="M15.6938 6.9124C16.8718 5.50859 18.9715 5.33123 20.3838 6.51625C21.796 7.70127 21.986 9.79994 20.808 11.2037L13.1298 20.3543C12.423 21.1966 11.1632 21.303 10.3158 20.592C9.46847 19.881 9.3545 18.6218 10.0613 17.7795L16.0332 10.6624C16.2688 10.3816 16.6888 10.3462 16.9712 10.5832C17.2537 10.8202 17.2917 11.2399 17.0561 11.5207L11.0841 18.6378C10.8485 18.9185 10.8865 19.3383 11.169 19.5753C11.4514 19.8123 11.8714 19.7768 12.107 19.4961L19.7852 10.3455C20.492 9.50319 20.378 8.24399 19.5306 7.53298C18.6833 6.82197 17.4234 6.92838 16.7167 7.77067L9.03842 16.9212C7.86048 18.3251 8.05043 20.4237 9.46269 21.6087C10.8749 22.7938 12.9747 22.6164 14.1527 21.2126L20.1246 14.0955C20.3602 13.8147 20.7802 13.7792 21.0626 14.0162C21.3451 14.2533 21.383 14.673 21.1475 14.9537L15.1755 22.0709C13.5264 24.0362 10.5867 24.2845 8.60955 22.6255C6.6324 20.9664 6.36646 18.0283 8.01557 16.063L15.6938 6.9124Z" fill="black"/>
</svg>
