<svg width="755" height="360" viewBox="0 0 755 360" fill="none" xmlns="http://www.w3.org/2000/svg">
<rect width="755" height="360" rx="40" fill="#E2F4FF"/>
<rect x="78.5" y="257.5" width="198" height="43" rx="9.5" fill="#003F62"/>
<rect x="78.5" y="257.5" width="198" height="43" rx="9.5" stroke="#00263B"/>
<path d="M138.792 279.24C139.443 279.379 139.965 279.704 140.36 280.216C140.755 280.717 140.952 281.293 140.952 281.944C140.952 282.883 140.621 283.629 139.96 284.184C139.309 284.728 138.397 285 137.224 285H131.992V273.768H137.048C138.189 273.768 139.08 274.029 139.72 274.552C140.371 275.075 140.696 275.784 140.696 276.68C140.696 277.341 140.52 277.891 140.168 278.328C139.827 278.765 139.368 279.069 138.792 279.24ZM134.728 278.312H136.52C136.968 278.312 137.309 278.216 137.544 278.024C137.789 277.821 137.912 277.528 137.912 277.144C137.912 276.76 137.789 276.467 137.544 276.264C137.309 276.061 136.968 275.96 136.52 275.96H134.728V278.312ZM136.744 282.792C137.203 282.792 137.555 282.691 137.8 282.488C138.056 282.275 138.184 281.971 138.184 281.576C138.184 281.181 138.051 280.872 137.784 280.648C137.528 280.424 137.171 280.312 136.712 280.312H134.728V282.792H136.744ZM150.955 280.392C150.955 280.648 150.939 280.915 150.907 281.192H144.715C144.758 281.747 144.934 282.173 145.243 282.472C145.563 282.76 145.952 282.904 146.411 282.904C147.094 282.904 147.568 282.616 147.835 282.04H150.747C150.598 282.627 150.326 283.155 149.931 283.624C149.547 284.093 149.062 284.461 148.475 284.728C147.888 284.995 147.232 285.128 146.507 285.128C145.632 285.128 144.854 284.941 144.171 284.568C143.488 284.195 142.955 283.661 142.571 282.968C142.187 282.275 141.995 281.464 141.995 280.536C141.995 279.608 142.182 278.797 142.555 278.104C142.939 277.411 143.472 276.877 144.155 276.504C144.838 276.131 145.622 275.944 146.507 275.944C147.371 275.944 148.139 276.125 148.811 276.488C149.483 276.851 150.006 277.368 150.379 278.04C150.763 278.712 150.955 279.496 150.955 280.392ZM148.155 279.672C148.155 279.203 147.995 278.829 147.675 278.552C147.355 278.275 146.955 278.136 146.475 278.136C146.016 278.136 145.627 278.269 145.307 278.536C144.998 278.803 144.806 279.181 144.731 279.672H148.155ZM155.134 277.56C155.454 277.069 155.854 276.685 156.334 276.408C156.814 276.12 157.348 275.976 157.934 275.976V278.872H157.182C156.5 278.872 155.988 279.021 155.646 279.32C155.305 279.608 155.134 280.12 155.134 280.856V285H152.398V276.072H155.134V277.56ZM162.634 275.944C163.263 275.944 163.813 276.072 164.282 276.328C164.762 276.584 165.13 276.92 165.386 277.336V276.072H168.122V284.984C168.122 285.805 167.957 286.547 167.626 287.208C167.306 287.88 166.81 288.413 166.138 288.808C165.477 289.203 164.65 289.4 163.658 289.4C162.335 289.4 161.263 289.085 160.442 288.456C159.621 287.837 159.151 286.995 159.034 285.928H161.738C161.823 286.269 162.026 286.536 162.346 286.728C162.666 286.931 163.061 287.032 163.53 287.032C164.095 287.032 164.543 286.867 164.874 286.536C165.215 286.216 165.386 285.699 165.386 284.984V283.72C165.119 284.136 164.751 284.477 164.282 284.744C163.813 285 163.263 285.128 162.634 285.128C161.898 285.128 161.231 284.941 160.634 284.568C160.037 284.184 159.562 283.645 159.21 282.952C158.869 282.248 158.698 281.437 158.698 280.52C158.698 279.603 158.869 278.797 159.21 278.104C159.562 277.411 160.037 276.877 160.634 276.504C161.231 276.131 161.898 275.944 162.634 275.944ZM165.386 280.536C165.386 279.853 165.194 279.315 164.81 278.92C164.437 278.525 163.978 278.328 163.434 278.328C162.89 278.328 162.426 278.525 162.042 278.92C161.669 279.304 161.482 279.837 161.482 280.52C161.482 281.203 161.669 281.747 162.042 282.152C162.426 282.547 162.89 282.744 163.434 282.744C163.978 282.744 164.437 282.547 164.81 282.152C165.194 281.757 165.386 281.219 165.386 280.536ZM169.557 280.52C169.557 279.603 169.728 278.797 170.069 278.104C170.421 277.411 170.896 276.877 171.493 276.504C172.091 276.131 172.757 275.944 173.493 275.944C174.123 275.944 174.672 276.072 175.141 276.328C175.621 276.584 175.989 276.92 176.245 277.336V276.072H178.981V285H176.245V283.736C175.979 284.152 175.605 284.488 175.125 284.744C174.656 285 174.107 285.128 173.477 285.128C172.752 285.128 172.091 284.941 171.493 284.568C170.896 284.184 170.421 283.645 170.069 282.952C169.728 282.248 169.557 281.437 169.557 280.52ZM176.245 280.536C176.245 279.853 176.053 279.315 175.669 278.92C175.296 278.525 174.837 278.328 174.293 278.328C173.749 278.328 173.285 278.525 172.901 278.92C172.528 279.304 172.341 279.837 172.341 280.52C172.341 281.203 172.528 281.747 172.901 282.152C173.285 282.547 173.749 282.744 174.293 282.744C174.837 282.744 175.296 282.547 175.669 282.152C176.053 281.757 176.245 281.219 176.245 280.536ZM183.697 277.336C183.953 276.92 184.321 276.584 184.801 276.328C185.281 276.072 185.83 275.944 186.449 275.944C187.185 275.944 187.851 276.131 188.449 276.504C189.046 276.877 189.515 277.411 189.857 278.104C190.209 278.797 190.385 279.603 190.385 280.52C190.385 281.437 190.209 282.248 189.857 282.952C189.515 283.645 189.046 284.184 188.449 284.568C187.851 284.941 187.185 285.128 186.449 285.128C185.819 285.128 185.27 285.005 184.801 284.76C184.331 284.504 183.963 284.168 183.697 283.752V285H180.961V273.16H183.697V277.336ZM187.601 280.52C187.601 279.837 187.409 279.304 187.025 278.92C186.651 278.525 186.187 278.328 185.633 278.328C185.089 278.328 184.625 278.525 184.241 278.92C183.867 279.315 183.681 279.853 183.681 280.536C183.681 281.219 183.867 281.757 184.241 282.152C184.625 282.547 185.089 282.744 185.633 282.744C186.177 282.744 186.641 282.547 187.025 282.152C187.409 281.747 187.601 281.203 187.601 280.52ZM200.636 276.072V285H197.9V283.784C197.623 284.179 197.244 284.499 196.764 284.744C196.295 284.979 195.772 285.096 195.196 285.096C194.513 285.096 193.911 284.947 193.388 284.648C192.865 284.339 192.46 283.896 192.172 283.32C191.884 282.744 191.74 282.067 191.74 281.288V276.072H194.46V280.92C194.46 281.517 194.615 281.981 194.924 282.312C195.233 282.643 195.649 282.808 196.172 282.808C196.705 282.808 197.127 282.643 197.436 282.312C197.745 281.981 197.9 281.517 197.9 280.92V276.072H200.636ZM208.041 275.976C209.087 275.976 209.919 276.317 210.537 277C211.167 277.672 211.481 278.6 211.481 279.784V285H208.761V280.152C208.761 279.555 208.607 279.091 208.297 278.76C207.988 278.429 207.572 278.264 207.049 278.264C206.527 278.264 206.111 278.429 205.801 278.76C205.492 279.091 205.337 279.555 205.337 280.152V285H202.601V276.072H205.337V277.256C205.615 276.861 205.988 276.552 206.457 276.328C206.927 276.093 207.455 275.976 208.041 275.976ZM216.775 275.944C217.404 275.944 217.953 276.072 218.423 276.328C218.903 276.584 219.271 276.92 219.527 277.336V276.072H222.263V284.984C222.263 285.805 222.097 286.547 221.767 287.208C221.447 287.88 220.951 288.413 220.279 288.808C219.617 289.203 218.791 289.4 217.799 289.4C216.476 289.4 215.404 289.085 214.583 288.456C213.761 287.837 213.292 286.995 213.175 285.928H215.879C215.964 286.269 216.167 286.536 216.487 286.728C216.807 286.931 217.201 287.032 217.671 287.032C218.236 287.032 218.684 286.867 219.015 286.536C219.356 286.216 219.527 285.699 219.527 284.984V283.72C219.26 284.136 218.892 284.477 218.423 284.744C217.953 285 217.404 285.128 216.775 285.128C216.039 285.128 215.372 284.941 214.775 284.568C214.177 284.184 213.703 283.645 213.351 282.952C213.009 282.248 212.839 281.437 212.839 280.52C212.839 279.603 213.009 278.797 213.351 278.104C213.703 277.411 214.177 276.877 214.775 276.504C215.372 276.131 216.039 275.944 216.775 275.944ZM219.527 280.536C219.527 279.853 219.335 279.315 218.951 278.92C218.577 278.525 218.119 278.328 217.575 278.328C217.031 278.328 216.567 278.525 216.183 278.92C215.809 279.304 215.623 279.837 215.623 280.52C215.623 281.203 215.809 281.747 216.183 282.152C216.567 282.547 217.031 282.744 217.575 282.744C218.119 282.744 218.577 282.547 218.951 282.152C219.335 281.757 219.527 281.219 219.527 280.536Z" fill="#E6ECEF"/>
<path d="M454.987 247.179C467.64 235.271 468.794 215.825 466.486 198.733C466.103 195.885 466.085 192.831 464.554 190.47C463.023 188.109 459.89 186.742 457.624 188.231C455.746 189.463 455.136 192.042 454.239 194.217C453.037 197.118 451.097 199.597 448.642 201.37C447.04 202.519 444.995 203.346 443.213 202.551C440.773 201.46 440.151 198.06 439.876 195.23L438.333 179.3C438.052 176.451 437.765 173.526 436.659 170.959C435.553 168.393 433.472 166.058 430.871 165.602C428.269 165.147 425.31 167.071 425.058 169.92C424.957 171.107 425.304 172.287 425.351 173.474C425.399 174.661 425.017 176.041 424.006 176.49C422.995 176.939 421.835 176.265 420.956 175.527C417.925 172.961 415.682 169.49 413.565 166.013C411.449 162.535 409.38 158.955 406.569 156.126C403.759 153.297 400.069 151.205 396.242 151.423C392.415 151.641 388.624 154.631 388.074 158.757C387.524 162.882 390.131 166.699 392.858 169.663C396.875 174.066 401.465 177.822 406.485 180.814C407.388 181.353 408.369 181.937 408.794 182.951C409.565 184.785 408.082 186.864 406.402 187.698C404.494 188.641 402.33 188.673 400.285 189.18C398.239 189.687 396.099 190.932 395.501 193.12C394.717 196.161 397.295 198.945 399.734 200.677C404.619 204.149 410.024 206.695 415.712 208.203C417.745 208.736 419.868 209.165 421.59 210.455C423.312 211.745 424.532 214.183 423.785 216.3C423.037 218.417 420.663 219.354 418.576 219.187C416.489 219.02 414.54 218.051 412.507 217.493C408.71 216.447 404.028 217.275 402.037 220.932C400.733 223.338 400.912 226.45 401.965 229.009C403.017 231.569 404.823 233.661 406.713 235.566C413.29 242.232 421.405 247.275 430.189 249.418C438.973 251.561 446.932 251.49 454.975 247.198" fill="#EBEBEB"/>
<path d="M456.493 259.869C454.937 252.003 452.678 244.316 449.748 236.914C446.131 227.885 442.036 219.085 437.484 210.558C436.288 208.286 435.106 206.043 433.938 203.828C432.742 201.62 431.612 199.433 430.35 197.367C427.934 193.406 425.312 189.593 422.499 185.947C419.838 182.444 417.195 179.223 414.725 176.227C412.256 173.231 409.84 170.504 407.55 168.111C403.991 164.308 400.153 160.817 396.075 157.672C394.633 156.556 393.491 155.748 392.708 155.183L391.817 154.541C391.718 154.467 391.614 154.4 391.506 154.343C391.592 154.433 391.687 154.515 391.787 154.586L392.654 155.228C393.42 155.805 394.544 156.652 395.961 157.794C399.989 160.998 403.786 164.522 407.322 168.335C409.565 170.741 411.927 173.468 414.408 176.477C416.89 179.486 419.515 182.707 422.182 186.21C424.962 189.855 427.557 193.659 429.955 197.604C431.205 199.664 432.347 201.832 433.543 204.02L437.047 210.827C441.596 219.341 445.695 228.124 449.324 237.132C452.269 244.49 454.565 252.128 456.182 259.946" fill="#E0E0E0"/>
<path d="M430.213 197.354C430.297 196.945 430.341 196.528 430.345 196.109C430.404 195.307 430.452 194.146 430.494 192.703C430.578 189.822 430.566 185.844 430.542 181.456C430.518 177.067 430.542 173.115 430.679 170.222C430.739 168.784 430.793 167.623 430.847 166.821C430.892 166.395 430.892 165.964 430.847 165.538C430.736 165.939 430.666 166.352 430.638 166.77C430.53 167.565 430.416 168.727 430.315 170.164C430.099 173.038 430.004 177.029 430.034 181.424C430.064 185.818 430.105 189.668 430.129 192.664C430.129 194.018 430.129 195.16 430.129 196.071C430.11 196.501 430.138 196.931 430.213 197.354Z" fill="#E0E0E0"/>
<path d="M395.387 194.557C395.844 194.602 396.305 194.602 396.762 194.557C397.647 194.557 398.927 194.499 400.506 194.505C403.669 194.505 408.04 194.653 412.854 195.044C417.667 195.436 422.009 196.02 425.142 196.526C426.709 196.764 427.97 196.995 428.843 197.168C429.293 197.281 429.751 197.346 430.213 197.36C429.78 197.188 429.334 197.057 428.879 196.969C428.012 196.751 426.756 196.462 425.196 196.167C422.068 195.57 417.715 194.942 412.889 194.537C408.77 194.181 404.637 194.05 400.506 194.146C398.915 194.191 397.635 194.281 396.75 194.364C396.291 194.385 395.835 194.45 395.387 194.557Z" fill="#E0E0E0"/>
<path d="M449.258 236.291C449.338 236.142 449.4 235.982 449.444 235.816C449.569 235.438 449.713 234.976 449.892 234.418C450.275 233.212 450.789 231.441 451.393 229.247C452.589 224.858 454.114 218.738 455.68 211.963C457.247 205.187 458.7 199.054 459.83 194.64C460.381 192.491 460.841 190.733 461.176 189.417C461.325 188.853 461.439 188.378 461.541 187.993C461.592 187.829 461.622 187.659 461.63 187.486C461.554 187.638 461.492 187.797 461.445 187.961C461.325 188.34 461.176 188.802 460.996 189.353C460.614 190.566 460.099 192.337 459.496 194.531C458.3 198.919 456.781 205.04 455.208 211.821C453.635 218.603 452.188 224.724 451.064 229.144C450.508 231.293 450.054 233.058 449.713 234.367L449.354 235.791C449.301 235.952 449.269 236.121 449.258 236.291Z" fill="#E0E0E0"/>
<path d="M402.3 225.975C402.45 226.047 402.609 226.097 402.772 226.122L404.136 226.437L409.165 227.553C413.416 228.496 419.264 229.869 425.728 231.403C432.192 232.936 438.065 234.245 442.328 235.098C444.463 235.521 446.191 235.842 447.387 236.041L448.768 236.259C448.93 236.293 449.094 236.308 449.258 236.304C449.108 236.232 448.949 236.182 448.786 236.157L447.423 235.836L442.394 234.726C438.148 233.783 432.294 232.41 425.83 230.876C419.366 229.343 413.5 228.034 409.231 227.187C407.102 226.764 405.374 226.437 404.172 226.244L402.79 226.02C402.63 225.979 402.465 225.964 402.3 225.975Z" fill="#E0E0E0"/>
<path d="M460.829 35.9197L496.743 60.3703L482.069 87.1369L445.276 61.1594L460.829 35.9197Z" fill="#EBEBEB"/>
<path d="M496.743 60.3704C496.701 60.3901 496.656 60.403 496.611 60.4089L496.21 60.4923L494.68 60.7938L489.035 61.8204L470.283 65.1245H470.151L470.109 64.9898C470.013 64.7011 469.912 64.3482 469.81 64.0659C467.305 56.3028 465.026 49.3096 463.394 44.1769C462.599 41.6491 461.947 39.5896 461.486 38.1397C461.271 37.4404 461.104 36.8565 460.984 36.4908C460.93 36.3176 460.894 36.17 460.859 36.0545C460.852 36.0056 460.852 35.9559 460.859 35.907C460.881 35.9527 460.901 35.9998 460.918 36.0481L461.074 36.4652C461.205 36.8629 461.397 37.4083 461.63 38.0948C462.114 39.5383 462.796 41.585 463.633 44.0999C465.302 49.2326 467.598 56.2194 470.133 63.9889L470.432 64.9192L470.259 64.8101L489.029 61.6022L494.662 60.6976L496.205 60.4602L496.605 60.4089C496.648 60.386 496.695 60.3729 496.743 60.3704Z" fill="#E0E0E0"/>
<path d="M445.276 61.1596C445.276 61.0698 450.125 59.6904 456.159 58.0672C462.192 56.444 467.101 55.2122 467.119 55.302C467.137 55.3918 462.27 56.7776 456.236 58.3944C450.203 60.0112 445.294 61.2494 445.276 61.1596Z" fill="#E0E0E0"/>
<path d="M482.068 87.1372C481.985 87.1372 481.16 81.9404 480.227 75.4989C479.294 69.0575 478.612 63.8222 478.696 63.8093C478.78 63.7965 479.605 69.0061 480.538 75.4476C481.47 81.889 482.152 87.1179 482.068 87.1372Z" fill="#E0E0E0"/>
<path d="M699.018 109.15L733.407 103.151L737.999 128.108L702.295 133.69L699.018 109.15Z" fill="#F5F5F5"/>
<path d="M733.407 103.151C733.332 103.289 733.246 103.42 733.15 103.542L732.366 104.62C731.661 105.608 730.65 106.891 729.454 108.553L719.654 121.532L719.57 121.641L719.456 121.577L718.798 121.186L704.788 112.736L700.554 110.17L699.4 109.458C699.265 109.376 699.135 109.284 699.012 109.182C699.156 109.241 699.296 109.312 699.43 109.393L700.626 110.035L704.908 112.537L718.966 120.878L719.618 121.269L719.42 121.314L729.299 108.393L732.289 104.543C732.635 104.115 732.911 103.769 733.114 103.504C733.203 103.378 733.301 103.26 733.407 103.151Z" fill="#E0E0E0"/>
<path d="M702.294 133.69C702.222 133.639 704.495 129.937 707.371 125.427C710.247 120.916 712.627 117.291 712.699 117.349C712.771 117.407 710.498 121.096 707.628 125.613C704.758 130.129 702.366 133.741 702.294 133.69Z" fill="#E0E0E0"/>
<path d="M737.999 128.108C737.945 128.179 734.788 125.478 730.949 122.078C727.11 118.677 724.073 115.874 724.103 115.797C724.132 115.72 727.314 118.421 731.153 121.821C734.992 125.221 738.053 128.064 737.999 128.108Z" fill="#E0E0E0"/>
<path d="M603.331 78.4372L662.141 61.5251L674.208 104.049L613.048 120.473L603.331 78.4372Z" fill="#455A64"/>
<path d="M613.048 120.473C612.97 120.435 616.211 113.897 620.277 105.884C624.344 97.8706 627.704 91.4099 627.782 91.4484C627.86 91.4869 624.619 98.0246 620.553 106.044C616.486 114.064 613.126 120.518 613.048 120.473Z" fill="#263238"/>
<path d="M674.209 104.049C674.161 104.126 668.229 99.9686 660.994 94.7654C653.758 89.5622 647.91 85.2829 647.958 85.2059C648.006 85.1289 653.937 89.2799 661.167 94.4895C668.396 99.6992 674.256 103.972 674.209 104.049Z" fill="#263238"/>
<path d="M603.331 78.4372C603.399 78.4599 603.465 78.4878 603.528 78.5206L604.09 78.8029L606.231 79.9128L614.1 84.0382L639.993 97.7679L640.309 97.9348L640.106 97.9925L655.653 72.1561C657.645 68.8776 659.241 66.2151 660.383 64.3609L661.681 62.2501L662.028 61.7048C662.064 61.6406 662.106 61.5804 662.153 61.5251C662.124 61.5941 662.09 61.6606 662.052 61.724L661.735 62.2886L660.485 64.4315L655.839 72.2844L640.357 98.1721L640.286 98.3005L640.16 98.2299L639.843 98.0631L613.987 84.2499L606.165 80.0283L604.049 78.8606L603.498 78.5527C603.439 78.5215 603.382 78.4827 603.331 78.4372Z" fill="#263238"/>
<path d="M400.459 96.2603L458.169 102.451L455.568 144.699L395.92 137.231L400.459 96.2603Z" fill="#455A64"/>
<path d="M395.92 137.232C395.86 137.161 400.793 132.51 406.934 126.838C413.075 121.166 418.104 116.624 418.158 116.695C418.212 116.765 413.285 121.417 407.138 127.088C400.99 132.76 395.974 137.302 395.92 137.232Z" fill="#263238"/>
<path d="M455.586 144.699C455.52 144.757 451.549 138.925 446.724 131.656C441.898 124.387 438.047 118.472 438.113 118.42C438.179 118.369 442.155 124.194 446.981 131.464C451.806 138.733 455.639 144.648 455.586 144.699Z" fill="#263238"/>
<path d="M400.459 96.2603C400.459 96.2603 400.513 96.3052 400.608 96.4078L401.021 96.8569L402.588 98.6213L408.298 105.14L427.062 126.729L427.29 126.992H427.086L449.038 109.592L455.705 104.325L457.499 102.92L457.977 102.561C458.028 102.515 458.085 102.476 458.145 102.445C458.145 102.445 458.097 102.496 457.995 102.586L457.535 102.971L455.741 104.434C454.162 105.717 451.914 107.514 449.163 109.753L427.266 127.236L427.152 127.326L427.056 127.216L426.829 126.953L408.131 105.294L402.492 98.7047L400.967 96.8954L400.578 96.4206C400.535 96.3707 400.495 96.3171 400.459 96.2603Z" fill="#263238"/>
<path d="M729.968 159.905C729.968 159.905 724.79 156.299 718.607 169.573C712.424 182.848 710.11 190.489 710.11 190.489C710.11 190.489 708.471 193.273 706.684 191.477C704.896 189.68 702.426 184.574 699.424 185.523C696.303 186.511 695.304 190.264 695.944 195.756C696.584 201.248 697.57 213.342 697.654 214.439C697.738 215.536 697.176 217.102 695.777 216.088C694.377 215.074 686.293 205.579 682.322 209.961C678.352 214.343 682.478 229.337 682.92 230.985C683.363 232.634 683.046 233.346 682.322 233.757C681.599 234.168 679.159 230.709 676.755 228.105C674.351 225.5 671.146 222.972 669.053 225.679C666.96 228.387 666.368 239.698 676.516 257.925L681.73 266.041L690.939 265.4C710.576 262.756 718.499 255.314 719.223 251.862C719.946 248.411 716.084 247.269 712.693 246.839C709.303 246.409 705.26 246.486 705.117 245.613C704.973 244.741 705.314 244.054 706.785 243.393C708.256 242.733 721.806 236.978 722.584 230.94C723.361 224.903 711.407 223.883 709.805 223.331C708.202 222.78 709.022 221.323 709.859 220.733C710.696 220.143 720.21 213.522 724.635 210.679C729.059 207.837 731.212 204.687 730.016 201.441C728.868 198.316 723.594 199.375 721.172 198.964C718.751 198.554 719.791 195.461 719.791 195.461C719.791 195.461 723.977 188.795 729.956 175.399C735.936 162.003 729.909 159.828 729.909 159.828" fill="#87BCD9"/>
<path d="M724.413 171.781C724.382 171.879 724.346 171.975 724.305 172.069L723.953 172.903L722.571 176.079C721.375 178.838 719.582 182.822 717.393 187.73C712.992 197.546 706.797 211.052 699.914 225.949C693.032 240.847 686.807 254.339 682.352 264.129C680.134 269.012 678.34 272.977 677.09 275.729C676.492 277.083 675.99 278.148 675.655 278.879L675.272 279.694L675.135 279.97C675.166 279.872 675.202 279.775 675.242 279.681L675.595 278.854L676.976 275.646C678.172 272.887 679.966 268.909 682.155 264.001C686.556 254.179 692.751 240.673 699.639 225.776C706.528 210.878 712.741 197.392 717.196 187.602L722.464 175.996L723.899 172.846L724.276 172.031L724.413 171.781Z" fill="#263238"/>
<path d="M702.611 192.824C702.718 193.026 702.801 193.242 702.857 193.466C702.994 193.902 703.173 194.531 703.389 195.32C703.819 196.892 704.363 199.08 704.919 201.505C705.476 203.93 705.942 206.054 706.313 207.722C706.486 208.46 706.63 209.088 706.743 209.602C706.818 209.827 706.862 210.062 706.875 210.301C706.771 210.098 706.689 209.882 706.63 209.659C706.492 209.229 706.313 208.594 706.103 207.805C705.685 206.227 705.171 204.033 704.615 201.607C704.058 199.182 703.562 197.071 703.179 195.403C703.006 194.666 702.857 194.043 702.737 193.53C702.67 193.301 702.627 193.064 702.611 192.824Z" fill="#263238"/>
<path d="M707.718 210.493C707.718 210.403 711.85 209.005 716.998 207.369C722.147 205.733 726.339 204.475 726.363 204.565C726.387 204.655 722.231 206.054 717.082 207.69C711.934 209.326 707.742 210.583 707.718 210.493Z" fill="#263238"/>
<path d="M696.184 232.859C696.408 232.813 696.637 232.798 696.865 232.814H698.707C700.262 232.814 702.414 232.775 704.782 232.66C707.15 232.544 709.297 232.358 710.846 232.217L712.688 232.05C712.912 232.024 713.139 232.024 713.363 232.05C713.149 232.133 712.926 232.184 712.699 232.204C712.269 232.281 711.647 232.378 710.87 232.48C709.321 232.686 707.174 232.904 704.8 233.019C702.426 233.135 700.262 233.128 698.707 233.077C697.924 233.077 697.296 233.019 696.859 232.987C696.63 232.97 696.404 232.927 696.184 232.859Z" fill="#263238"/>
<path d="M688.29 217.968C688.433 218.132 688.555 218.315 688.655 218.513C688.876 218.872 689.187 219.405 689.558 220.066C690.311 221.381 691.352 223.209 692.446 225.243C693.54 227.277 694.545 229.093 695.25 230.472L696.07 232.076C696.179 232.268 696.267 232.472 696.333 232.686C696.187 232.523 696.062 232.339 695.962 232.14C695.741 231.781 695.436 231.248 695.059 230.594C694.306 229.279 693.265 227.444 692.177 225.41C691.089 223.376 690.072 221.529 689.372 220.181C689.02 219.508 688.739 218.962 688.553 218.577C688.435 218.391 688.347 218.185 688.29 217.968Z" fill="#263238"/>
<path d="M675.769 236.323C675.943 236.539 676.098 236.774 676.229 237.023L677.425 239.011C678.4 240.692 679.721 243.028 681.168 245.613C682.616 248.199 683.913 250.56 684.834 252.273C685.265 253.094 685.629 253.774 685.916 254.313C686.057 254.558 686.178 254.815 686.275 255.083C686.096 254.867 685.94 254.63 685.809 254.377L684.607 252.395C683.632 250.714 682.305 248.379 680.858 245.787C679.41 243.195 678.119 240.84 677.198 239.127L676.116 237.093C675.976 236.85 675.859 236.592 675.769 236.323Z" fill="#263238"/>
<path d="M686.114 254.557C686.406 254.497 686.702 254.463 686.999 254.454L689.337 254.345C691.31 254.256 694.031 254.121 697.039 253.883C700.046 253.646 702.755 253.357 704.723 253.139L707.049 252.883C707.331 252.829 707.618 252.81 707.904 252.825C707.63 252.911 707.35 252.973 707.067 253.011C706.516 253.107 705.727 253.235 704.746 253.37C702.785 253.652 700.07 253.98 697.063 254.217C694.055 254.454 691.322 254.551 689.343 254.583C688.356 254.583 687.549 254.583 686.999 254.583C686.704 254.61 686.407 254.602 686.114 254.557Z" fill="#263238"/>
<path d="M429.274 247.666C426.428 248.083 423.892 249.79 421.817 251.946C420.717 253.107 419.676 254.512 419.485 256.129C419.294 257.746 420.292 259.657 421.829 259.786C422.755 259.774 423.647 259.41 424.347 258.759C426.14 257.367 427.934 255.513 430.159 255.59C431.427 255.635 432.7 256.334 433.908 255.917C434.489 255.672 434.979 255.23 435.303 254.657C435.627 254.085 435.767 253.414 435.702 252.748C435.53 251.416 434.888 250.205 433.908 249.367C433.31 248.72 432.58 248.23 431.776 247.935C430.973 247.64 430.116 247.548 429.274 247.666Z" fill="#87BCD9"/>
<g opacity="0.3">
<path d="M429.274 247.666C426.428 248.083 423.892 249.79 421.817 251.946C420.717 253.107 419.676 254.512 419.485 256.129C419.294 257.746 420.292 259.657 421.829 259.786C422.755 259.774 423.647 259.41 424.347 258.759C426.14 257.367 427.934 255.513 430.159 255.59C431.427 255.635 432.7 256.334 433.908 255.917C434.489 255.672 434.979 255.23 435.303 254.657C435.627 254.085 435.767 253.414 435.702 252.748C435.53 251.416 434.888 250.205 433.908 249.367C433.31 248.72 432.58 248.23 431.776 247.935C430.973 247.64 430.116 247.548 429.274 247.666Z" fill="black"/>
</g>
<path d="M427.588 234.148C427.588 237.068 424.681 238.287 422.75 237.959C420.819 237.632 419.198 236.266 417.673 234.95C414.193 231.935 410.581 228.746 408.823 224.332C408.241 223.032 408.005 221.584 408.142 220.149C408.22 219.435 408.471 218.755 408.87 218.176C409.268 217.598 409.8 217.141 410.414 216.851C411.903 216.268 413.541 216.999 414.923 217.827C418.998 220.273 422.512 223.667 425.208 227.758C426.463 229.683 427.564 231.819 427.6 234.174" fill="#87BCD9"/>
<g opacity="0.3">
<path d="M427.588 234.148C427.588 237.068 424.681 238.287 422.75 237.959C420.819 237.632 419.198 236.266 417.673 234.95C414.193 231.935 410.581 228.746 408.823 224.332C408.241 223.032 408.005 221.584 408.142 220.149C408.22 219.435 408.471 218.755 408.87 218.176C409.268 217.598 409.8 217.141 410.414 216.851C411.903 216.268 413.541 216.999 414.923 217.827C418.998 220.273 422.512 223.667 425.208 227.758C426.463 229.683 427.564 231.819 427.6 234.174" fill="white"/>
</g>
<path d="M432.934 234.315C430.392 233.597 428.443 231.216 427.612 228.541C426.881 225.819 426.86 222.934 427.552 220.201C428.262 216.97 429.552 213.92 431.349 211.218C432.013 210.123 432.888 209.194 433.914 208.492C434.433 208.149 435.021 207.947 435.629 207.903C436.236 207.86 436.844 207.976 437.401 208.242C438.997 209.121 439.446 211.308 439.643 213.22C439.988 216.594 440.086 219.992 439.936 223.383C439.816 226.11 439.493 228.952 438.07 231.21C436.647 233.468 434.566 234.899 432.587 234.232" fill="#87BCD9"/>
<path d="M446.992 263.623C446.734 263.382 446.499 263.113 446.292 262.821L444.498 260.556C443.604 259.445 442.656 258.384 441.658 257.38C440.425 256.169 439.103 255.066 437.706 254.082C436.316 253.095 434.805 252.322 433.215 251.785C431.92 251.35 430.552 251.23 429.208 251.433C428.305 251.583 427.43 251.884 426.613 252.324C426.327 252.523 426.023 252.688 425.704 252.818C425.96 252.575 426.239 252.36 426.536 252.177C427.347 251.661 428.238 251.305 429.167 251.125C430.553 250.871 431.975 250.963 433.322 251.394C434.957 251.92 436.51 252.7 437.933 253.71C439.353 254.708 440.69 255.837 441.927 257.085C442.92 258.114 443.855 259.207 444.726 260.357C445.473 261.338 446.041 262.153 446.436 262.718C446.651 262.997 446.837 263.3 446.992 263.623Z" fill="#263238"/>
<path d="M445.617 261.871C445.505 261.751 445.407 261.617 445.324 261.473L444.553 260.293C443.889 259.266 442.914 257.784 441.671 255.994C439.189 252.395 435.589 247.557 431.385 242.431C427.182 237.305 423.151 232.872 420.114 229.805C419.366 229.028 418.673 228.342 418.051 227.752C417.429 227.161 416.915 226.635 416.472 226.231L415.462 225.275C415.338 225.171 415.226 225.053 415.127 224.922C415.268 224.997 415.398 225.092 415.515 225.205L416.574 226.096C417.034 226.481 417.578 226.982 418.206 227.566C418.834 228.15 419.552 228.81 420.317 229.574C424.311 233.538 428.103 237.729 431.678 242.13C435.864 247.262 439.452 252.151 441.88 255.802C443.076 257.624 444.038 259.138 444.666 260.196L445.372 261.428C445.469 261.565 445.551 261.714 445.617 261.871Z" fill="#263238"/>
<path d="M439.194 252.113C438.9 251.72 438.634 251.304 438.399 250.868C437.921 250.047 437.275 248.821 436.563 247.262C435.743 245.431 435.018 243.553 434.393 241.636C433.613 239.288 432.99 236.885 432.527 234.443C431.593 230.013 431.417 225.437 432.007 220.938C432.113 220.163 432.267 219.395 432.467 218.641C432.545 218.308 432.605 218 432.694 217.711L432.957 216.954C433.098 216.474 433.276 216.009 433.49 215.562C433.597 215.6 432.76 217.576 432.294 220.983C431.798 225.446 432.012 229.967 432.928 234.354C433.38 236.773 433.979 239.159 434.721 241.494C435.325 243.408 436.017 245.288 436.796 247.127C437.466 248.699 438.07 249.938 438.501 250.784C438.77 251.203 439.002 251.648 439.194 252.113Z" fill="#263238"/>
<path d="M675.721 112.249H452.924C448.112 112.249 444.211 116.434 444.211 121.596V273.343C444.211 278.505 448.112 282.69 452.924 282.69H675.721C680.533 282.69 684.433 278.505 684.433 273.343V121.596C684.433 116.434 680.533 112.249 675.721 112.249Z" fill="#263238"/>
<path d="M434.166 270.083H694.425V273.58C694.425 276.609 693.304 279.514 691.308 281.655C689.312 283.797 686.604 285 683.781 285H444.821C443.424 285 442.039 284.705 440.748 284.131C439.457 283.557 438.283 282.716 437.295 281.655C436.307 280.595 435.523 279.336 434.988 277.95C434.453 276.565 434.177 275.08 434.177 273.58V270.083H434.166Z" fill="#263238"/>
<path d="M677.311 119.017H450.657V262.956H677.311V119.017Z" fill="#455A64"/>
<path d="M540.639 270.083L543.868 275.595H589.314L592.316 270.083H540.639Z" fill="#455A64"/>
<path d="M671.153 123.893H457.283C456.203 123.893 455.328 124.833 455.328 125.991V260.396C455.328 261.554 456.203 262.494 457.283 262.494H671.153C672.232 262.494 673.108 261.554 673.108 260.396V125.991C673.108 124.833 672.232 123.893 671.153 123.893Z" fill="#EBEBEB"/>
<path d="M673.108 134.049H455.328V262.493H673.108V134.049Z" fill="#FAFAFA"/>
<path d="M473.189 129.244C473.189 129.613 473.087 129.974 472.896 130.281C472.704 130.588 472.433 130.828 472.115 130.969C471.797 131.11 471.447 131.147 471.109 131.075C470.772 131.003 470.462 130.825 470.218 130.564C469.975 130.303 469.809 129.97 469.742 129.608C469.675 129.246 469.709 128.871 469.841 128.529C469.973 128.188 470.196 127.897 470.482 127.692C470.768 127.486 471.105 127.377 471.449 127.377C471.91 127.377 472.353 127.574 472.679 127.924C473.006 128.274 473.189 128.749 473.189 129.244Z" fill="#455A64"/>
<path d="M462.647 129.244C462.647 129.613 462.545 129.974 462.354 130.281C462.162 130.588 461.891 130.828 461.573 130.969C461.255 131.11 460.905 131.147 460.567 131.075C460.23 131.003 459.92 130.825 459.676 130.564C459.433 130.303 459.267 129.97 459.2 129.608C459.133 129.246 459.168 128.871 459.299 128.529C459.431 128.188 459.654 127.897 459.94 127.692C460.226 127.486 460.563 127.377 460.907 127.377C461.368 127.377 461.811 127.574 462.137 127.924C462.464 128.274 462.647 128.749 462.647 129.244Z" fill="#455A64"/>
<path d="M467.706 129.244C467.706 129.613 467.604 129.975 467.412 130.282C467.221 130.589 466.948 130.828 466.63 130.969C466.312 131.111 465.962 131.147 465.624 131.075C465.286 131.002 464.976 130.824 464.733 130.562C464.49 130.3 464.325 129.967 464.258 129.604C464.192 129.242 464.227 128.866 464.36 128.525C464.492 128.184 464.716 127.893 465.003 127.688C465.29 127.484 465.627 127.376 465.972 127.377C466.2 127.377 466.426 127.425 466.637 127.519C466.847 127.613 467.039 127.751 467.2 127.924C467.361 128.098 467.489 128.304 467.575 128.53C467.662 128.756 467.707 128.999 467.706 129.244Z" fill="#455A64"/>
<path d="M682.371 270.083C682.371 270.173 629.05 270.25 563.297 270.25C497.545 270.25 444.224 270.173 444.224 270.083C444.224 269.993 497.533 269.917 563.309 269.917C629.086 269.917 682.371 269.993 682.371 270.083Z" fill="#455A64"/>
<path d="M498.25 216.884C498.198 215.323 498.248 213.76 498.399 212.206C498.443 210.644 498.595 209.087 498.854 207.549C498.906 209.112 498.856 210.677 498.704 212.232C498.657 213.792 498.505 215.347 498.25 216.884Z" fill="#FAFAFA"/>
<path d="M651.013 204.411C638.779 184.118 626.078 161.348 626.078 161.348C615.028 146.887 606.1 141.832 588.681 141.049L554.794 140.895C548.133 141.299 532.669 137.616 518.318 159.7L518.252 159.59C518.252 159.59 505.546 182.36 493.317 202.66C479.606 225.416 487.81 249.046 502.46 250.425C517.272 251.817 526.457 252.241 531.378 252.35L531.145 262.538L609.712 262.404L608.91 250.99C616.792 250.99 638.611 250.9 641.834 250.47C656.431 248.565 664.725 227.194 651.013 204.411ZM532.49 199.92L532 223.569L518.246 223.614L532.49 199.92ZM610.399 225.307L612.546 202.852L626.078 225.372L610.399 225.307Z" fill="#87BCD9"/>
<path d="M587.365 139.984C587.379 140.161 587.379 140.339 587.365 140.516C587.36 141.021 587.326 141.524 587.263 142.024C587.169 142.82 587.027 143.609 586.839 144.385C586.572 145.41 586.232 146.412 585.822 147.381C584.73 149.906 583.119 152.132 581.11 153.893C578.62 156.041 575.569 157.304 572.38 157.505C569.184 157.747 566.004 156.845 563.338 154.939C561.197 153.357 559.464 151.221 558.297 148.729C557.515 147.059 556.996 145.262 556.761 143.41C556.692 142.908 556.654 142.403 556.647 141.896C556.631 141.721 556.631 141.545 556.647 141.37C556.681 141.543 556.701 141.719 556.707 141.896C556.707 142.242 556.785 142.743 556.88 143.391C557.159 145.214 557.704 146.978 558.495 148.62C559.666 151.059 561.386 153.145 563.5 154.689C566.122 156.531 569.235 157.399 572.362 157.159C575.488 156.962 578.481 155.731 580.931 153.637C582.917 151.915 584.519 149.738 585.619 147.266C586.372 145.603 586.886 143.827 587.143 141.998C587.219 141.501 587.271 141 587.299 140.497C587.308 140.324 587.33 140.153 587.365 139.984Z" fill="#263238"/>
<path d="M612.301 206.034C612.211 206.034 612.54 196.321 613.03 184.355C613.52 172.39 613.987 162.708 614.047 162.708C614.107 162.708 613.808 172.422 613.317 184.394C612.827 196.366 612.384 206.041 612.301 206.034Z" fill="#263238"/>
<path d="M534.092 162.708C534.119 162.837 534.131 162.968 534.128 163.1V164.21C534.128 165.172 534.158 166.564 534.128 168.29C534.128 171.742 534.044 176.502 533.817 181.763C533.59 187.024 533.261 191.772 532.968 195.237C532.824 196.956 532.693 198.342 532.585 199.304C532.537 199.753 532.495 200.119 532.46 200.401C532.45 200.531 532.43 200.66 532.4 200.786C532.384 200.656 532.384 200.525 532.4 200.395C532.4 200.106 532.442 199.753 532.466 199.291C532.537 198.284 532.633 196.905 532.747 195.217C532.986 191.785 533.279 187.031 533.506 181.783C533.733 176.535 533.847 171.774 533.913 168.309C533.913 166.616 533.96 165.236 533.978 164.229C533.978 163.774 533.978 163.408 534.008 163.119C534.026 162.98 534.054 162.843 534.092 162.708Z" fill="#263238"/>
<path d="M606.01 250.15C605.976 249.994 605.956 249.835 605.95 249.675C605.95 249.335 605.878 248.873 605.825 248.283C605.729 247.044 605.591 245.293 605.418 243.099C605.089 238.652 604.635 232.448 604.108 225.308V225.128H604.276L612.002 225.263L633.899 225.693L640.537 225.859L642.331 225.923H642.797C642.85 225.915 642.905 225.915 642.958 225.923C642.905 225.933 642.85 225.933 642.797 225.923H642.331H640.537L633.899 225.859L611.99 225.583L604.258 225.442L604.407 225.269C604.892 232.41 605.31 238.62 605.603 243.073C605.735 245.267 605.848 247.025 605.92 248.263C605.956 248.854 605.98 249.315 605.998 249.655C606.012 249.82 606.016 249.985 606.01 250.15Z" fill="#263238"/>
<path d="M639.962 221.092C639.962 221.15 639.113 221.092 637.762 221.169C635.998 221.276 634.251 221.606 632.559 222.151C630.871 222.713 629.25 223.484 627.728 224.448C626.562 225.192 625.892 225.731 625.862 225.699C625.832 225.667 626.005 225.532 626.298 225.269C626.716 224.899 627.156 224.559 627.614 224.249C629.12 223.206 630.754 222.394 632.47 221.837C634.183 221.278 635.959 220.973 637.75 220.932C638.292 220.921 638.835 220.942 639.376 220.996C639.574 221.001 639.771 221.034 639.962 221.092Z" fill="#263238"/>
<path d="M535.874 252.53C535.865 252.481 535.865 252.431 535.874 252.382C535.874 252.267 535.874 252.126 535.916 251.952C535.964 251.548 536.03 251.003 536.107 250.297C536.293 248.834 536.556 246.756 536.879 244.176C537.566 238.96 538.511 231.736 539.588 223.562L539.737 223.755L535.551 223.691C526.875 223.627 519.011 223.8 513.319 223.768C510.472 223.768 508.17 223.723 506.58 223.678L504.75 223.614H504.272H504.11C504.164 223.604 504.218 223.604 504.272 223.614H506.58H513.319C519.005 223.582 526.869 223.376 535.557 223.441L539.743 223.505H539.899V223.691C538.786 231.852 537.8 239.089 537.088 244.285C536.723 246.852 536.43 248.937 536.227 250.393C536.119 251.093 536.036 251.638 535.976 252.036C535.976 252.209 535.928 252.35 535.904 252.466C535.88 252.581 535.88 252.53 535.874 252.53Z" fill="#263238"/>
<path d="M517.911 223.864C517.475 223.546 517.073 223.176 516.715 222.76C516.01 222.035 515.071 220.99 514.102 219.771C513.133 218.552 512.308 217.39 511.77 216.524C511.445 216.075 511.17 215.586 510.951 215.068C511.318 215.475 511.652 215.915 511.949 216.383C512.547 217.211 513.378 218.308 514.341 219.559C515.304 220.81 516.207 221.83 516.877 222.594C517.253 222.986 517.599 223.411 517.911 223.864Z" fill="#263238"/>
<path d="M553.054 169.048C552.141 167.477 551.318 165.849 550.59 164.172C549.77 162.544 549.039 160.867 548.401 159.148C549.314 160.718 550.137 162.346 550.865 164.024C551.688 165.65 552.418 167.327 553.054 169.048Z" fill="#FAFAFA"/>
<path d="M586.69 168.56C586.339 169.053 585.938 169.503 585.494 169.901C583.459 171.925 581.211 173.689 578.796 175.155C578.309 175.479 577.792 175.75 577.254 175.964C577.706 175.585 578.186 175.246 578.689 174.95C579.58 174.347 580.806 173.487 582.109 172.467C583.413 171.447 584.537 170.459 585.344 169.721C585.768 169.303 586.218 168.915 586.69 168.56Z" fill="#FAFAFA"/>
<path d="M602.865 165.423C601.644 163.971 600.502 162.446 599.444 160.855C598.302 159.332 597.242 157.74 596.269 156.088C597.49 157.541 598.634 159.066 599.695 160.656C600.836 162.178 601.895 163.77 602.865 165.423Z" fill="#FAFAFA"/>
<path d="M601.753 187.974C600.634 188.815 599.459 189.566 598.236 190.22C597.06 190.97 595.833 191.625 594.565 192.176C595.683 191.332 596.861 190.581 598.087 189.931C599.261 189.179 600.486 188.525 601.753 187.974Z" fill="#FAFAFA"/>
<path d="M625.067 189.841C624.953 187.803 624.941 185.76 625.031 183.72C625.021 181.679 625.112 179.638 625.306 177.606C625.421 179.644 625.433 181.687 625.342 183.727C625.356 185.769 625.265 187.81 625.067 189.841Z" fill="#FAFAFA"/>
<path d="M634.737 207.343C632.698 207.642 630.646 207.83 628.59 207.908C625.187 208.126 622.431 208.229 622.425 208.139C624.463 207.84 626.515 207.652 628.572 207.574C631.986 207.356 634.731 207.253 634.737 207.343Z" fill="#FAFAFA"/>
<path d="M650.385 220.329C650.098 218.247 649.919 216.15 649.847 214.048C649.666 211.951 649.592 209.846 649.625 207.741C649.904 209.826 650.081 211.924 650.158 214.028C650.334 216.123 650.41 218.226 650.385 220.329Z" fill="#FAFAFA"/>
<path d="M643.789 236.625C642.412 238.27 640.957 239.837 639.43 241.321C637.979 242.889 636.455 244.375 634.861 245.774C634.801 245.71 636.751 243.605 639.214 241.078C641.678 238.55 643.729 236.561 643.789 236.625Z" fill="#FAFAFA"/>
<path d="M617.766 241.854C617.37 241.752 616.994 241.576 616.654 241.334C614.939 240.305 613.471 238.862 612.367 237.119C612.107 236.779 611.905 236.392 611.769 235.977C612.603 237.129 613.505 238.222 614.471 239.249C615.514 240.196 616.615 241.066 617.766 241.854Z" fill="#FAFAFA"/>
<path d="M549.466 183.643C548.225 185.009 546.909 186.295 545.525 187.493C544.209 188.77 542.825 189.965 541.381 191.073C542.622 189.707 543.938 188.421 545.322 187.223C546.638 185.946 548.022 184.751 549.466 183.643Z" fill="#FAFAFA"/>
<path d="M566.017 192.414C564.695 190.792 563.862 188.779 563.625 186.639C563.715 186.639 564.038 188.006 564.702 189.597C565.365 191.188 566.095 192.362 566.017 192.414Z" fill="#FAFAFA"/>
<path d="M536.968 148.061C537.022 148.138 534.798 150.159 531.993 152.552C529.189 154.946 526.881 156.883 526.827 156.813C526.773 156.742 528.997 154.715 531.802 152.322C534.606 149.928 536.909 147.991 536.968 148.061Z" fill="#FAFAFA"/>
<path d="M525.476 181.809C525.386 181.841 524.704 179.698 523.562 177.202C522.42 174.706 521.266 172.814 521.344 172.756C521.672 173.108 521.955 173.505 522.187 173.936C522.797 174.939 523.35 175.98 523.843 177.054C524.335 178.129 524.761 179.237 525.117 180.371C525.294 180.832 525.414 181.315 525.476 181.809Z" fill="#FAFAFA"/>
<path d="M520.709 195.962C520.241 196.251 519.741 196.477 519.22 196.635C516.74 197.53 514.141 197.99 511.524 197.995C510.984 198.027 510.441 197.986 509.91 197.874C510.443 197.794 510.98 197.756 511.518 197.758C512.812 197.7 514.102 197.565 515.381 197.354C516.655 197.121 517.916 196.817 519.16 196.443C519.664 196.238 520.182 196.077 520.709 195.962Z" fill="#FAFAFA"/>
<path d="M508.098 231.672C506.435 232.991 504.71 234.221 502.932 235.355C500.032 237.279 497.646 238.838 497.598 238.761C499.26 237.438 500.985 236.206 502.765 235.072C504.488 233.843 506.268 232.709 508.098 231.672Z" fill="#FAFAFA"/>
<path d="M524.459 244.625C524.381 244.658 523.174 241.296 521.768 237.119C520.363 232.942 519.281 229.529 519.376 229.497C519.472 229.465 520.662 232.827 522.073 237.004C523.485 241.18 524.543 244.593 524.459 244.625Z" fill="#FAFAFA"/>
<path d="M542.069 217.673C541.332 216.355 540.683 214.983 540.126 213.567C539.476 212.195 538.922 210.773 538.469 209.313C539.206 210.632 539.854 212.007 540.407 213.425C541.057 214.795 541.613 216.215 542.069 217.673Z" fill="#FAFAFA"/>
<path d="M608.611 206.028C608.491 206.526 608.325 207.01 608.115 207.472C607.78 208.351 607.313 209.557 606.829 210.904C606.345 212.251 605.932 213.47 605.633 214.375C605.499 214.869 605.321 215.349 605.101 215.806C605.152 215.293 605.26 214.789 605.424 214.304C605.675 213.387 606.058 212.142 606.548 210.789C607.038 209.435 607.535 208.222 607.923 207.375C608.105 206.9 608.336 206.448 608.611 206.028Z" fill="#FAFAFA"/>
<path d="M552.701 258.163C552.151 258.202 551.6 258.202 551.051 258.163C549.731 258.145 548.411 258.212 547.098 258.362C545.785 258.515 544.481 258.749 543.193 259.061C542.665 259.223 542.128 259.348 541.585 259.433C542.077 259.161 542.599 258.958 543.139 258.83C544.426 258.447 545.74 258.179 547.068 258.028C548.393 257.875 549.727 257.84 551.057 257.925C551.612 257.931 552.164 258.01 552.701 258.163Z" fill="#FAFAFA"/>
<path d="M568.822 259.401C568.738 259.452 567.811 257.65 566.268 255.763C564.726 253.877 563.201 252.626 563.278 252.555C563.66 252.746 564.013 252.997 564.325 253.3C565.121 253.974 565.856 254.728 566.519 255.552C567.192 256.372 567.792 257.257 568.313 258.195C568.534 258.57 568.705 258.976 568.822 259.401Z" fill="#FAFAFA"/>
<path d="M586.63 254.358C585.468 255.306 584.245 256.164 582.97 256.924C581.75 257.777 580.475 258.536 579.155 259.196C580.312 258.245 581.534 257.387 582.809 256.629C584.03 255.775 585.307 255.016 586.63 254.358Z" fill="#FAFAFA"/>
<path d="M605.52 258.503C604.633 258.568 603.742 258.523 602.865 258.368C601.976 258.325 601.095 258.17 600.24 257.906C601.126 257.841 602.017 257.886 602.894 258.041C603.784 258.081 604.665 258.236 605.52 258.503Z" fill="#FAFAFA"/>
<path d="M582.683 96.1833C582.562 96.7251 582.592 97.2932 582.768 97.8172C582.945 98.3412 583.261 98.7981 583.677 99.1313C584.093 99.4645 584.591 99.6595 585.11 99.692C585.628 99.7245 586.144 99.5932 586.594 99.3142C588.292 98.2556 588.388 95.6572 587.921 93.6106C587.455 91.564 586.696 89.3954 587.407 87.4322C587.945 85.9309 589.237 84.9236 590.218 83.711C591.085 82.6546 591.712 81.3967 592.049 80.0363C592.386 78.6758 592.424 77.25 592.161 75.8709C591.868 74.4991 591.226 73.2409 590.308 72.2355C589.39 71.2301 588.231 70.5165 586.959 70.1737C584.352 69.5321 581.236 70.6036 579.221 68.7237C577.756 67.3636 577.547 65.0026 576.387 63.3409C574.593 60.7746 571.041 60.5564 568.099 61.1724C565.157 61.7883 562.179 62.9944 559.231 62.3978C556.767 61.8973 554.674 60.1972 552.336 59.1899C549.785 58.1311 546.99 57.9518 544.339 58.677C541.689 59.4022 539.315 60.9958 537.548 63.2361C535.781 65.4764 534.709 68.2519 534.481 71.1765C534.252 74.1011 534.88 77.0293 536.275 79.5536C537.216 81.4125 538.739 82.8552 540.574 83.6276" fill="#263238"/>
<path d="M572.787 155.805C568.843 156.161 564.929 154.824 561.902 152.088C558.876 149.352 556.984 145.44 556.642 141.209C556.235 136.179 555.906 131.945 555.906 131.945C555.906 131.945 543.947 130.861 542.96 118.164C541.974 105.467 542.123 77.8214 542.123 77.8214V76.1469C555.416 68.7944 571.459 71.1297 583.921 79.9963L584.071 82.614L586.456 139.612C586.507 143.665 585.125 147.588 582.589 150.592C580.053 153.596 576.551 155.459 572.787 155.805Z" fill="#FFBE9D"/>
<path d="M547.929 97.6588C548.251 97.5114 548.525 97.263 548.713 96.9461C548.902 96.6292 548.997 96.2586 548.986 95.8829C548.975 95.5071 548.858 95.1436 548.652 94.8401C548.445 94.5365 548.158 94.3069 547.827 94.1815C547.439 94.0275 547.01 94.0413 546.632 94.22C546.307 94.3663 546.032 94.6147 545.842 94.9324C545.652 95.25 545.556 95.622 545.567 95.9993C545.578 96.3766 545.695 96.7414 545.904 97.0457C546.112 97.35 546.401 97.5794 546.733 97.7037C547.122 97.8557 547.551 97.8396 547.929 97.6588Z" fill="#263238"/>
<path d="M543.678 95.0028C543.875 95.2081 544.975 94.1623 546.608 94.034C548.24 93.9057 549.478 94.7141 549.645 94.4767C549.729 94.3676 549.514 93.9891 548.97 93.6041C548.236 93.113 547.374 92.889 546.512 92.9653C545.651 93.0416 544.835 93.4141 544.186 94.0276C543.732 94.4959 543.582 94.913 543.678 95.0028Z" fill="#263238"/>
<path d="M563.327 94.6498C563.049 94.8611 562.835 95.1565 562.713 95.4984C562.591 95.8403 562.566 96.2134 562.642 96.5703C562.718 96.9272 562.892 97.2519 563.14 97.5031C563.388 97.7542 563.7 97.9206 564.037 97.9811C564.373 98.0416 564.719 97.9934 565.03 97.8428C565.341 97.6921 565.603 97.4457 565.784 97.1348C565.964 96.824 566.054 96.4627 566.042 96.0968C566.031 95.7309 565.918 95.3768 565.719 95.0797C565.453 94.6854 565.053 94.4194 564.605 94.339C564.158 94.2585 563.699 94.3702 563.327 94.6498Z" fill="#263238"/>
<path d="M561.054 95.2979C561.252 95.5032 562.352 94.4575 563.984 94.3292C565.617 94.2008 566.854 95.0092 567.022 94.7718C567.1 94.6628 566.89 94.2842 566.346 93.8993C565.613 93.4082 564.751 93.1842 563.889 93.2605C563.027 93.3367 562.211 93.7093 561.562 94.3227C561.108 94.7911 560.959 95.2081 561.054 95.2979Z" fill="#263238"/>
<path d="M555.446 110.227C555.446 110.093 554.424 109.958 552.767 109.842C552.343 109.842 551.984 109.753 551.93 109.496C551.881 109.032 551.956 108.563 552.145 108.142L553.204 104.492C554.651 99.2885 555.643 95.0156 555.41 94.945C555.177 94.8744 553.814 99.019 552.361 104.222C552.02 105.505 551.691 106.705 551.374 107.892C551.133 108.501 551.093 109.18 551.26 109.817C551.333 109.98 551.44 110.123 551.573 110.234C551.705 110.346 551.861 110.422 552.026 110.458C552.266 110.509 552.511 110.524 552.755 110.503C554.43 110.458 555.446 110.356 555.446 110.227Z" fill="#263238"/>
<path d="M560.881 111.761C562.507 110.548 556.378 114.776 553.048 114.853C553.048 114.853 555.164 117.978 558.489 116.38C561.945 114.719 560.881 111.761 560.881 111.761Z" fill="white"/>
<path d="M555.894 131.759C555.894 131.759 563.416 131.855 571.023 125.895C571.023 125.895 567.973 135.313 556.073 135.057L555.894 131.759Z" fill="#EB996E"/>
<path d="M583.915 91.1019C584.172 90.9928 592.693 89.7289 591.976 100.546C591.258 111.363 581.308 107 581.308 106.692C581.308 106.384 583.915 91.1019 583.915 91.1019Z" fill="#FFBE9D"/>
<path d="M584.65 103.132C584.698 103.132 584.817 103.279 585.105 103.446C585.51 103.665 585.978 103.711 586.414 103.574C587.508 103.241 588.525 101.489 588.704 99.5453C588.795 98.6207 588.689 97.6861 588.393 96.8121C588.322 96.4662 588.172 96.1441 587.959 95.8736C587.745 95.6032 587.474 95.3924 587.168 95.2595C586.969 95.1875 586.753 95.1924 586.558 95.2733C586.362 95.3541 586.199 95.5059 586.097 95.7022C585.942 95.9909 585.995 96.2155 585.942 96.2283C585.888 96.2411 585.732 96.0294 585.846 95.5867C585.921 95.3252 586.077 95.0989 586.288 94.9452C586.58 94.7428 586.935 94.6714 587.275 94.7463C587.684 94.8643 588.057 95.0935 588.358 95.4115C588.66 95.7296 588.88 96.1259 588.997 96.5619C589.366 97.5327 589.508 98.5856 589.41 99.6287C589.201 101.804 588.023 103.76 586.534 104.12C586.258 104.185 585.972 104.183 585.697 104.111C585.422 104.04 585.167 103.903 584.949 103.709C584.65 103.395 584.614 103.151 584.65 103.132Z" fill="#EB996E"/>
<path d="M567.943 88.4587C567.68 88.8437 565.904 87.8877 563.584 87.9134C561.264 87.939 559.476 88.7923 559.219 88.401C559.106 88.2213 559.434 87.7016 560.206 87.1884C561.238 86.5583 562.406 86.2308 563.593 86.2387C564.78 86.2465 565.944 86.5896 566.969 87.2333C567.734 87.7594 568.057 88.2855 567.943 88.4587Z" fill="#263238"/>
<path d="M549.382 89.1965C549.286 89.652 548.019 89.7226 546.53 89.7739C545.041 89.8252 543.767 89.806 543.647 89.3569C543.528 88.9078 544.772 88.1443 546.488 88.0737C548.204 88.0031 549.466 88.7602 549.382 89.1965Z" fill="#263238"/>
<path d="M539.611 83.2105C539.611 83.2105 546.895 86.6366 556.032 81.2858C562.011 77.7699 569.091 75.8901 570.712 77.1412C572.332 78.3923 572.888 85.1417 579.012 86.8675C579.012 86.8675 579.012 99.7697 583.795 99.1217C588.579 98.4737 584.884 78.6297 584.884 78.6297L573.63 70.5971L560.756 68.512L546.709 70.7575L538.876 76.2943L539.611 83.2105Z" fill="#263238"/>
<path d="M585.386 67.8063C584.483 67.8842 583.595 68.1003 582.749 68.4479C581.941 68.886 581.194 69.4431 580.53 70.1032C580.501 70.1032 580.644 69.776 580.991 69.3718C581.454 68.8479 582.01 68.4287 582.626 68.1389C583.242 67.8491 583.906 67.6946 584.579 67.6844C585.081 67.6716 585.392 67.755 585.386 67.8063Z" fill="#263238"/>
<path d="M580.28 62.9368C580.427 63.3032 580.516 63.6936 580.543 64.0916C580.686 65.0394 580.721 66.0027 580.644 66.9595C580.571 67.9212 580.34 68.8615 579.963 69.7375C579.828 70.1126 579.625 70.4551 579.365 70.7448C579.469 70.3683 579.601 70.0014 579.759 69.6477C580.072 68.774 580.273 67.8589 580.357 66.9274C580.434 65.9925 580.434 65.0522 580.357 64.1173C580.291 63.7281 580.265 63.3321 580.28 62.9368Z" fill="#263238"/>
<path d="M579.807 68.4542C579.786 68.5689 579.76 68.6824 579.729 68.7943C579.643 69.1287 579.531 69.4549 579.394 69.7695C578.937 70.8171 578.272 71.745 577.445 72.4885C576.619 73.2321 575.652 73.7733 574.61 74.0745C573.565 74.3767 572.467 74.3988 571.411 74.1386C570.196 73.8425 569.068 73.2274 568.129 72.3486C567.065 71.3709 566.297 70.0755 565.922 68.6275C565.719 67.8447 565.674 67.0244 565.79 66.2215C565.913 65.371 566.289 64.5857 566.861 63.9824C567.156 63.6629 567.508 63.4115 567.897 63.2437C568.286 63.076 568.702 62.9955 569.121 63.0072C569.558 63.0419 569.981 63.1838 570.358 63.4219C570.736 63.6599 571.057 63.9878 571.298 64.3802C571.815 65.1692 572.064 66.1251 572.003 67.0877C571.9 68.0694 571.551 69.0027 570.993 69.7887C569.809 71.3777 568.235 72.58 566.448 73.2597C564.594 74.011 562.604 74.2985 560.63 74.1001C558.566 73.8965 556.584 73.1326 554.872 71.8803C553.983 71.2331 553.241 70.3802 552.701 69.3845C552.432 68.8712 552.25 68.3108 552.163 67.7292C552.086 67.1386 552.114 66.5377 552.246 65.9585C552.388 65.3747 552.64 64.8286 552.988 64.3545C553.349 63.8764 553.827 63.5163 554.369 63.3152C554.922 63.1543 555.501 63.1284 556.064 63.2395C556.627 63.3505 557.159 63.5956 557.622 63.9568C558.553 64.6523 559.263 65.6377 559.655 66.7797C560.048 67.894 560.17 69.0976 560.008 70.2763C559.809 71.4181 559.376 72.4981 558.74 73.4381C558.104 74.378 557.281 75.1542 556.331 75.7105C554.509 76.7859 552.401 77.1681 550.351 76.7947C548.378 76.5001 546.517 75.6327 544.969 74.2862C544.229 73.6198 543.637 72.7847 543.235 71.8418C542.851 70.9118 542.708 69.8875 542.823 68.8777C542.938 67.8932 543.375 66.9842 544.054 66.3114C544.383 65.9796 544.774 65.7271 545.201 65.5711C545.628 65.415 546.081 65.359 546.53 65.4067C546.96 65.4844 547.37 65.6582 547.734 65.9169C548.098 66.1755 548.406 66.5132 548.641 66.908C549.096 67.6706 549.306 68.5718 549.239 69.4743C549.183 70.3055 548.945 71.1109 548.545 71.8253C548.145 72.5397 547.594 73.1432 546.937 73.5869C545.722 74.3423 544.315 74.6657 542.918 74.5107C541.682 74.3907 540.484 73.9905 539.402 73.3366C537.369 72.1241 536.167 70.1287 536.042 68.3644C535.963 67.6893 536.01 67.0041 536.181 66.3488C536.351 65.6934 536.641 65.081 537.034 64.547C537.238 64.2776 537.475 64.0401 537.74 63.8413L538.021 63.6552C537.667 63.9173 537.351 64.2328 537.082 64.5919C536.332 65.6526 535.995 66.9846 536.143 68.3067C536.287 70.0133 537.471 71.9572 539.468 73.1313C540.529 73.7618 541.703 74.1444 542.912 74.2541C544.267 74.3945 545.629 74.0735 546.805 73.3366C547.428 72.9117 547.95 72.3355 548.328 71.6547C548.706 70.9738 548.93 70.2072 548.982 69.4166C549.028 68.5746 548.818 67.7392 548.384 67.0363C548.172 66.6788 547.893 66.3726 547.564 66.1373C547.236 65.902 546.865 65.7428 546.476 65.6698C546.064 65.628 545.649 65.6814 545.258 65.8263C544.867 65.9713 544.51 66.2045 544.21 66.5102C543.572 67.1406 543.168 67.9976 543.074 68.9226C542.966 69.8783 543.102 70.8474 543.468 71.7263C543.851 72.6274 544.42 73.4237 545.131 74.0552C546.639 75.3598 548.45 76.2002 550.369 76.4868C552.361 76.8486 554.41 76.4778 556.181 75.4346C557.091 74.9011 557.878 74.1576 558.487 73.2578C559.096 72.358 559.512 71.3243 559.703 70.2314C559.858 69.109 559.743 67.9627 559.368 66.9016C558.993 65.8271 558.324 64.8992 557.449 64.239C557.026 63.9007 556.538 63.6675 556.021 63.5565C555.504 63.4456 554.97 63.4595 554.459 63.5975C553.974 63.7839 553.547 64.1129 553.227 64.547C552.905 64.9818 552.673 65.4847 552.545 66.0226C552.424 66.5579 552.398 67.1129 552.468 67.6587C552.551 68.2013 552.721 68.7244 552.97 69.2049C553.486 70.1574 554.195 70.9732 555.045 71.5915C556.715 72.8141 558.647 73.5624 560.66 73.7665C562.589 73.9636 564.534 73.6849 566.347 72.9517C568.083 72.2949 569.615 71.1331 570.772 69.5962C571.307 68.8528 571.641 67.9644 571.734 67.0299C571.789 66.1475 571.561 65.2715 571.088 64.547C570.871 64.1862 570.579 63.8831 570.237 63.6608C569.894 63.4386 569.508 63.3028 569.109 63.2639C568.724 63.2545 568.34 63.3293 567.983 63.4838C567.625 63.6382 567.3 63.8689 567.028 64.1621C566.489 64.7257 566.134 65.4618 566.018 66.26C565.905 67.0279 565.944 67.8125 566.131 68.5633C566.491 69.9691 567.232 71.2285 568.26 72.1818C569.17 73.0433 570.265 73.6495 571.447 73.9461C572.472 74.2234 573.544 74.2234 574.569 73.9461C575.429 73.7131 576.24 73.3082 576.961 72.7528C577.978 71.9883 578.8 70.9627 579.352 69.7695C579.494 69.4607 579.614 69.1412 579.711 68.8135C579.765 68.5633 579.807 68.4542 579.807 68.4542Z" fill="#455A64"/>
<path d="M591.533 81.1319C591.533 81.1319 591.533 81.1704 591.455 81.2281C591.378 81.2859 591.318 81.3693 591.192 81.4655C590.839 81.7504 590.451 81.9815 590.038 82.152C589.383 82.4234 588.683 82.55 587.981 82.5241C587.041 82.4957 586.129 82.1748 585.356 81.6002C584.414 80.9011 583.709 79.8924 583.347 78.726C583.118 78.0768 583.068 77.3708 583.203 76.6922C583.275 76.3166 583.465 75.979 583.742 75.7362C583.894 75.612 584.075 75.5335 584.265 75.5087C584.455 75.4839 584.648 75.5137 584.824 75.5951C585.164 75.7731 585.433 76.0758 585.583 76.4484C585.746 76.8067 585.836 77.1983 585.846 77.5968C585.846 78.8399 585.43 80.0417 584.674 80.9836C583.918 81.9255 582.872 82.545 581.726 82.7294C580.949 82.846 580.156 82.7554 579.419 82.4656C578.682 82.1758 578.022 81.6957 577.499 81.0677C577.247 80.7599 577.063 80.3957 576.959 80.0016C576.856 79.6075 576.836 79.1936 576.901 78.7901C576.957 78.3907 577.128 78.0203 577.391 77.7313C577.654 77.4423 577.995 77.2493 578.366 77.1798C578.717 77.134 579.074 77.1855 579.401 77.3292C579.729 77.4729 580.017 77.7042 580.237 78.001C580.634 78.5512 580.845 79.2299 580.835 79.9257C580.819 80.5475 580.674 81.1577 580.411 81.7123C580.148 82.2669 579.775 82.7523 579.317 83.1336C578.579 83.7779 577.64 84.0968 576.691 84.0254C575.986 83.962 575.308 83.7034 574.724 83.2748C574.358 83.0064 574.04 82.6695 573.785 82.2803C573.693 82.1481 573.616 82.0036 573.558 81.8505C573.89 82.3572 574.308 82.7924 574.79 83.1336C575.363 83.5314 576.022 83.7635 576.703 83.8073C577.604 83.8542 578.488 83.5358 579.179 82.9155C579.595 82.5563 579.934 82.1049 580.172 81.5922C580.411 81.0795 580.543 80.5176 580.56 79.945C580.577 79.3087 580.389 78.6857 580.028 78.1806C579.837 77.9254 579.589 77.7267 579.306 77.6032C579.024 77.4797 578.716 77.4355 578.414 77.4749C578.106 77.5424 577.826 77.7108 577.612 77.9568C577.397 78.2028 577.26 78.5142 577.218 78.8479C577.167 79.2068 577.192 79.5733 577.291 79.9207C577.389 80.268 577.558 80.5875 577.786 80.856C578.276 81.4401 578.892 81.886 579.58 82.1545C580.268 82.4231 581.007 82.5059 581.732 82.3958C582.806 82.2211 583.785 81.6398 584.494 80.7571C585.203 79.8745 585.593 78.7489 585.595 77.584C585.605 77.2434 585.533 76.9059 585.387 76.6037C585.24 76.3015 585.024 76.0448 584.758 75.8581C584.628 75.7963 584.485 75.7732 584.344 75.7913C584.203 75.8093 584.069 75.8679 583.957 75.9608C583.732 76.164 583.576 76.4415 583.514 76.7499C583.388 77.3744 583.431 78.0247 583.64 78.6233C583.979 79.7376 584.641 80.7064 585.529 81.3885C586.264 81.9498 587.134 82.2727 588.035 82.3188C588.717 82.3578 589.4 82.2532 590.044 82.0109C590.575 81.7909 591.076 81.4953 591.533 81.1319Z" fill="#455A64"/>
<path d="M547.217 210.044L597.495 210.974L598.063 247.679L546.021 245.793L547.217 210.044Z" fill="#455A64"/>
<path d="M547.218 210.044L573.241 188.558L597.495 210.975" fill="#263238"/>
<path d="M546.022 245.793C545.956 245.729 550.094 241.122 555.248 235.528C560.403 229.933 564.637 225.404 564.696 225.468C564.756 225.532 560.63 230.139 555.47 235.765C550.309 241.392 546.082 245.857 546.022 245.793Z" fill="#263238"/>
<path d="M598.063 247.679C597.997 247.737 594.182 243.015 589.542 237.132C584.902 231.249 581.2 226.43 581.266 226.373C581.332 226.315 585.141 231.03 589.781 236.92C594.422 242.81 598.129 247.622 598.063 247.679Z" fill="#263238"/>
<path d="M597.495 210.974L571.758 231.948L547.218 210.044" fill="#263238"/>
<path d="M549.705 212.117L549.986 196.424H594.044L594.128 213.605L571.764 231.666L549.705 212.117Z" fill="#EBEBEB"/>
<path d="M560.756 213.708C560.712 213.93 560.604 214.046 560.433 214.054C560.373 214.049 560.316 214.029 560.265 213.996C560.214 213.955 560.174 213.9 560.148 213.837C560.122 213.775 560.111 213.706 560.116 213.637L560.905 207.786C560.899 207.746 560.899 207.705 560.905 207.664C560.925 207.601 560.964 207.546 561.016 207.509C561.068 207.471 561.13 207.454 561.192 207.459C561.245 207.458 561.297 207.473 561.342 207.504C561.391 207.528 561.433 207.567 561.463 207.616C561.492 207.664 561.508 207.721 561.509 207.78C561.031 211.591 560.779 213.567 560.756 213.708Z" fill="#263238"/>
<path d="M566.119 213.772C566.089 213.99 565.982 214.099 565.802 214.099C565.73 214.094 565.661 214.068 565.602 214.024C565.543 213.98 565.497 213.919 565.467 213.849L563.506 208.909C563.506 209.14 563.446 209.403 563.41 209.691C563.123 212.046 562.95 213.393 562.896 213.72C562.842 214.048 562.747 214.067 562.567 214.067C562.507 214.067 562.448 214.047 562.4 214.009C562.347 213.969 562.305 213.914 562.278 213.851C562.251 213.788 562.239 213.719 562.244 213.65C562.759 209.762 563.022 207.811 563.022 207.799C563.032 207.752 563.048 207.707 563.069 207.664C563.099 207.61 563.142 207.566 563.194 207.536C563.246 207.507 563.304 207.493 563.362 207.497C563.427 207.487 563.493 207.498 563.553 207.528C563.612 207.557 563.662 207.605 563.697 207.664L565.647 212.495L566.275 207.856C566.274 207.805 566.287 207.754 566.31 207.709C566.331 207.651 566.368 207.602 566.416 207.568C566.465 207.535 566.522 207.519 566.58 207.523C566.634 207.523 566.688 207.538 566.735 207.568C566.782 207.599 566.82 207.642 566.846 207.694C566.872 207.746 566.886 207.804 566.885 207.863C566.885 207.959 566.855 208.062 566.843 208.171C566.42 211.524 566.179 213.391 566.119 213.772Z" fill="#263238"/>
<path d="M569.037 207.555C569.091 207.556 569.143 207.574 569.187 207.606C569.235 207.635 569.275 207.677 569.303 207.728C569.332 207.778 569.347 207.836 569.348 207.895C569.235 208.813 569.139 209.538 569.079 210.057C568.912 211.372 568.828 212.117 568.822 212.29C568.822 213.008 568.984 213.374 569.33 213.381C569.663 213.371 569.989 213.28 570.284 213.116C570.579 212.951 570.836 212.717 571.035 212.431C571.493 211.815 571.828 211.106 572.021 210.346C571.605 210.343 571.2 210.197 570.867 209.929C570.702 209.781 570.571 209.594 570.484 209.382C570.398 209.171 570.359 208.941 570.371 208.71C570.373 208.537 570.41 208.367 570.48 208.212C570.551 208.056 570.652 207.92 570.778 207.812C570.989 207.611 571.261 207.502 571.543 207.504C571.713 207.5 571.881 207.533 572.039 207.602C572.196 207.67 572.339 207.772 572.458 207.901C572.596 208.057 572.704 208.242 572.774 208.444C572.844 208.645 572.875 208.86 572.864 209.076C572.864 209.185 572.864 209.364 572.829 209.614L573.002 209.563C573.191 209.488 573.371 209.391 573.54 209.274C573.649 209.19 573.777 209.139 573.911 209.127C573.955 209.128 573.999 209.141 574.037 209.165C574.082 209.192 574.12 209.232 574.146 209.281C574.171 209.33 574.183 209.385 574.18 209.441C574.18 209.621 574.042 209.788 573.779 209.948C573.439 210.148 573.065 210.274 572.679 210.32C572.467 211.219 572.087 212.062 571.561 212.797C571.298 213.209 570.945 213.547 570.534 213.781C570.123 214.016 569.665 214.14 569.199 214.144C569.081 214.143 568.964 214.121 568.852 214.08C568.398 213.887 568.176 213.31 568.188 212.354C568.209 211.676 568.275 211.001 568.386 210.333C568.511 209.499 568.595 208.922 568.619 208.594C568.356 208.774 568.147 208.909 568.021 209.005C567.881 209.12 567.726 209.211 567.561 209.274C567.499 209.274 567.438 209.254 567.387 209.217C567.34 209.186 567.302 209.142 567.276 209.09C567.25 209.039 567.237 208.98 567.238 208.922C567.243 208.854 567.264 208.789 567.298 208.732C567.333 208.675 567.38 208.628 567.435 208.594H567.465C567.961 208.201 568.487 207.853 569.037 207.555ZM571.011 208.838C571.01 208.968 571.039 209.095 571.095 209.21C571.256 209.531 571.615 209.691 572.177 209.698C572.217 209.487 572.239 209.272 572.243 209.056C572.248 208.932 572.232 208.808 572.195 208.691C572.168 208.558 572.099 208.44 572 208.357C571.9 208.274 571.777 208.231 571.651 208.235C571.523 208.234 571.398 208.267 571.286 208.331C571.199 208.378 571.126 208.45 571.074 208.538C571.023 208.626 570.994 208.728 570.993 208.832L571.011 208.838Z" fill="#263238"/>
<path d="M573.983 213.849C573.941 214.08 573.833 214.195 573.666 214.195C573.606 214.197 573.547 214.176 573.498 214.138C573.445 214.098 573.403 214.044 573.375 213.981C573.348 213.918 573.337 213.848 573.343 213.778L574.132 207.934V207.812C574.153 207.748 574.193 207.693 574.246 207.656C574.299 207.618 574.362 207.601 574.425 207.606C574.477 207.606 574.529 207.619 574.575 207.645C574.624 207.669 574.665 207.708 574.693 207.757C574.722 207.806 574.737 207.863 574.736 207.921C574.234 211.74 573.983 213.716 573.983 213.849Z" fill="#263238"/>
<path d="M580.422 208.017C580.421 208.074 580.405 208.13 580.375 208.177C580.341 208.228 580.296 208.268 580.243 208.295C580.191 208.322 580.134 208.334 580.076 208.331H578.282C577.819 211.911 577.578 213.768 577.558 213.9C577.558 213.9 577.558 213.932 577.558 213.951C577.551 214.036 577.513 214.114 577.452 214.169C577.392 214.224 577.314 214.252 577.235 214.247C577.175 214.248 577.116 214.228 577.068 214.189C577.017 214.148 576.976 214.093 576.95 214.03C576.923 213.967 576.913 213.898 576.918 213.83C576.918 213.83 577.092 212.501 577.433 209.98C577.552 209.114 577.624 208.575 577.654 208.344H575.962C575.901 208.34 575.841 208.329 575.782 208.312C575.723 208.297 575.671 208.261 575.634 208.21C575.597 208.158 575.577 208.095 575.579 208.03C575.58 207.964 575.596 207.9 575.627 207.844C575.658 207.79 575.703 207.747 575.755 207.719C575.808 207.69 575.867 207.678 575.926 207.683L580.112 207.728C580.151 207.72 580.192 207.72 580.231 207.728C580.286 207.751 580.333 207.79 580.367 207.842C580.401 207.893 580.421 207.954 580.422 208.017Z" fill="#263238"/>
<path d="M581.314 207.677L583.855 207.709C583.905 207.702 583.955 207.702 584.005 207.709C584.07 207.73 584.127 207.774 584.165 207.835C584.204 207.896 584.221 207.97 584.214 208.043C584.222 208.085 584.222 208.129 584.214 208.171C584.182 208.234 584.136 208.287 584.079 208.326C584.022 208.364 583.958 208.386 583.891 208.389H581.607L581.302 210.705H582.946C583.008 210.706 583.069 210.719 583.126 210.744C583.184 210.769 583.233 210.814 583.267 210.872C583.3 210.929 583.316 210.997 583.311 211.065C583.317 211.103 583.317 211.142 583.311 211.18C583.28 211.246 583.234 211.302 583.176 211.341C583.118 211.381 583.051 211.403 582.982 211.405H581.236L580.949 213.573H583.209C583.267 213.571 583.324 213.582 583.377 213.605C583.439 213.628 583.492 213.671 583.529 213.729C583.565 213.787 583.583 213.856 583.58 213.926C583.586 213.962 583.586 213.999 583.58 214.035C583.553 214.105 583.507 214.165 583.449 214.207C583.39 214.249 583.322 214.272 583.251 214.272H580.614C580.551 214.272 580.489 214.255 580.435 214.221C580.384 214.179 580.343 214.125 580.317 214.062C580.291 213.999 580.28 213.93 580.285 213.862C580.285 213.823 580.538 211.873 581.045 208.011C581.049 207.97 581.061 207.931 581.08 207.895C581.097 207.839 581.128 207.79 581.169 207.751C581.21 207.713 581.26 207.687 581.314 207.677Z" fill="#263238"/>
<path d="M546.775 223.261C546.775 223.261 546.022 231.415 547.863 231.377C551.081 231.319 563.411 227.919 564.278 230.466C565.145 233.013 561.126 235.4 561.126 235.4C561.126 235.4 565.061 236.195 563.124 238.396C561.186 240.596 554.579 251.439 550.327 251.664C544.216 251.984 536.341 249.771 536.341 249.771L539.558 225.879L546.775 223.261Z" fill="#FFBE9D"/>
<path d="M562.622 234.193C562.46 234.346 562.284 234.48 562.095 234.591C561.749 234.835 561.234 235.156 560.589 235.534C557.201 237.498 553.55 238.888 549.765 239.653C549.042 239.801 548.45 239.897 548.043 239.942C547.832 239.984 547.618 239.999 547.403 239.987C547.403 239.935 548.294 239.769 549.723 239.422C553.452 238.526 557.066 237.149 560.487 235.322C561.802 234.63 562.622 234.148 562.622 234.193Z" fill="#EB996E"/>
<path d="M562.28 239.948C562.158 240.135 562.013 240.303 561.85 240.449C561.43 240.883 560.989 241.292 560.528 241.674C557.477 244.226 553.861 245.884 550.034 246.486C549.459 246.581 548.88 246.641 548.3 246.666C548.087 246.694 547.872 246.694 547.66 246.666C547.66 246.608 548.563 246.537 549.998 246.262C553.756 245.537 557.311 243.907 560.397 241.495C561.575 240.564 562.244 239.904 562.28 239.948Z" fill="#EB996E"/>
<path d="M597.68 223.075C597.68 223.075 598.367 229.882 595.958 230.774C592.92 231.922 580.41 227.316 579.537 229.856C578.664 232.397 582.695 234.796 582.695 234.796C582.695 234.796 578.754 235.592 580.691 237.793C582.629 239.993 589.236 250.829 593.488 251.054C597.68 251.193 601.875 250.884 606.009 250.13L604.257 225.275L597.68 223.075Z" fill="#FFBE9D"/>
<path d="M581.2 233.61C581.2 233.565 582.02 234.039 583.329 234.739C586.75 236.566 590.364 237.942 594.093 238.838C595.528 239.185 596.425 239.345 596.413 239.403C596.199 239.415 595.984 239.4 595.773 239.358C595.366 239.307 594.774 239.211 594.051 239.069C590.269 238.296 586.619 236.907 583.228 234.951C582.582 234.572 582.067 234.251 581.721 234.007C581.532 233.9 581.357 233.766 581.2 233.61Z" fill="#EB996E"/>
<path d="M581.888 239.365C581.924 239.32 582.582 239.961 583.73 240.879C585.217 242.073 586.821 243.091 588.514 243.913C590.219 244.722 592.007 245.312 593.842 245.671C595.253 245.947 596.138 246.011 596.138 246.069C595.939 246.096 595.738 246.096 595.54 246.069C594.969 246.047 594.4 245.989 593.836 245.896C591.967 245.597 590.145 245.029 588.418 244.208C586.696 243.38 585.079 242.322 583.604 241.058C583.042 240.564 582.606 240.154 582.319 239.846C582.158 239.704 582.014 239.543 581.888 239.365Z" fill="#EB996E"/>
<path d="M472.041 191.868C470.317 192.091 468.574 192.091 466.851 191.868C468.574 191.646 470.317 191.646 472.041 191.868Z" fill="#455A64"/>
<path d="M474.798 183.014C475.005 185.209 475.005 187.421 474.798 189.616C474.59 187.421 474.59 185.209 474.798 183.014Z" fill="#455A64"/>
<path d="M477.71 191.657C479.434 191.434 481.176 191.434 482.9 191.657C481.176 191.879 479.434 191.879 477.71 191.657Z" fill="#455A64"/>
<path d="M474.978 200.51C474.77 198.313 474.77 196.099 474.978 193.902C475.185 196.099 475.185 198.313 474.978 200.51Z" fill="#455A64"/>
<path d="M479.175 196.712C479.103 196.764 478.63 196.186 478.122 195.429C477.771 194.994 477.501 194.491 477.327 193.947C477.399 193.896 477.865 194.467 478.379 195.23C478.729 195.666 478.999 196.169 479.175 196.712Z" fill="#455A64"/>
<path d="M478.906 186.671C478.971 186.729 478.595 187.313 478.068 187.993C477.542 188.673 477.058 189.154 476.992 189.097C476.926 189.039 477.303 188.455 477.829 187.775C478.355 187.095 478.864 186.614 478.906 186.671Z" fill="#455A64"/>
<path d="M472.98 189.231C472.921 189.295 472.466 188.923 471.958 188.397C471.45 187.871 471.097 187.39 471.157 187.326C471.216 187.262 471.677 187.634 472.179 188.16C472.681 188.686 473.04 189.161 472.98 189.231Z" fill="#455A64"/>
<path d="M472.747 193.652C472.813 193.71 472.484 194.293 471.999 194.935C471.515 195.577 471.079 196.083 471.007 196.026C471.171 195.548 471.426 195.111 471.754 194.742C472.233 194.088 472.681 193.594 472.747 193.652Z" fill="#455A64"/>
<path d="M640.5 160.424C639.354 160.647 638.179 160.647 637.032 160.424C638.179 160.202 639.354 160.202 640.5 160.424Z" fill="#455A64"/>
<path d="M642.349 155.356C642.556 156.606 642.556 157.885 642.349 159.135C642.141 157.885 642.141 156.606 642.349 155.356Z" fill="#455A64"/>
<path d="M644.31 160.303C645.458 160.08 646.635 160.08 647.784 160.303C646.635 160.525 645.458 160.525 644.31 160.303Z" fill="#455A64"/>
<path d="M642.467 165.365C642.26 164.115 642.26 162.836 642.467 161.586C642.675 162.836 642.675 164.115 642.467 165.365Z" fill="#455A64"/>
<path d="M645.273 163.196C645.207 163.254 644.878 162.946 644.537 162.51C644.197 162.073 643.975 161.669 644.041 161.611C644.107 161.554 644.436 161.855 644.777 162.291C645.117 162.728 645.339 163.138 645.273 163.196Z" fill="#455A64"/>
<path d="M645.141 157.448C645.201 157.512 644.962 157.877 644.609 158.262C644.256 158.647 643.921 158.904 643.861 158.833C643.802 158.763 644.035 158.41 644.388 158.025C644.74 157.64 645.051 157.383 645.141 157.448Z" fill="#455A64"/>
<path d="M641.128 158.91C641.074 158.981 640.757 158.795 640.423 158.5C640.088 158.205 639.855 157.897 639.908 157.826C639.962 157.755 640.285 157.941 640.62 158.237C640.955 158.532 641.188 158.859 641.128 158.91Z" fill="#455A64"/>
<path d="M640.955 161.425C641.021 161.49 640.812 161.842 640.489 162.221C640.166 162.599 639.855 162.862 639.795 162.798C639.735 162.734 639.939 162.375 640.261 161.996C640.584 161.618 640.913 161.38 640.955 161.425Z" fill="#455A64"/>
<path d="M665.023 156.094L665.19 156.536C665.492 157.302 666.064 157.909 666.781 158.224L667.223 158.416L666.799 158.602C666.438 158.759 666.11 158.992 665.835 159.288C665.56 159.583 665.342 159.935 665.196 160.322L665.077 160.643L664.897 160.238C664.568 159.507 663.987 158.941 663.277 158.66L662.888 158.513L663.396 158.249C664.034 157.918 664.536 157.347 664.808 156.646L665.023 156.094Z" fill="#455A64"/>
<path d="M498.172 164.171L498.34 164.608C498.487 164.987 498.702 165.332 498.974 165.621C499.246 165.911 499.569 166.14 499.924 166.295L500.373 166.487L499.942 166.674C499.583 166.832 499.256 167.065 498.982 167.361C498.708 167.656 498.492 168.007 498.346 168.393L498.226 168.714L498.047 168.31C497.719 167.578 497.137 167.014 496.426 166.738L496.037 166.584L496.546 166.321C497.18 165.986 497.681 165.416 497.957 164.717L498.172 164.171Z" fill="#455A64"/>
<path d="M476.998 225.532L477.082 225.75C477.233 226.134 477.519 226.438 477.877 226.597L478.099 226.693L477.883 226.783C477.703 226.862 477.54 226.979 477.402 227.126C477.265 227.274 477.156 227.45 477.082 227.643L477.022 227.803L476.933 227.604C476.769 227.239 476.48 226.956 476.125 226.815L475.928 226.738L476.185 226.61C476.502 226.441 476.752 226.157 476.891 225.808L476.998 225.532Z" fill="#455A64"/>
<path d="M621.964 137.097L622.131 137.533C622.278 137.913 622.494 138.257 622.766 138.547C623.038 138.836 623.361 139.065 623.716 139.22L624.164 139.413L623.734 139.599C623.374 139.757 623.048 139.991 622.774 140.286C622.5 140.581 622.283 140.932 622.137 141.318L622.017 141.639L621.838 141.235C621.51 140.503 620.929 139.939 620.218 139.663L619.829 139.509L620.337 139.246C620.973 138.913 621.475 138.343 621.748 137.642L621.964 137.097Z" fill="#455A64"/>
<path d="M66.584 85.908C69.32 85.908 71.684 86.424 73.676 87.456C75.692 88.464 77.228 89.916 78.284 91.812C79.364 93.708 79.904 95.94 79.904 98.508C79.904 101.076 79.364 103.308 78.284 105.204C77.228 107.076 75.692 108.516 73.676 109.524C71.684 110.508 69.32 111 66.584 111H58.772V85.908H66.584ZM66.584 108.3C69.824 108.3 72.296 107.448 74 105.744C75.704 104.016 76.556 101.604 76.556 98.508C76.556 95.388 75.692 92.952 73.964 91.2C72.26 89.448 69.8 88.572 66.584 88.572H62.048V108.3H66.584ZM83.0011 101.064C83.0011 99.048 83.4091 97.284 84.2251 95.772C85.0411 94.236 86.1571 93.048 87.5731 92.208C89.0131 91.368 90.6091 90.948 92.3611 90.948C94.0891 90.948 95.5891 91.32 96.8611 92.064C98.1331 92.808 99.0811 93.744 99.7051 94.872V91.272H103.017V111H99.7051V107.328C99.0571 108.48 98.0851 109.44 96.7891 110.208C95.5171 110.952 94.0291 111.324 92.3251 111.324C90.5731 111.324 88.9891 110.892 87.5731 110.028C86.1571 109.164 85.0411 107.952 84.2251 106.392C83.4091 104.832 83.0011 103.056 83.0011 101.064ZM99.7051 101.1C99.7051 99.612 99.4051 98.316 98.8051 97.212C98.2051 96.108 97.3891 95.268 96.3571 94.692C95.3491 94.092 94.2331 93.792 93.0091 93.792C91.7851 93.792 90.6691 94.08 89.6611 94.656C88.6531 95.232 87.8491 96.072 87.2491 97.176C86.6491 98.28 86.3491 99.576 86.3491 101.064C86.3491 102.576 86.6491 103.896 87.2491 105.024C87.8491 106.128 88.6531 106.98 89.6611 107.58C90.6691 108.156 91.7851 108.444 93.0091 108.444C94.2331 108.444 95.3491 108.156 96.3571 107.58C97.3891 106.98 98.2051 106.128 98.8051 105.024C99.4051 103.896 99.7051 102.588 99.7051 101.1ZM116.581 93.972H112.441V111H109.165V93.972H106.609V91.272H109.165V89.868C109.165 87.66 109.729 86.052 110.857 85.044C112.009 84.012 113.845 83.496 116.365 83.496V86.232C114.925 86.232 113.905 86.52 113.305 87.096C112.729 87.648 112.441 88.572 112.441 89.868V91.272H116.581V93.972ZM124.397 93.972V105.6C124.397 106.56 124.601 107.244 125.009 107.652C125.417 108.036 126.125 108.228 127.133 108.228H129.545V111H126.593C124.769 111 123.401 110.58 122.489 109.74C121.577 108.9 121.121 107.52 121.121 105.6V93.972H118.565V91.272H121.121V86.304H124.397V91.272H129.545V93.972H124.397ZM132.29 101.064C132.29 99.048 132.698 97.284 133.514 95.772C134.33 94.236 135.446 93.048 136.862 92.208C138.302 91.368 139.898 90.948 141.65 90.948C143.378 90.948 144.878 91.32 146.15 92.064C147.422 92.808 148.37 93.744 148.994 94.872V91.272H152.306V111H148.994V107.328C148.346 108.48 147.374 109.44 146.078 110.208C144.806 110.952 143.318 111.324 141.614 111.324C139.862 111.324 138.278 110.892 136.862 110.028C135.446 109.164 134.33 107.952 133.514 106.392C132.698 104.832 132.29 103.056 132.29 101.064ZM148.994 101.1C148.994 99.612 148.694 98.316 148.094 97.212C147.494 96.108 146.678 95.268 145.646 94.692C144.638 94.092 143.522 93.792 142.298 93.792C141.074 93.792 139.958 94.08 138.95 94.656C137.942 95.232 137.138 96.072 136.538 97.176C135.938 98.28 135.638 99.576 135.638 101.064C135.638 102.576 135.938 103.896 136.538 105.024C137.138 106.128 137.942 106.98 138.95 107.58C139.958 108.156 141.074 108.444 142.298 108.444C143.522 108.444 144.638 108.156 145.646 107.58C146.678 106.98 147.494 106.128 148.094 105.024C148.694 103.896 148.994 102.588 148.994 101.1ZM161.118 94.476C161.694 93.348 162.51 92.472 163.566 91.848C164.646 91.224 165.954 90.912 167.49 90.912V94.296H166.626C162.954 94.296 161.118 96.288 161.118 100.272V111H157.842V91.272H161.118V94.476ZM182.288 111L174.548 102.288V111H171.272V84.36H174.548V100.02L182.144 91.272H186.716L177.428 101.1L186.752 111H182.288ZM188.575 101.064C188.575 99.048 188.983 97.284 189.799 95.772C190.615 94.236 191.731 93.048 193.147 92.208C194.587 91.368 196.183 90.948 197.935 90.948C199.663 90.948 201.163 91.32 202.435 92.064C203.707 92.808 204.655 93.744 205.279 94.872V91.272H208.591V111H205.279V107.328C204.631 108.48 203.659 109.44 202.363 110.208C201.091 110.952 199.603 111.324 197.899 111.324C196.147 111.324 194.563 110.892 193.147 110.028C191.731 109.164 190.615 107.952 189.799 106.392C188.983 104.832 188.575 103.056 188.575 101.064ZM205.279 101.1C205.279 99.612 204.979 98.316 204.379 97.212C203.779 96.108 202.963 95.268 201.931 94.692C200.923 94.092 199.807 93.792 198.583 93.792C197.359 93.792 196.243 94.08 195.235 94.656C194.227 95.232 193.423 96.072 192.823 97.176C192.223 98.28 191.923 99.576 191.923 101.064C191.923 102.576 192.223 103.896 192.823 105.024C193.423 106.128 194.227 106.98 195.235 107.58C196.243 108.156 197.359 108.444 198.583 108.444C199.807 108.444 200.923 108.156 201.931 107.58C202.963 106.98 203.779 106.128 204.379 105.024C204.979 103.896 205.279 102.588 205.279 101.1ZM223.739 90.912C226.139 90.912 228.083 91.644 229.571 93.108C231.059 94.548 231.803 96.636 231.803 99.372V111H228.563V99.84C228.563 97.872 228.071 96.372 227.087 95.34C226.103 94.284 224.759 93.756 223.055 93.756C221.327 93.756 219.947 94.296 218.915 95.376C217.907 96.456 217.403 98.028 217.403 100.092V111H214.127V91.272H217.403V94.08C218.051 93.072 218.927 92.292 220.031 91.74C221.159 91.188 222.395 90.912 223.739 90.912ZM259.316 98.076C260.228 98.22 261.056 98.592 261.8 99.192C262.568 99.792 263.168 100.536 263.6 101.424C264.056 102.312 264.284 103.26 264.284 104.268C264.284 105.54 263.96 106.692 263.312 107.724C262.664 108.732 261.716 109.536 260.468 110.136C259.244 110.712 257.792 111 256.112 111H246.752V85.908H255.752C257.456 85.908 258.908 86.196 260.108 86.772C261.308 87.324 262.208 88.08 262.808 89.04C263.408 90 263.708 91.08 263.708 92.28C263.708 93.768 263.3 95.004 262.484 95.988C261.692 96.948 260.636 97.644 259.316 98.076ZM250.028 96.744H255.536C257.072 96.744 258.26 96.384 259.1 95.664C259.94 94.944 260.36 93.948 260.36 92.676C260.36 91.404 259.94 90.408 259.1 89.688C258.26 88.968 257.048 88.608 255.464 88.608H250.028V96.744ZM255.824 108.3C257.456 108.3 258.728 107.916 259.64 107.148C260.552 106.38 261.008 105.312 261.008 103.944C261.008 102.552 260.528 101.46 259.568 100.668C258.608 99.852 257.324 99.444 255.716 99.444H250.028V108.3H255.824ZM267.607 101.064C267.607 99.048 268.015 97.284 268.831 95.772C269.647 94.236 270.763 93.048 272.179 92.208C273.619 91.368 275.215 90.948 276.967 90.948C278.695 90.948 280.195 91.32 281.467 92.064C282.739 92.808 283.687 93.744 284.311 94.872V91.272H287.623V111H284.311V107.328C283.663 108.48 282.691 109.44 281.395 110.208C280.123 110.952 278.635 111.324 276.931 111.324C275.179 111.324 273.595 110.892 272.179 110.028C270.763 109.164 269.647 107.952 268.831 106.392C268.015 104.832 267.607 103.056 267.607 101.064ZM284.311 101.1C284.311 99.612 284.011 98.316 283.411 97.212C282.811 96.108 281.995 95.268 280.963 94.692C279.955 94.092 278.839 93.792 277.615 93.792C276.391 93.792 275.275 94.08 274.267 94.656C273.259 95.232 272.455 96.072 271.855 97.176C271.255 98.28 270.955 99.576 270.955 101.064C270.955 102.576 271.255 103.896 271.855 105.024C272.455 106.128 273.259 106.98 274.267 107.58C275.275 108.156 276.391 108.444 277.615 108.444C278.839 108.444 279.955 108.156 280.963 107.58C281.995 106.98 282.811 106.128 283.411 105.024C284.011 103.896 284.311 102.588 284.311 101.1ZM296.435 94.476C297.011 93.348 297.827 92.472 298.883 91.848C299.963 91.224 301.271 90.912 302.807 90.912V94.296H301.943C298.271 94.296 296.435 96.288 296.435 100.272V111H293.159V91.272H296.435V94.476ZM305.364 101.064C305.364 99.048 305.772 97.284 306.588 95.772C307.404 94.236 308.52 93.048 309.936 92.208C311.376 91.368 312.972 90.948 314.724 90.948C316.452 90.948 317.952 91.32 319.224 92.064C320.496 92.808 321.444 93.744 322.068 94.872V91.272H325.38V111H322.068V107.328C321.42 108.48 320.448 109.44 319.152 110.208C317.88 110.952 316.392 111.324 314.688 111.324C312.936 111.324 311.352 110.892 309.936 110.028C308.52 109.164 307.404 107.952 306.588 106.392C305.772 104.832 305.364 103.056 305.364 101.064ZM322.068 101.1C322.068 99.612 321.768 98.316 321.168 97.212C320.568 96.108 319.752 95.268 318.72 94.692C317.712 94.092 316.596 93.792 315.372 93.792C314.148 93.792 313.032 94.08 312.024 94.656C311.016 95.232 310.212 96.072 309.612 97.176C309.012 98.28 308.712 99.576 308.712 101.064C308.712 102.576 309.012 103.896 309.612 105.024C310.212 106.128 311.016 106.98 312.024 107.58C313.032 108.156 314.148 108.444 315.372 108.444C316.596 108.444 317.712 108.156 318.72 107.58C319.752 106.98 320.568 106.128 321.168 105.024C321.768 103.896 322.068 102.588 322.068 101.1ZM340.529 90.912C342.929 90.912 344.873 91.644 346.361 93.108C347.849 94.548 348.593 96.636 348.593 99.372V111H345.353V99.84C345.353 97.872 344.861 96.372 343.877 95.34C342.893 94.284 341.549 93.756 339.845 93.756C338.117 93.756 336.737 94.296 335.705 95.376C334.697 96.456 334.193 98.028 334.193 100.092V111H330.917V91.272H334.193V94.08C334.841 93.072 335.717 92.292 336.821 91.74C337.949 91.188 339.185 90.912 340.529 90.912ZM362.08 90.948C363.784 90.948 365.272 91.32 366.544 92.064C367.84 92.808 368.8 93.744 369.424 94.872V91.272H372.736V111.432C372.736 113.232 372.352 114.828 371.584 116.22C370.816 117.636 369.712 118.74 368.272 119.532C366.856 120.324 365.2 120.72 363.304 120.72C360.712 120.72 358.552 120.108 356.824 118.884C355.096 117.66 354.076 115.992 353.764 113.88H357.004C357.364 115.08 358.108 116.04 359.236 116.76C360.364 117.504 361.72 117.876 363.304 117.876C365.104 117.876 366.568 117.312 367.696 116.184C368.848 115.056 369.424 113.472 369.424 111.432V107.292C368.776 108.444 367.816 109.404 366.544 110.172C365.272 110.94 363.784 111.324 362.08 111.324C360.328 111.324 358.732 110.892 357.292 110.028C355.876 109.164 354.76 107.952 353.944 106.392C353.128 104.832 352.72 103.056 352.72 101.064C352.72 99.048 353.128 97.284 353.944 95.772C354.76 94.236 355.876 93.048 357.292 92.208C358.732 91.368 360.328 90.948 362.08 90.948ZM369.424 101.1C369.424 99.612 369.124 98.316 368.524 97.212C367.924 96.108 367.108 95.268 366.076 94.692C365.068 94.092 363.952 93.792 362.728 93.792C361.504 93.792 360.388 94.08 359.38 94.656C358.372 95.232 357.568 96.072 356.968 97.176C356.368 98.28 356.068 99.576 356.068 101.064C356.068 102.576 356.368 103.896 356.968 105.024C357.568 106.128 358.372 106.98 359.38 107.58C360.388 108.156 361.504 108.444 362.728 108.444C363.952 108.444 365.068 108.156 366.076 107.58C367.108 106.98 367.924 106.128 368.524 105.024C369.124 103.896 369.424 102.588 369.424 101.1ZM73.604 159.42H62.66L60.644 165H57.188L66.26 140.052H70.04L79.076 165H75.62L73.604 159.42ZM72.668 156.756L68.132 144.084L63.596 156.756H72.668ZM92.6418 144.912C95.0418 144.912 96.9858 145.644 98.4738 147.108C99.9618 148.548 100.706 150.636 100.706 153.372V165H97.4658V153.84C97.4658 151.872 96.9738 150.372 95.9898 149.34C95.0058 148.284 93.6618 147.756 91.9578 147.756C90.2298 147.756 88.8498 148.296 87.8178 149.376C86.8098 150.456 86.3058 152.028 86.3058 154.092V165H83.0298V145.272H86.3058V148.08C86.9538 147.072 87.8298 146.292 88.9338 145.74C90.0618 145.188 91.2978 144.912 92.6418 144.912ZM104.833 155.064C104.833 153.048 105.241 151.284 106.057 149.772C106.873 148.236 107.989 147.048 109.405 146.208C110.845 145.368 112.453 144.948 114.229 144.948C115.765 144.948 117.193 145.308 118.513 146.028C119.833 146.724 120.841 147.648 121.537 148.8V138.36H124.849V165H121.537V161.292C120.889 162.468 119.929 163.44 118.657 164.208C117.385 164.952 115.897 165.324 114.193 165.324C112.441 165.324 110.845 164.892 109.405 164.028C107.989 163.164 106.873 161.952 106.057 160.392C105.241 158.832 104.833 157.056 104.833 155.064ZM121.537 155.1C121.537 153.612 121.237 152.316 120.637 151.212C120.037 150.108 119.221 149.268 118.189 148.692C117.181 148.092 116.065 147.792 114.841 147.792C113.617 147.792 112.501 148.08 111.493 148.656C110.485 149.232 109.681 150.072 109.081 151.176C108.481 152.28 108.181 153.576 108.181 155.064C108.181 156.576 108.481 157.896 109.081 159.024C109.681 160.128 110.485 160.98 111.493 161.58C112.501 162.156 113.617 162.444 114.841 162.444C116.065 162.444 117.181 162.156 118.189 161.58C119.221 160.98 120.037 160.128 120.637 159.024C121.237 157.896 121.537 156.588 121.537 155.1ZM129.161 155.064C129.161 153.048 129.569 151.284 130.385 149.772C131.201 148.236 132.317 147.048 133.733 146.208C135.173 145.368 136.769 144.948 138.521 144.948C140.249 144.948 141.749 145.32 143.021 146.064C144.293 146.808 145.241 147.744 145.865 148.872V145.272H149.177V165H145.865V161.328C145.217 162.48 144.245 163.44 142.949 164.208C141.677 164.952 140.189 165.324 138.485 165.324C136.733 165.324 135.149 164.892 133.733 164.028C132.317 163.164 131.201 161.952 130.385 160.392C129.569 158.832 129.161 157.056 129.161 155.064ZM145.865 155.1C145.865 153.612 145.565 152.316 144.965 151.212C144.365 150.108 143.549 149.268 142.517 148.692C141.509 148.092 140.393 147.792 139.169 147.792C137.945 147.792 136.829 148.08 135.821 148.656C134.813 149.232 134.009 150.072 133.409 151.176C132.809 152.28 132.509 153.576 132.509 155.064C132.509 156.576 132.809 157.896 133.409 159.024C134.009 160.128 134.813 160.98 135.821 161.58C136.829 162.156 137.945 162.444 139.169 162.444C140.393 162.444 141.509 162.156 142.517 161.58C143.549 160.98 144.365 160.128 144.965 159.024C145.565 157.896 145.865 156.588 145.865 155.1ZM163.087 155.064C163.087 153.048 163.495 151.284 164.311 149.772C165.127 148.236 166.243 147.048 167.659 146.208C169.099 145.368 170.707 144.948 172.483 144.948C174.019 144.948 175.447 145.308 176.767 146.028C178.087 146.724 179.095 147.648 179.791 148.8V138.36H183.103V165H179.791V161.292C179.143 162.468 178.183 163.44 176.911 164.208C175.639 164.952 174.151 165.324 172.447 165.324C170.695 165.324 169.099 164.892 167.659 164.028C166.243 163.164 165.127 161.952 164.311 160.392C163.495 158.832 163.087 157.056 163.087 155.064ZM179.791 155.1C179.791 153.612 179.491 152.316 178.891 151.212C178.291 150.108 177.475 149.268 176.443 148.692C175.435 148.092 174.319 147.792 173.095 147.792C171.871 147.792 170.755 148.08 169.747 148.656C168.739 149.232 167.935 150.072 167.335 151.176C166.735 152.28 166.435 153.576 166.435 155.064C166.435 156.576 166.735 157.896 167.335 159.024C167.935 160.128 168.739 160.98 169.747 161.58C170.755 162.156 171.871 162.444 173.095 162.444C174.319 162.444 175.435 162.156 176.443 161.58C177.475 160.98 178.291 160.128 178.891 159.024C179.491 157.896 179.791 156.588 179.791 155.1ZM187.415 155.064C187.415 153.048 187.823 151.284 188.639 149.772C189.455 148.236 190.571 147.048 191.987 146.208C193.427 145.368 195.023 144.948 196.775 144.948C198.503 144.948 200.003 145.32 201.275 146.064C202.547 146.808 203.495 147.744 204.119 148.872V145.272H207.431V165H204.119V161.328C203.471 162.48 202.499 163.44 201.203 164.208C199.931 164.952 198.443 165.324 196.739 165.324C194.987 165.324 193.403 164.892 191.987 164.028C190.571 163.164 189.455 161.952 188.639 160.392C187.823 158.832 187.415 157.056 187.415 155.064ZM204.119 155.1C204.119 153.612 203.819 152.316 203.219 151.212C202.619 150.108 201.803 149.268 200.771 148.692C199.763 148.092 198.647 147.792 197.423 147.792C196.199 147.792 195.083 148.08 194.075 148.656C193.067 149.232 192.263 150.072 191.663 151.176C191.063 152.28 190.763 153.576 190.763 155.064C190.763 156.576 191.063 157.896 191.663 159.024C192.263 160.128 193.067 160.98 194.075 161.58C195.083 162.156 196.199 162.444 197.423 162.444C198.647 162.444 199.763 162.156 200.771 161.58C201.803 160.98 202.619 160.128 203.219 159.024C203.819 157.896 204.119 156.588 204.119 155.1ZM222.579 144.912C224.979 144.912 226.923 145.644 228.411 147.108C229.899 148.548 230.643 150.636 230.643 153.372V165H227.403V153.84C227.403 151.872 226.911 150.372 225.927 149.34C224.943 148.284 223.599 147.756 221.895 147.756C220.167 147.756 218.787 148.296 217.755 149.376C216.747 150.456 216.243 152.028 216.243 154.092V165H212.967V145.272H216.243V148.08C216.891 147.072 217.767 146.292 218.871 145.74C219.999 145.188 221.235 144.912 222.579 144.912ZM253.404 139.908C256.14 139.908 258.504 140.424 260.496 141.456C262.512 142.464 264.048 143.916 265.104 145.812C266.184 147.708 266.724 149.94 266.724 152.508C266.724 155.076 266.184 157.308 265.104 159.204C264.048 161.076 262.512 162.516 260.496 163.524C258.504 164.508 256.14 165 253.404 165H245.592V139.908H253.404ZM253.404 162.3C256.644 162.3 259.116 161.448 260.82 159.744C262.524 158.016 263.376 155.604 263.376 152.508C263.376 149.388 262.512 146.952 260.784 145.2C259.08 143.448 256.62 142.572 253.404 142.572H248.868V162.3H253.404ZM269.821 155.064C269.821 153.048 270.229 151.284 271.045 149.772C271.861 148.236 272.977 147.048 274.393 146.208C275.833 145.368 277.429 144.948 279.181 144.948C280.909 144.948 282.409 145.32 283.681 146.064C284.953 146.808 285.901 147.744 286.525 148.872V145.272H289.837V165H286.525V161.328C285.877 162.48 284.905 163.44 283.609 164.208C282.337 164.952 280.849 165.324 279.145 165.324C277.393 165.324 275.809 164.892 274.393 164.028C272.977 163.164 271.861 161.952 271.045 160.392C270.229 158.832 269.821 157.056 269.821 155.064ZM286.525 155.1C286.525 153.612 286.225 152.316 285.625 151.212C285.025 150.108 284.209 149.268 283.177 148.692C282.169 148.092 281.053 147.792 279.829 147.792C278.605 147.792 277.489 148.08 276.481 148.656C275.473 149.232 274.669 150.072 274.069 151.176C273.469 152.28 273.169 153.576 273.169 155.064C273.169 156.576 273.469 157.896 274.069 159.024C274.669 160.128 275.473 160.98 276.481 161.58C277.489 162.156 278.605 162.444 279.829 162.444C281.053 162.444 282.169 162.156 283.177 161.58C284.209 160.98 285.025 160.128 285.625 159.024C286.225 157.896 286.525 156.588 286.525 155.1ZM298.65 148.908C299.298 147.78 300.258 146.844 301.53 146.1C302.826 145.332 304.326 144.948 306.03 144.948C307.782 144.948 309.366 145.368 310.782 146.208C312.222 147.048 313.35 148.236 314.166 149.772C314.982 151.284 315.39 153.048 315.39 155.064C315.39 157.056 314.982 158.832 314.166 160.392C313.35 161.952 312.222 163.164 310.782 164.028C309.366 164.892 307.782 165.324 306.03 165.324C304.35 165.324 302.862 164.952 301.566 164.208C300.294 163.44 299.322 162.492 298.65 161.364V174.36H295.374V145.272H298.65V148.908ZM312.042 155.064C312.042 153.576 311.742 152.28 311.142 151.176C310.542 150.072 309.726 149.232 308.694 148.656C307.686 148.08 306.57 147.792 305.346 147.792C304.146 147.792 303.03 148.092 301.998 148.692C300.99 149.268 300.174 150.12 299.55 151.248C298.95 152.352 298.65 153.636 298.65 155.1C298.65 156.588 298.95 157.896 299.55 159.024C300.174 160.128 300.99 160.98 301.998 161.58C303.03 162.156 304.146 162.444 305.346 162.444C306.57 162.444 307.686 162.156 308.694 161.58C309.726 160.98 310.542 160.128 311.142 159.024C311.742 157.896 312.042 156.576 312.042 155.064ZM318.478 155.064C318.478 153.048 318.886 151.284 319.702 149.772C320.518 148.236 321.634 147.048 323.05 146.208C324.49 145.368 326.086 144.948 327.838 144.948C329.566 144.948 331.066 145.32 332.338 146.064C333.61 146.808 334.558 147.744 335.182 148.872V145.272H338.494V165H335.182V161.328C334.534 162.48 333.562 163.44 332.266 164.208C330.994 164.952 329.506 165.324 327.802 165.324C326.05 165.324 324.466 164.892 323.05 164.028C321.634 163.164 320.518 161.952 319.702 160.392C318.886 158.832 318.478 157.056 318.478 155.064ZM335.182 155.1C335.182 153.612 334.882 152.316 334.282 151.212C333.682 150.108 332.866 149.268 331.834 148.692C330.826 148.092 329.71 147.792 328.486 147.792C327.262 147.792 326.146 148.08 325.138 148.656C324.13 149.232 323.326 150.072 322.726 151.176C322.126 152.28 321.826 153.576 321.826 155.064C321.826 156.576 322.126 157.896 322.726 159.024C323.326 160.128 324.13 160.98 325.138 161.58C326.146 162.156 327.262 162.444 328.486 162.444C329.71 162.444 330.826 162.156 331.834 161.58C332.866 160.98 333.682 160.128 334.282 159.024C334.882 157.896 335.182 156.588 335.182 155.1ZM348.026 147.972V159.6C348.026 160.56 348.23 161.244 348.638 161.652C349.046 162.036 349.754 162.228 350.762 162.228H353.174V165H350.222C348.398 165 347.03 164.58 346.118 163.74C345.206 162.9 344.75 161.52 344.75 159.6V147.972H342.194V145.272H344.75V140.304H348.026V145.272H353.174V147.972H348.026ZM368.159 165L360.419 156.288V165H357.143V138.36H360.419V154.02L368.015 145.272H372.587L363.299 155.1L372.623 165H368.159ZM374.446 155.064C374.446 153.048 374.854 151.284 375.67 149.772C376.486 148.236 377.602 147.048 379.018 146.208C380.458 145.368 382.054 144.948 383.806 144.948C385.534 144.948 387.034 145.32 388.306 146.064C389.578 146.808 390.526 147.744 391.15 148.872V145.272H394.462V165H391.15V161.328C390.502 162.48 389.53 163.44 388.234 164.208C386.962 164.952 385.474 165.324 383.77 165.324C382.018 165.324 380.434 164.892 379.018 164.028C377.602 163.164 376.486 161.952 375.67 160.392C374.854 158.832 374.446 157.056 374.446 155.064ZM391.15 155.1C391.15 153.612 390.85 152.316 390.25 151.212C389.65 150.108 388.834 149.268 387.802 148.692C386.794 148.092 385.678 147.792 384.454 147.792C383.23 147.792 382.114 148.08 381.106 148.656C380.098 149.232 379.294 150.072 378.694 151.176C378.094 152.28 377.794 153.576 377.794 155.064C377.794 156.576 378.094 157.896 378.694 159.024C379.294 160.128 380.098 160.98 381.106 161.58C382.114 162.156 383.23 162.444 384.454 162.444C385.678 162.444 386.794 162.156 387.802 161.58C388.834 160.98 389.65 160.128 390.25 159.024C390.85 157.896 391.15 156.588 391.15 155.1ZM409.611 144.912C412.011 144.912 413.955 145.644 415.443 147.108C416.931 148.548 417.675 150.636 417.675 153.372V165H414.435V153.84C414.435 151.872 413.943 150.372 412.959 149.34C411.975 148.284 410.631 147.756 408.927 147.756C407.199 147.756 405.819 148.296 404.787 149.376C403.779 150.456 403.275 152.028 403.275 154.092V165H399.999V145.272H403.275V148.08C403.923 147.072 404.799 146.292 405.903 145.74C407.031 145.188 408.267 144.912 409.611 144.912ZM72.38 219L62.048 207.552V219H58.772V193.908H62.048V205.536L72.416 193.908H76.556L65.18 206.472L76.664 219H72.38ZM98.3228 208.38C98.3228 209.004 98.2868 209.664 98.2148 210.36H82.4468C82.5668 212.304 83.2268 213.828 84.4268 214.932C85.6508 216.012 87.1268 216.552 88.8548 216.552C90.2708 216.552 91.4468 216.228 92.3828 215.58C93.3428 214.908 94.0148 214.02 94.3988 212.916H97.9268C97.3988 214.812 96.3428 216.36 94.7588 217.56C93.1748 218.736 91.2068 219.324 88.8548 219.324C86.9828 219.324 85.3028 218.904 83.8148 218.064C82.3508 217.224 81.1988 216.036 80.3588 214.5C79.5188 212.94 79.0988 211.14 79.0988 209.1C79.0988 207.06 79.5068 205.272 80.3228 203.736C81.1388 202.2 82.2788 201.024 83.7428 200.208C85.2308 199.368 86.9348 198.948 88.8548 198.948C90.7268 198.948 92.3828 199.356 93.8228 200.172C95.2628 200.988 96.3668 202.116 97.1348 203.556C97.9268 204.972 98.3228 206.58 98.3228 208.38ZM94.9388 207.696C94.9388 206.448 94.6628 205.38 94.1108 204.492C93.5588 203.58 92.8028 202.896 91.8428 202.44C90.9068 201.96 89.8628 201.72 88.7108 201.72C87.0548 201.72 85.6388 202.248 84.4628 203.304C83.3108 204.36 82.6508 205.824 82.4828 207.696H94.9388ZM120.143 199.272V219H116.867V216.084C116.243 217.092 115.367 217.884 114.239 218.46C113.135 219.012 111.911 219.288 110.567 219.288C109.031 219.288 107.651 218.976 106.427 218.352C105.203 217.704 104.231 216.744 103.511 215.472C102.815 214.2 102.467 212.652 102.467 210.828V199.272H105.707V210.396C105.707 212.34 106.199 213.84 107.183 214.896C108.167 215.928 109.511 216.444 111.215 216.444C112.967 216.444 114.347 215.904 115.355 214.824C116.363 213.744 116.867 212.172 116.867 210.108V199.272H120.143ZM135.286 198.912C137.686 198.912 139.63 199.644 141.118 201.108C142.606 202.548 143.35 204.636 143.35 207.372V219H140.11V207.84C140.11 205.872 139.618 204.372 138.634 203.34C137.65 202.284 136.306 201.756 134.602 201.756C132.874 201.756 131.494 202.296 130.462 203.376C129.454 204.456 128.95 206.028 128.95 208.092V219H125.674V199.272H128.95V202.08C129.598 201.072 130.474 200.292 131.578 199.74C132.706 199.188 133.942 198.912 135.286 198.912ZM152.698 201.972V213.6C152.698 214.56 152.902 215.244 153.31 215.652C153.718 216.036 154.426 216.228 155.434 216.228H157.846V219H154.894C153.07 219 151.702 218.58 150.79 217.74C149.878 216.9 149.422 215.52 149.422 213.6V201.972H146.866V199.272H149.422V194.304H152.698V199.272H157.846V201.972H152.698ZM179.311 199.272V219H176.035V216.084C175.411 217.092 174.535 217.884 173.407 218.46C172.303 219.012 171.079 219.288 169.735 219.288C168.199 219.288 166.819 218.976 165.595 218.352C164.371 217.704 163.399 216.744 162.679 215.472C161.983 214.2 161.635 212.652 161.635 210.828V199.272H164.875V210.396C164.875 212.34 165.367 213.84 166.351 214.896C167.335 215.928 168.679 216.444 170.383 216.444C172.135 216.444 173.515 215.904 174.523 214.824C175.531 213.744 176.035 212.172 176.035 210.108V199.272H179.311ZM194.454 198.912C196.854 198.912 198.798 199.644 200.286 201.108C201.774 202.548 202.518 204.636 202.518 207.372V219H199.278V207.84C199.278 205.872 198.786 204.372 197.802 203.34C196.818 202.284 195.474 201.756 193.77 201.756C192.042 201.756 190.662 202.296 189.63 203.376C188.622 204.456 188.118 206.028 188.118 208.092V219H184.842V199.272H188.118V202.08C188.766 201.072 189.642 200.292 190.746 199.74C191.874 199.188 193.11 198.912 194.454 198.912ZM216.006 198.948C217.71 198.948 219.198 199.32 220.47 200.064C221.766 200.808 222.726 201.744 223.35 202.872V199.272H226.662V219.432C226.662 221.232 226.278 222.828 225.51 224.22C224.742 225.636 223.638 226.74 222.198 227.532C220.782 228.324 219.126 228.72 217.23 228.72C214.638 228.72 212.478 228.108 210.75 226.884C209.022 225.66 208.002 223.992 207.69 221.88H210.93C211.29 223.08 212.034 224.04 213.162 224.76C214.29 225.504 215.646 225.876 217.23 225.876C219.03 225.876 220.494 225.312 221.622 224.184C222.774 223.056 223.35 221.472 223.35 219.432V215.292C222.702 216.444 221.742 217.404 220.47 218.172C219.198 218.94 217.71 219.324 216.006 219.324C214.254 219.324 212.658 218.892 211.218 218.028C209.802 217.164 208.686 215.952 207.87 214.392C207.054 212.832 206.646 211.056 206.646 209.064C206.646 207.048 207.054 205.284 207.87 203.772C208.686 202.236 209.802 201.048 211.218 200.208C212.658 199.368 214.254 198.948 216.006 198.948ZM223.35 209.1C223.35 207.612 223.05 206.316 222.45 205.212C221.85 204.108 221.034 203.268 220.002 202.692C218.994 202.092 217.878 201.792 216.654 201.792C215.43 201.792 214.314 202.08 213.306 202.656C212.298 203.232 211.494 204.072 210.894 205.176C210.294 206.28 209.994 207.576 209.994 209.064C209.994 210.576 210.294 211.896 210.894 213.024C211.494 214.128 212.298 214.98 213.306 215.58C214.314 216.156 215.43 216.444 216.654 216.444C217.878 216.444 218.994 216.156 220.002 215.58C221.034 214.98 221.85 214.128 222.45 213.024C223.05 211.896 223.35 210.588 223.35 209.1ZM230.974 209.064C230.974 207.048 231.382 205.284 232.198 203.772C233.014 202.236 234.13 201.048 235.546 200.208C236.986 199.368 238.582 198.948 240.334 198.948C242.062 198.948 243.562 199.32 244.834 200.064C246.106 200.808 247.054 201.744 247.678 202.872V199.272H250.99V219H247.678V215.328C247.03 216.48 246.058 217.44 244.762 218.208C243.49 218.952 242.002 219.324 240.298 219.324C238.546 219.324 236.962 218.892 235.546 218.028C234.13 217.164 233.014 215.952 232.198 214.392C231.382 212.832 230.974 211.056 230.974 209.064ZM247.678 209.1C247.678 207.612 247.378 206.316 246.778 205.212C246.178 204.108 245.362 203.268 244.33 202.692C243.322 202.092 242.206 201.792 240.982 201.792C239.758 201.792 238.642 202.08 237.634 202.656C236.626 203.232 235.822 204.072 235.222 205.176C234.622 206.28 234.322 207.576 234.322 209.064C234.322 210.576 234.622 211.896 235.222 213.024C235.822 214.128 236.626 214.98 237.634 215.58C238.642 216.156 239.758 216.444 240.982 216.444C242.206 216.444 243.322 216.156 244.33 215.58C245.362 214.98 246.178 214.128 246.778 213.024C247.378 211.896 247.678 210.588 247.678 209.1ZM266.138 198.912C268.538 198.912 270.482 199.644 271.97 201.108C273.458 202.548 274.202 204.636 274.202 207.372V219H270.962V207.84C270.962 205.872 270.47 204.372 269.486 203.34C268.502 202.284 267.158 201.756 265.454 201.756C263.726 201.756 262.346 202.296 261.314 203.376C260.306 204.456 259.802 206.028 259.802 208.092V219H256.526V199.272H259.802V202.08C260.45 201.072 261.326 200.292 262.43 199.74C263.558 199.188 264.794 198.912 266.138 198.912Z" fill="black"/>
</svg>
