<svg width="19" height="19" viewBox="0 0 19 19" fill="none" xmlns="http://www.w3.org/2000/svg">
<path d="M13.2637 11.5273H12.4737L12.1937 11.2573C13.1737 10.1173 13.7637 8.63734 13.7637 7.02734C13.7637 3.43734 10.8537 0.527344 7.26367 0.527344C3.67367 0.527344 0.763672 3.43734 0.763672 7.02734C0.763672 10.6173 3.67367 13.5273 7.26367 13.5273C8.87367 13.5273 10.3537 12.9373 11.4937 11.9573L11.7637 12.2373V13.0273L16.7637 18.0173L18.2537 16.5273L13.2637 11.5273ZM7.26367 11.5273C4.77367 11.5273 2.76367 9.51734 2.76367 7.02734C2.76367 4.53734 4.77367 2.52734 7.26367 2.52734C9.75367 2.52734 11.7637 4.53734 11.7637 7.02734C11.7637 9.51734 9.75367 11.5273 7.26367 11.5273Z" fill="#4F5559"/>
</svg>
