<svg width="23" height="23" viewBox="0 0 23 23" fill="none" xmlns="http://www.w3.org/2000/svg">
<path d="M2.34082 1.875C1.96112 1.875 1.65332 2.1828 1.65332 2.5625V6.6875C1.65332 7.0672 1.34552 7.375 0.96582 7.375C0.586125 7.375 0.27832 7.0672 0.27832 6.6875V2.5625C0.27832 1.42341 1.20173 0.5 2.34082 0.5H6.46582C6.84552 0.5 7.15332 0.807804 7.15332 1.1875C7.15332 1.5672 6.84552 1.875 6.46582 1.875H2.34082ZM15.4033 1.1875C15.4033 0.807804 15.7111 0.5 16.0908 0.5H20.2158C21.3549 0.5 22.2783 1.42341 22.2783 2.5625V6.6875C22.2783 7.0672 21.9705 7.375 21.5908 7.375C21.2111 7.375 20.9033 7.0672 20.9033 6.6875V2.5625C20.9033 2.1828 20.5955 1.875 20.2158 1.875H16.0908C15.7111 1.875 15.4033 1.5672 15.4033 1.1875ZM0.96582 15.625C1.34552 15.625 1.65332 15.9328 1.65332 16.3125V20.4375C1.65332 20.8172 1.96112 21.125 2.34082 21.125H6.46582C6.84552 21.125 7.15332 21.4328 7.15332 21.8125C7.15332 22.1922 6.84552 22.5 6.46582 22.5H2.34082C1.20173 22.5 0.27832 21.5766 0.27832 20.4375V16.3125C0.27832 15.9328 0.586125 15.625 0.96582 15.625ZM21.5908 15.625C21.9705 15.625 22.2783 15.9328 22.2783 16.3125V20.4375C22.2783 21.5766 21.3549 22.5 20.2158 22.5H16.0908C15.7111 22.5 15.4033 22.1922 15.4033 21.8125C15.4033 21.4328 15.7111 21.125 16.0908 21.125H20.2158C20.5955 21.125 20.9033 20.8172 20.9033 20.4375V16.3125C20.9033 15.9328 21.2111 15.625 21.5908 15.625Z" fill="white"/>
<path d="M4.40332 6.6875C4.40332 6.3078 4.71112 6 5.09082 6C5.47052 6 5.77832 6.3078 5.77832 6.6875V16.3125C5.77832 16.6922 5.47052 17 5.09082 17C4.71112 17 4.40332 16.6922 4.40332 16.3125V6.6875Z" fill="white"/>
<path d="M7.15332 6.6875C7.15332 6.3078 7.46112 6 7.84082 6C8.22052 6 8.52832 6.3078 8.52832 6.6875V16.3125C8.52832 16.6922 8.22052 17 7.84082 17C7.46112 17 7.15332 16.6922 7.15332 16.3125V6.6875Z" fill="white"/>
<path d="M9.90332 6.6875C9.90332 6.3078 10.2111 6 10.5908 6C10.9705 6 11.2783 6.3078 11.2783 6.6875V16.3125C11.2783 16.6922 10.9705 17 10.5908 17C10.2111 17 9.90332 16.6922 9.90332 16.3125V6.6875Z" fill="white"/>
<path d="M12.6533 6.6875C12.6533 6.3078 12.9611 6 13.3408 6H14.7158C15.0955 6 15.4033 6.3078 15.4033 6.6875V16.3125C15.4033 16.6922 15.0955 17 14.7158 17H13.3408C12.9611 17 12.6533 16.6922 12.6533 16.3125V6.6875Z" fill="white"/>
<path d="M16.7783 6.6875C16.7783 6.3078 17.0861 6 17.4658 6C17.8455 6 18.1533 6.3078 18.1533 6.6875V16.3125C18.1533 16.6922 17.8455 17 17.4658 17C17.0861 17 16.7783 16.6922 16.7783 16.3125V6.6875Z" fill="white"/>
</svg>
