<svg width="75" height="76" viewBox="0 0 75 76" fill="none" xmlns="http://www.w3.org/2000/svg">
<path d="M38.1414 6.15961C37.5869 5.93592 36.9684 5.93592 36.4139 6.15961L8.65435 17.3587L19.8349 21.8693L48.4582 10.3218L38.1414 6.15961ZM54.7203 12.8481L26.0971 24.3957L37.2776 28.9063L65.9009 17.3587L54.7203 12.8481ZM69.8374 20.8233L39.6033 33.0207V70.1898L69.8374 57.9924V20.8233ZM34.9519 70.1898V33.0207L4.71792 20.8233V57.9924L34.9519 70.1898ZM34.6864 1.80384C36.3498 1.13277 38.2054 1.13277 39.8689 1.80384L73.0268 15.1808C73.9098 15.5371 74.4887 16.3996 74.4887 17.3587V57.9924C74.4887 59.9107 73.3308 61.6357 71.5648 62.3481L38.1414 75.8323C37.5869 76.056 36.9684 76.056 36.4139 75.8323L2.99043 62.3481C1.2245 61.6357 0.0665283 59.9107 0.0665283 57.9924V17.3587C0.0665283 16.3996 0.645512 15.5371 1.52848 15.1808L34.6864 1.80384Z" fill="#FFB546" fill-opacity="0.42"/>
</svg>
