<svg width="14" height="15" viewBox="0 0 14 15" fill="none" xmlns="http://www.w3.org/2000/svg">
<g clip-path="url(#clip0_108_4767)">
<rect width="14" height="14" transform="translate(0 0.5)" fill="white"/>
<g clip-path="url(#clip1_108_4767)">
<path d="M9.49688 6.75202C9.53763 6.79266 9.56995 6.84094 9.59201 6.89409C9.61406 6.94724 9.62542 7.00422 9.62542 7.06177C9.62542 7.11931 9.61406 7.1763 9.59201 7.22945C9.56995 7.2826 9.53763 7.33088 9.49688 7.37152L6.87188 9.99652C6.83124 10.0373 6.78297 10.0696 6.72981 10.0916C6.67666 10.1137 6.61968 10.125 6.56213 10.125C6.50459 10.125 6.44761 10.1137 6.39445 10.0916C6.3413 10.0696 6.29302 10.0373 6.25238 9.99652L4.93988 8.68402C4.89921 8.64334 4.86694 8.59505 4.84493 8.5419C4.82291 8.48876 4.81158 8.43179 4.81158 8.37427C4.81158 8.31674 4.82291 8.25978 4.84493 8.20663C4.86694 8.15348 4.89921 8.10519 4.93988 8.06452C5.02203 7.98237 5.13345 7.93622 5.24963 7.93622C5.30716 7.93622 5.36412 7.94755 5.41727 7.96956C5.47042 7.99157 5.51871 8.02384 5.55938 8.06452L6.56213 9.06814L8.87738 6.75202C8.91802 6.71127 8.9663 6.67895 9.01945 6.65689C9.07261 6.63484 9.12959 6.62349 9.18713 6.62349C9.24468 6.62349 9.30166 6.63484 9.35481 6.65689C9.40796 6.67895 9.45624 6.71127 9.49688 6.75202Z" fill="#666E73"/>
<path d="M3.06213 0.499268C3.17817 0.499268 3.28945 0.545361 3.37149 0.627408C3.45354 0.709456 3.49963 0.820735 3.49963 0.936768V1.37427H10.4996V0.936768C10.4996 0.820735 10.5457 0.709456 10.6278 0.627408C10.7098 0.545361 10.8211 0.499268 10.9371 0.499268C11.0532 0.499268 11.1644 0.545361 11.2465 0.627408C11.3285 0.709456 11.3746 0.820735 11.3746 0.936768V1.37427H12.2496C12.7138 1.37427 13.1589 1.55864 13.4871 1.88683C13.8153 2.21502 13.9996 2.66014 13.9996 3.12427V12.7493C13.9996 13.2134 13.8153 13.6585 13.4871 13.9867C13.1589 14.3149 12.7138 14.4993 12.2496 14.4993H1.74963C1.2855 14.4993 0.840386 14.3149 0.512197 13.9867C0.184008 13.6585 -0.000366211 13.2134 -0.000366211 12.7493V3.12427C-0.000366211 2.66014 0.184008 2.21502 0.512197 1.88683C0.840386 1.55864 1.2855 1.37427 1.74963 1.37427H2.62463V0.936768C2.62463 0.820735 2.67073 0.709456 2.75277 0.627408C2.83482 0.545361 2.9461 0.499268 3.06213 0.499268ZM0.874634 3.99927V12.7493C0.874634 12.9813 0.966821 13.2039 1.13092 13.368C1.29501 13.5321 1.51757 13.6243 1.74963 13.6243H12.2496C12.4817 13.6243 12.7043 13.5321 12.8684 13.368C13.0324 13.2039 13.1246 12.9813 13.1246 12.7493V3.99927H0.874634Z" fill="#666E73"/>
</g>
</g>
<defs>
<clipPath id="clip0_108_4767">
<rect width="14" height="14" fill="white" transform="translate(0 0.5)"/>
</clipPath>
<clipPath id="clip1_108_4767">
<rect width="14" height="14" fill="white" transform="translate(0 0.5)"/>
</clipPath>
</defs>
</svg>
