<svg width="181" height="33" viewBox="0 0 181 33" fill="none" xmlns="http://www.w3.org/2000/svg">
<path d="M7.0455 31.8506C6.29177 32.2603 5.43833 31.5443 5.59007 30.6297L7.2084 20.8751L0.338332 13.952C-0.303712 13.305 0.0286416 12.1221 0.888761 11.9929L10.4429 10.5576L14.7029 1.63413C15.0866 0.83029 16.1261 0.83029 16.5099 1.63413L20.7699 10.5576L30.324 11.9929C31.1841 12.1221 31.5165 13.305 30.8744 13.952L24.0044 20.8751L25.6227 30.6297C25.7744 31.5443 24.921 32.2603 24.1673 31.8506L15.6064 27.1977L7.0455 31.8506Z" fill="#EDF042"/>
<path d="M44.4937 31.8506C43.74 32.2603 42.8866 31.5443 43.0383 30.6297L44.6566 20.8751L37.7866 13.952C37.1445 13.305 37.4769 12.1221 38.337 11.9929L47.8911 10.5576L52.1511 1.63413C52.5349 0.83029 53.5744 0.83029 53.9581 1.63413L58.2181 10.5576L67.7722 11.9929C68.6324 12.1221 68.9647 13.305 68.3227 13.952L61.4526 20.8751L63.0709 30.6297C63.2227 31.5443 62.3692 32.2603 61.6155 31.8506L53.0546 27.1977L44.4937 31.8506Z" fill="#EDF042"/>
<path d="M81.9421 31.8506C81.1884 32.2603 80.3349 31.5443 80.4867 30.6297L82.105 20.8751L75.2349 13.952C74.5929 13.305 74.9252 12.1221 75.7854 11.9929L85.3395 10.5576L89.5995 1.63413C89.9832 0.83029 91.0227 0.83029 91.4065 1.63413L95.6665 10.5576L105.221 11.9929C106.081 12.1221 106.413 13.305 105.771 13.952L98.901 20.8751L100.519 30.6297C100.671 31.5443 99.8176 32.2603 99.0639 31.8506L90.503 27.1977L81.9421 31.8506Z" fill="#EDF042"/>
<path d="M119.39 31.8506C118.637 32.2603 117.783 31.5443 117.935 30.6297L119.553 20.8751L112.683 13.952C112.041 13.305 112.373 12.1221 113.234 11.9929L122.788 10.5576L127.048 1.63413C127.431 0.83029 128.471 0.83029 128.855 1.63413L133.115 10.5576L142.669 11.9929C143.529 12.1221 143.861 13.305 143.219 13.952L136.349 20.8751L137.968 30.6297C138.119 31.5443 137.266 32.2603 136.512 31.8506L127.951 27.1977L119.39 31.8506Z" fill="#EDF042"/>
<path d="M156.839 31.8506C156.085 32.2603 155.231 31.5443 155.383 30.6297L157.001 20.8751L150.131 13.952C149.489 13.305 149.822 12.1221 150.682 11.9929L160.236 10.5576L164.496 1.63413C164.88 0.83029 165.919 0.83029 166.303 1.63413L170.563 10.5576L180.117 11.9929C180.977 12.1221 181.31 13.305 180.668 13.952L173.797 20.8751L175.416 30.6297C175.568 31.5443 174.714 32.2603 173.96 31.8506L165.399 27.1977L156.839 31.8506Z" fill="#EDF042"/>
</svg>
