<svg width="81" height="79" viewBox="0 0 81 79" fill="none" xmlns="http://www.w3.org/2000/svg">
<g clip-path="url(#clip0_1_8927)">
<path d="M46.4003 6.13011C47.5292 6.32915 48.6284 6.59527 49.6334 6.94255C50.6292 7.24985 51.5966 7.63953 52.5244 8.10715C53.4566 8.56491 54.3549 9.08898 55.2371 9.70377C56.0972 10.2934 56.9664 10.9824 57.8276 11.7168C59.2774 12.9929 60.7348 14.0748 62.2507 15.0012C65.2403 16.7948 68.5017 18.1234 71.9121 18.9371C73.6403 19.3652 75.4246 19.7521 77.2945 20.0818L74.3859 36.5773C73.8332 39.7115 72.8918 42.607 71.5571 45.2886C70.2625 47.9356 68.6474 50.4236 66.7448 52.7019C64.8489 54.9776 62.7136 57.0588 60.3719 58.913C57.9914 60.812 55.471 62.5444 52.8296 64.0973C50.1568 65.6506 47.3846 67.0434 44.5287 68.2677C41.6698 69.5154 38.8062 70.6391 35.968 71.6183L34.83 72.0257L33.8999 71.2537C31.5021 69.3125 29.1836 67.2823 26.9499 65.1681C24.6672 63.0572 22.5375 60.7991 20.5759 58.4101C18.6263 56.0477 16.8519 53.5579 15.2659 50.9596C13.7065 48.4079 12.4038 45.7219 11.3758 42.9388C10.3941 40.1403 9.72802 37.253 9.38925 34.3267C9.06092 31.27 9.17628 28.1906 9.73202 25.1771L12.6406 8.68156C14.5148 9.01204 16.3239 9.25873 18.0942 9.44758C19.8363 9.63673 21.5887 9.70269 23.3371 9.64493C25.0498 9.58125 26.7829 9.4021 28.5192 9.05343C30.3195 8.69953 32.0774 8.17934 33.7686 7.50008C35.8724 6.65492 37.9474 6.12362 39.9442 5.88467C42.0915 5.6456 44.2695 5.7284 46.4003 6.13011ZM72.2453 23.3713C69.0106 22.6447 65.8715 21.5531 62.8942 20.1194C59.9349 18.6802 57.1976 16.8475 54.7646 14.6762C53.505 13.5365 52.0897 12.5672 50.559 11.7958C49.0267 11.044 47.3882 10.5172 45.6991 10.233C44.0016 9.9229 42.2694 9.85533 40.5589 10.0325C38.8571 10.2176 37.1974 10.6458 35.6347 11.3031C32.5995 12.5197 29.3918 13.3101 26.1093 13.6502C22.9048 13.9611 19.6162 13.917 16.2307 13.5157L14.0369 25.9574C13.5548 28.6916 13.4643 31.3714 13.7611 34.0218C14.0757 36.6527 14.6909 39.2467 15.5958 41.7567C16.5122 44.2932 17.688 46.7397 19.106 49.0599C20.5456 51.4016 22.1306 53.6243 23.8831 55.7787C25.6349 57.9372 27.5112 59.9689 29.5077 61.8985C31.5251 63.836 33.5721 65.6299 35.636 67.3035C38.2088 66.4112 40.7396 65.4147 43.2218 64.3166C45.772 63.1938 48.2435 61.9168 50.6219 60.4934C53.0055 59.0683 55.2595 57.5226 57.4131 55.8145C59.5393 54.1194 61.481 52.2226 63.2094 50.1523C64.9119 48.1049 66.3621 45.874 67.5316 43.503C68.7463 41.0792 69.5935 38.497 70.0479 35.8337L72.2453 23.3713Z" fill="#7DA5D3" fill-opacity="0.47"/>
<path fill-rule="evenodd" clip-rule="evenodd" d="M59.0383 28.3816L57.4174 26.4885L55.6427 26.3244L33.1141 44.2418L28.2575 34.371L26.5836 33.7867L24.348 34.7999L23.7599 36.3971L30.0026 49.0891L30.8503 49.7488L32.799 50.2114L33.8813 49.9686L58.8688 30.0738L59.0383 28.3816Z" fill="#7DA5D3" fill-opacity="0.47"/>
</g>
<defs>
<clipPath id="clip0_1_8927">
<rect width="70" height="67" fill="white" transform="translate(11.6348) rotate(10)"/>
</clipPath>
</defs>
</svg>
