<svg width="107" height="87" viewBox="0 0 107 87" fill="none" xmlns="http://www.w3.org/2000/svg">
<path d="M0 19.0312C0 14.5267 4.49114 10.875 10.0312 10.875H70.2188C75.7589 10.875 80.25 14.5267 80.25 19.0312V27.1875H87.0671C90.1144 27.1875 92.9965 28.3138 94.9002 30.2486L104.802 40.3122C106.225 41.7584 107 43.5553 107 45.4074V57.0938C107 61.5983 102.509 65.25 96.9688 65.25H93.625C93.625 71.2561 87.6368 76.125 80.25 76.125C72.8632 76.125 66.875 71.2561 66.875 65.25H33.4375C33.4375 71.2561 27.4493 76.125 20.0625 76.125C12.6757 76.125 6.6875 71.2561 6.6875 65.25C6.6875 65.0956 6.69145 64.9421 6.69929 64.7893C2.79701 63.6723 0 60.6486 0 57.0938V19.0312ZM8.65333 59.5716C11.0051 56.4544 15.2351 54.375 20.0625 54.375C25.0131 54.375 29.3356 56.562 31.6482 59.8125H68.6643C69.8389 58.1615 71.532 56.7849 73.5625 55.8299V19.0312C73.5625 17.5297 72.0655 16.3125 70.2188 16.3125H10.0312C8.18455 16.3125 6.6875 17.5297 6.6875 19.0312V57.0938C6.6875 58.1959 7.49401 59.1448 8.65333 59.5716ZM80.25 54.375C85.2006 54.375 89.5231 56.562 91.8357 59.8125H96.9688C98.8155 59.8125 100.312 58.5953 100.312 57.0938V45.4074C100.312 44.79 100.054 44.1911 99.5798 43.709L89.6781 33.6454C89.0435 33.0004 88.0828 32.625 87.0671 32.625H80.25V54.375ZM20.0625 59.8125C16.3691 59.8125 13.375 62.2469 13.375 65.25C13.375 68.2531 16.3691 70.6875 20.0625 70.6875C23.7559 70.6875 26.75 68.2531 26.75 65.25C26.75 62.2469 23.7559 59.8125 20.0625 59.8125ZM80.25 59.8125C76.5566 59.8125 73.5625 62.2469 73.5625 65.25C73.5625 68.2531 76.5566 70.6875 80.25 70.6875C83.9434 70.6875 86.9375 68.2531 86.9375 65.25C86.9375 62.2469 83.9434 59.8125 80.25 59.8125Z" fill="#77DF75" fill-opacity="0.47"/>
</svg>
